<?xml version="1.0" encoding="UTF-8" standalone="no"?><!DOCTYPE svg PUBLIC "-//W3C//DTD SVG 1.1//EN" "http://www.w3.org/Graphics/SVG/1.1/DTD/svg11.dtd"><svg width="100%" height="100%" viewBox="0 0 1067 1067" version="1.1" xmlns="http://www.w3.org/2000/svg" xmlns:xlink="http://www.w3.org/1999/xlink" xml:space="preserve" xmlns:serif="http://www.serif.com/" style="fill-rule:evenodd;clip-rule:evenodd;stroke-linecap:round;stroke-linejoin:round;stroke-miterlimit:1.5;"><circle cx="533.333" cy="533.333" r="490.88" style="fill:#eeb6a8;stroke:#440a29;stroke-width:38.4px;"/><g transform="matrix(0.242956,0,0,0.242956,159.15,71.4763)"><path d="M948.739,3285.2l435.446,0c50.621,0 80.014,-31.025 80.014,-76.747c-0,-46.811 -29.393,-76.748 -80.014,-76.748l-271.609,0l-0,-3.81l156.216,-142.609c124.647,-112.671 175.812,-170.368 175.812,-271.065c-0,-138.799 -117.571,-234.053 -296.648,-234.053c-143.153,0 -247.661,69.128 -281.952,159.483c-5.987,14.152 -8.165,28.304 -8.165,43.544c0,48.988 31.026,78.925 82.735,78.925c40.279,0 63.684,-15.785 88.722,-54.431c28.849,-52.253 64.229,-77.292 115.938,-77.292c62.596,0 106.14,40.279 106.14,96.887c0,51.165 -25.038,87.09 -117.026,170.913l-224.255,203.571c-39.19,33.747 -54.975,60.418 -54.975,97.976c-0,49.532 29.393,85.456 93.621,85.456Z" style="fill:none;fill-rule:nonzero;stroke:#440a29;stroke-width:204.17px;stroke-linecap:butt;stroke-miterlimit:2;"/><path d="M1877.33,3304.79c198.673,0 336.383,-93.621 336.383,-231.875c-0,-106.14 -80.013,-180.71 -190.508,-199.761l0,-3.81c95.254,-21.228 161.66,-89.267 161.66,-174.723c-0,-124.647 -125.191,-214.458 -307.535,-214.458c-181.798,0 -307.534,89.811 -307.534,213.914c0,87.089 66.95,154.039 162.749,175.267l-0,3.81c-110.495,19.051 -191.053,93.077 -191.053,199.217c0,138.798 136.622,232.419 335.838,232.419Zm0,-492.054c-64.228,-0 -109.95,-40.279 -109.95,-97.976c0,-58.241 46.266,-97.975 109.95,-97.975c64.229,-0 111.039,39.734 111.039,97.975c0,57.697 -46.266,97.976 -111.039,97.976Zm0,354.889c-74.57,-0 -126.279,-46.267 -126.279,-109.951c-0,-62.595 51.709,-107.773 126.279,-107.773c75.115,0 126.824,45.178 126.824,107.773c0,63.684 -51.709,109.951 -126.824,109.951Z" style="fill:none;fill-rule:nonzero;stroke:#440a29;stroke-width:204.17px;stroke-linecap:butt;stroke-miterlimit:2;"/><g transform="matrix(1114.74,0,0,1114.74,804.497,3285.2)"><path d="M0.129,-0l0.391,-0c0.045,-0 0.072,-0.028 0.072,-0.069c-0,-0.042 -0.027,-0.069 -0.072,-0.069l-0.244,0l0,-0.003l0.141,-0.128c0.111,-0.101 0.157,-0.153 0.157,-0.243c0,-0.125 -0.105,-0.21 -0.266,-0.21c-0.128,-0 -0.222,0.062 -0.253,0.143c-0.005,0.013 -0.007,0.025 -0.007,0.039c-0,0.044 0.028,0.071 0.074,0.071c0.036,-0 0.057,-0.014 0.08,-0.049c0.026,-0.047 0.057,-0.069 0.104,-0.069c0.056,-0 0.095,0.036 0.095,0.087c-0,0.045 -0.023,0.078 -0.105,0.153l-0.201,0.182c-0.035,0.031 -0.05,0.055 -0.05,0.088c0,0.045 0.027,0.077 0.084,0.077Z" style="fill:#fef2a8;fill-rule:nonzero;"/></g><g transform="matrix(1114.74,0,0,1114.74,1498.49,3285.2)"><path d="M0.34,0.018c0.178,-0 0.302,-0.084 0.302,-0.208c-0,-0.096 -0.072,-0.163 -0.171,-0.18l-0,-0.003c0.085,-0.019 0.145,-0.08 0.145,-0.157c-0,-0.112 -0.113,-0.192 -0.276,-0.192c-0.163,-0 -0.276,0.08 -0.276,0.192c-0,0.078 0.06,0.138 0.146,0.157l-0,0.003c-0.099,0.017 -0.171,0.084 -0.171,0.179c-0,0.125 0.122,0.209 0.301,0.209Zm-0,-0.442c-0.058,0 -0.099,-0.036 -0.099,-0.088c0,-0.052 0.042,-0.088 0.099,-0.088c0.057,0 0.099,0.036 0.099,0.088c0,0.052 -0.041,0.088 -0.099,0.088Zm-0,0.319c-0.067,-0 -0.113,-0.042 -0.113,-0.099c-0,-0.056 0.046,-0.097 0.113,-0.097c0.067,0 0.114,0.041 0.114,0.097c-0,0.057 -0.047,0.099 -0.114,0.099Z" style="fill:#fef2a8;fill-rule:nonzero;"/></g></g><g><g><path d="M368.604,286.268c-12.547,-0 -22.719,-10.171 -22.719,-22.719l0,-52.016c0,-12.547 10.172,-22.719 22.719,-22.719c12.547,0 22.718,10.171 22.718,22.719l-0,52.016c-0,12.547 -10.171,22.719 -22.718,22.719Z" style="fill:#ffe266;fill-rule:nonzero;"/><path d="M696.304,286.268c-12.547,-0 -22.719,-10.171 -22.719,-22.719l0,-52.016c0,-12.547 10.171,-22.719 22.719,-22.719c12.547,0 22.718,10.171 22.718,22.719l-0,52.016c-0,12.547 -10.171,22.719 -22.718,22.719Z" style="fill:#ffe266;fill-rule:nonzero;"/><path d="M743.342,599.482l-420.016,0c-16.025,0 -29.015,-12.99 -29.015,-29.014l-0,-288.95c-0,-16.025 12.99,-29.015 29.015,-29.015l420.016,-0c16.025,-0 29.015,12.99 29.015,29.015l-0,288.95c-0.001,16.024 -12.991,29.014 -29.015,29.014Z" style="fill:#fef2a8;fill-rule:nonzero;"/><path d="M726.911,569.064l-118.97,0c-6.871,0 -12.441,-5.57 -12.441,-12.44l0,-247.923c0,-6.871 5.57,-12.44 12.441,-12.44l118.97,-0c6.872,-0 12.441,5.57 12.441,12.44l-0,247.923c-0,6.871 -5.569,12.44 -12.441,12.44Z" style="fill:#fff;fill-rule:nonzero;"/><path d="M333.503,350.835l225.188,-0c4.494,-0 8.136,3.643 8.136,8.137l0,196.632c0,4.494 -3.642,8.136 -8.136,8.136l-225.188,0c-4.494,0 -8.136,-3.642 -8.136,-8.136l-0,-196.631c-0,-4.494 3.642,-8.138 8.136,-8.138Z" style="fill:#fff;fill-rule:nonzero;"/><path d="M566.828,395.66l0,-36.688c0,-4.494 -3.643,-8.137 -8.136,-8.137l-225.189,-0c-4.494,-0 -8.136,3.643 -8.136,8.137l-0,36.688l241.461,0Z" style="fill:#ef8bbd;fill-rule:nonzero;"/><path d="M743.342,252.503l-53.977,-0c13.76,-0 24.915,11.154 24.915,24.914l-0,241.407c-0,13.76 -11.155,24.915 -24.915,24.915l-370.139,0c-13.761,0 -24.915,-11.155 -24.915,-24.915l-0,51.643c-0,16.024 12.99,29.014 29.015,29.014l420.016,0c16.025,0 29.015,-12.99 29.015,-29.014l-0,-288.949c-0.001,-16.025 -12.991,-29.015 -29.015,-29.015Z" style="fill:#eeb6a8;fill-rule:nonzero;"/><g><path d="M333.503,563.741l225.188,0c4.494,0 8.136,-3.642 8.136,-8.137l0,-11.864l-241.46,0l-0,11.864c-0,4.495 3.642,8.137 8.136,8.137Z" style="fill:#ffbffc;fill-rule:nonzero;"/><path d="M726.911,296.261l-12.631,-0l-0,222.564c-0,13.76 -11.155,24.915 -24.915,24.915l-93.865,0l0,12.884c0,6.871 5.57,12.44 12.441,12.44l118.97,0c6.872,0 12.441,-5.57 12.441,-12.44l-0,-247.923c-0,-6.87 -5.57,-12.44 -12.441,-12.44Z" style="fill:#ffbffc;fill-rule:nonzero;"/></g></g><g><g><path d="M743.341,242.559l-14.374,-0l0,-31.025c0,-18.011 -14.653,-32.664 -32.664,-32.664c-18.011,0 -32.663,14.653 -32.663,32.664l-0,31.025l-262.373,-0l-0,-31.025c-0,-18.011 -14.653,-32.664 -32.663,-32.664c-18.01,0 -32.663,14.653 -32.663,32.664l-0,31.025l-12.615,-0c-21.483,-0 -38.96,17.477 -38.96,38.959l-0,288.951c-0,21.48 17.477,38.958 38.96,38.958l420.015,-0c21.483,-0 38.96,-17.478 38.96,-38.959l0,-288.951c0,-21.482 -17.477,-38.958 -38.96,-38.958Zm-59.81,-31.025c-0,-7.044 5.729,-12.774 12.772,-12.774c7.044,-0 12.773,5.73 12.773,12.774l0,31.025l-25.546,-0l-0,-31.025l0.001,0Zm-327.701,0c0,-7.044 5.73,-12.774 12.773,-12.774c7.044,-0 12.773,5.73 12.773,12.774l0,31.025l-25.547,-0l0,-31.025l0.001,0Zm406.581,358.934c0,10.514 -8.554,19.069 -19.07,19.069l-420.015,0c-10.515,0 -19.071,-8.554 -19.071,-19.069l0,-288.951c0,-10.515 8.555,-19.07 19.071,-19.07l420.015,0c10.515,0 19.07,8.554 19.07,19.07l0,288.951Z" style="fill:#440a29;fill-rule:nonzero;"/><path d="M726.91,290.294l-118.97,-0c-10.15,-0 -18.407,8.258 -18.407,18.407l-0,247.923c-0,10.149 8.257,18.408 18.407,18.408l118.97,0c10.15,0 18.409,-8.258 18.409,-18.408l-0,-247.923c-0,-10.149 -8.258,-18.407 -18.409,-18.407Zm6.475,266.33c0,3.57 -2.904,6.474 -6.474,6.474l-118.971,-0c-3.571,-0 -6.474,-2.905 -6.474,-6.474l0,-247.923c0,-3.57 2.904,-6.473 6.474,-6.473l118.97,-0c3.571,-0 6.474,2.903 6.474,6.473l0,247.923l0.001,0Z" style="fill:#440a29;fill-rule:nonzero;"/><path d="M558.691,344.869l-225.188,0c-7.776,0 -14.103,6.327 -14.103,14.104l-0,196.631c-0,7.778 6.327,14.105 14.103,14.105l225.188,-0c7.777,-0 14.104,-6.327 14.104,-14.105l0,-196.632c0,-7.776 -6.327,-14.103 -14.104,-14.103Zm-225.188,11.934l225.188,-0c1.196,-0 2.171,0.973 2.171,2.17l-0,31.667l-229.529,-0l0,-31.667c0,-1.198 0.974,-2.17 2.17,-2.17Zm78.782,87.539l27.845,-0l0,29.835l-27.845,-0l-0,-29.835Zm-11.934,29.834l-27.846,-0l0,-29.835l27.846,-0l-0,29.835Zm39.779,11.933l0,29.834l-27.845,0l-0,-29.834l27.845,0Zm11.935,0l27.845,0l0,29.834l-27.845,0l-0,-29.834Zm-0,-11.933l-0,-29.835l27.845,-0l0,29.835l-27.845,-0Zm39.779,-29.834l27.846,-0l-0,29.835l-27.846,-0l0,-29.835Zm0,-11.935l0,-29.834l27.846,0l-0,29.834l-27.846,0Zm-11.934,0l-27.846,0l-0,-29.834l27.846,0l-0,29.834Zm-39.78,0l-27.845,0l-0,-29.834l27.845,0l0,29.834Zm-39.779,0l-27.846,0l0,-29.834l27.846,0l-0,29.834Zm-39.779,0l-29.239,0l0,-29.834l29.239,0l-0,29.834Zm-0,11.935l-0,29.835l-29.239,-0l0,-29.835l29.239,-0Zm-0,41.767l-0,29.834l-29.239,0l0,-29.834l29.239,0Zm11.933,0l27.846,0l-0,29.834l-27.846,0l0,-29.834Zm27.846,41.769l-0,29.896l-27.846,0l0,-29.896l27.846,-0Zm11.934,-0l27.845,-0l0,29.896l-27.845,0l-0,-29.896Zm39.78,-0l27.845,-0l0,29.896l-27.845,0l-0,-29.896Zm39.779,-0l27.846,-0l-0,29.896l-27.846,0l0,-29.896Zm0,-11.934l0,-29.834l27.846,0l-0,29.834l-27.846,0Zm39.779,-29.835l29.239,0l-0,29.834l-29.239,0l0,-29.834Zm0,-11.933l0,-29.835l29.239,-0l-0,29.835l-29.239,-0Zm0,-41.769l0,-29.834l29.239,0l-0,29.834l-29.239,0Zm-200.29,123.197l0,-27.726l29.239,-0l-0,29.896l-27.069,0c-1.196,0 -2.17,-0.973 -2.17,-2.17Zm227.358,2.17l-27.068,0l0,-29.896l29.239,-0l-0,27.726c-0,1.197 -0.975,2.17 -2.171,2.17Z" style="fill:#440a29;fill-rule:nonzero;"/><path d="M333.805,322.909l136.359,0c3.295,0 5.967,-2.672 5.967,-5.967c0,-3.295 -2.672,-5.966 -5.967,-5.966l-136.359,-0c-3.295,-0 -5.967,2.671 -5.967,5.966c0,3.295 2.672,5.967 5.967,5.967Z" style="fill:#440a29;fill-rule:nonzero;"/><path d="M513.869,322.909l42.696,0c3.295,0 5.967,-2.672 5.967,-5.967c-0,-3.295 -2.672,-5.966 -5.967,-5.966l-42.696,-0c-3.294,-0 -5.966,2.671 -5.966,5.966c-0,3.295 2.672,5.967 5.966,5.967Z" style="fill:#440a29;fill-rule:nonzero;"/><path d="M709.681,332.224l-84.511,-0c-3.295,-0 -5.967,2.672 -5.967,5.966c0,3.295 2.672,5.967 5.967,5.967l84.511,0c3.295,0 5.967,-2.672 5.967,-5.967c-0,-3.294 -2.671,-5.966 -5.967,-5.966Z" style="fill:#440a29;fill-rule:nonzero;"/><path d="M709.681,370.466l-84.511,-0c-3.295,-0 -5.967,2.672 -5.967,5.967c0,3.295 2.672,5.966 5.967,5.966l84.511,0c3.295,0 5.967,-2.671 5.967,-5.966c-0,-3.295 -2.671,-5.967 -5.967,-5.967Z" style="fill:#440a29;fill-rule:nonzero;"/><path d="M709.681,408.707l-84.511,0c-3.295,0 -5.967,2.672 -5.967,5.967c0,3.295 2.672,5.967 5.967,5.967l84.511,-0c3.295,-0 5.967,-2.672 5.967,-5.967c-0,-3.295 -2.671,-5.967 -5.967,-5.967Z" style="fill:#440a29;fill-rule:nonzero;"/><path d="M709.681,446.949l-84.511,0c-3.295,0 -5.967,2.672 -5.967,5.967c0,3.295 2.672,5.967 5.967,5.967l84.511,-0c3.295,-0 5.967,-2.672 5.967,-5.967c-0,-3.295 -2.671,-5.967 -5.967,-5.967Z" style="fill:#440a29;fill-rule:nonzero;"/><path d="M709.681,485.19l-84.511,0c-3.295,0 -5.967,2.672 -5.967,5.967c0,3.295 2.672,5.967 5.967,5.967l84.511,0c3.295,0 5.967,-2.672 5.967,-5.967c-0,-3.295 -2.671,-5.967 -5.967,-5.967Z" style="fill:#440a29;fill-rule:nonzero;"/><path d="M709.681,523.432l-84.511,-0c-3.295,-0 -5.967,2.672 -5.967,5.966c0,3.295 2.672,5.967 5.967,5.967l84.511,0c3.295,0 5.967,-2.672 5.967,-5.967c-0,-3.294 -2.671,-5.966 -5.967,-5.966Z" style="fill:#440a29;fill-rule:nonzero;"/></g><path d="M384.105,292.993c-5.406,0 -9.839,-4.332 -9.94,-9.761c-0.101,-5.492 4.269,-10.025 9.76,-10.126c10.139,-0.187 19.09,-0.185 29.021,0c5.491,0.103 9.859,4.639 9.755,10.131c-0.102,5.492 -4.665,9.852 -10.13,9.755c-9.674,-0.182 -18.397,-0.182 -28.279,0c-0.062,0 -0.126,0.001 -0.187,0.001Z" style="fill:#fff;fill-rule:nonzero;"/><path d="M340.768,292.993l-5.97,0c-5.492,0 -9.945,-4.453 -9.945,-9.944c-0,-5.492 4.453,-9.945 9.945,-9.945l5.97,-0c5.492,-0 9.944,4.453 9.944,9.945c0,5.491 -4.453,9.944 -9.944,9.944Z" style="fill:#fff;fill-rule:nonzero;"/></g><g><path d="M582.458,188.815c0,10.187 -8.257,18.445 -18.444,18.445c-10.187,-0 -18.444,-8.258 -18.444,-18.445c-0,-10.186 8.257,-18.444 18.444,-18.444c10.187,0 18.444,8.258 18.444,18.444Z" style="fill:#ffe266;fill-rule:nonzero;"/><path d="M333.549,132.565c0,4.315 -3.497,7.812 -7.81,7.812c-4.315,-0 -7.812,-3.497 -7.812,-7.812c0,-4.314 3.497,-7.81 7.812,-7.81c4.313,-0 7.81,3.497 7.81,7.81Z" style="fill:#ffe266;fill-rule:nonzero;"/></g></g></svg>