<?xml version="1.0" encoding="UTF-8" standalone="no"?><!DOCTYPE svg PUBLIC "-//W3C//DTD SVG 1.1//EN" "http://www.w3.org/Graphics/SVG/1.1/DTD/svg11.dtd"><svg width="100%" height="100%" viewBox="0 0 1700 3071" version="1.1" xmlns="http://www.w3.org/2000/svg" xmlns:xlink="http://www.w3.org/1999/xlink" xml:space="preserve" xmlns:serif="http://www.serif.com/" style="fill-rule:evenodd;clip-rule:evenodd;stroke-linejoin:round;stroke-miterlimit:2;"><g><path d="M812.987,146.711c-16.931,41.738 -36.619,89.776 -43.706,107.101c-46.856,112.613 -75.994,182.701 -91.35,220.501c-9.844,23.625 -22.051,53.156 -26.776,64.969c-4.725,11.812 -16.931,40.95 -26.775,64.969c-9.843,23.625 -27.168,65.363 -38.194,92.531c-11.418,27.169 -41.343,99.62 -66.937,161.439c-25.594,61.819 -59.851,144.9 -76.782,185.063c-16.537,40.162 -33.469,80.719 -37.406,90.563c-3.544,9.843 -18.9,46.069 -33.469,80.719c-14.175,34.65 -44.888,108.281 -67.725,163.407c-47.251,114.581 -59.457,144.506 -87.019,210.657c-10.632,25.987 -20.869,51.581 -22.444,57.094c-1.575,5.512 -7.875,19.687 -13.782,31.5c-5.906,11.812 -11.812,26.381 -13.387,32.287c-1.181,5.907 -7.481,22.05 -13.781,35.438c-6.694,13.781 -16.538,36.225 -22.051,50.4c-5.906,14.175 -18.506,44.888 -28.35,68.907c-18.9,46.462 -40.556,124.031 -50.4,180.732c-7.087,41.737 -8.269,195.694 -1.575,239.794c20.475,138.601 86.625,289.801 170.888,390.602c133.482,160.257 297.676,255.151 503.609,291.376c48.431,8.269 200.419,8.269 248.85,0c205.933,-36.225 370.127,-131.119 503.609,-291.376c84.263,-100.801 150.413,-252.001 170.888,-390.602c6.694,-44.1 5.512,-198.057 -1.575,-239.794c-13.781,-77.569 -46.463,-181.914 -75.207,-238.614c-5.118,-10.237 -9.45,-20.475 -9.45,-23.231c0,-2.363 -5.512,-16.144 -12.206,-30.319c-6.694,-14.569 -16.144,-37.013 -21.263,-50.006c-9.843,-25.594 -20.081,-51.188 -48.037,-118.126c-9.844,-24.019 -23.625,-57.488 -30.713,-74.813c-7.087,-17.325 -24.019,-58.275 -37.406,-90.563c-13.388,-32.681 -36.619,-88.987 -51.582,-125.606c-14.962,-36.619 -36.225,-87.019 -46.462,-112.219c-10.632,-25.201 -35.044,-83.082 -53.551,-128.363c-61.031,-146.87 -167.738,-404.383 -185.85,-448.877c-20.082,-48.825 -27.563,-67.332 -54.338,-131.907c-10.238,-24.806 -24.413,-59.456 -31.5,-76.782c-7.481,-17.325 -22.444,-53.55 -33.469,-80.719c-38.981,-94.106 -50.007,-120.488 -75.207,-181.913c-16.931,-41.737 -27.168,-62.213 -31.106,-62.213c-3.938,0.394 -16.144,25.201 -37.013,75.994Zm48.038,391.39c9.056,21.262 31.5,75.6 50.4,121.275c18.507,45.281 53.55,129.544 77.176,187.032c24.018,57.488 47.643,114.188 52.368,126c4.726,11.813 22.051,53.551 38.588,92.532c16.144,38.981 48.432,116.944 71.663,173.251c36.619,88.594 92.925,224.044 143.719,346.501c8.269,19.294 33.863,81.507 57.094,137.813c23.232,56.307 54.338,131.513 69.3,166.951c27.563,64.969 50.007,140.963 58.669,197.269c6.694,43.707 5.513,126.788 -1.968,171.676c-43.707,256.332 -213.807,450.452 -455.965,519.358c-64.575,18.507 -116.944,26.382 -176.007,26.382c-195.3,0.393 -390.995,-95.288 -507.151,-248.064c-77.57,-101.588 -118.913,-209.082 -130.726,-338.626c-9.844,-106.707 9.45,-215.382 58.669,-326.814c9.056,-20.475 35.044,-82.294 57.881,-137.813c60.244,-144.901 131.12,-315.789 137.42,-329.57c2.756,-6.694 24.412,-57.882 47.25,-114.188c77.569,-188.607 83.869,-204.357 110.25,-267.751c14.569,-34.65 40.951,-98.438 59.063,-141.751c17.719,-43.312 60.638,-146.081 94.5,-228.375c34.257,-82.295 64.182,-154.351 66.544,-160.651c2.363,-5.906 4.332,-10.631 4.725,-10.631c0,-0 7.482,17.325 16.538,38.194Z" style="fill-rule:nonzero;stroke:#000;stroke-width:83.33px;"/><path d="M834.741,1116.73c-6.778,16.945 -39.313,95.909 -72.186,175.212c-32.874,79.303 -68.12,163.689 -77.948,188.09c-9.828,24.062 -29.145,70.831 -42.362,103.365c-13.556,32.535 -29.485,71.509 -35.585,86.42c-6.1,14.912 -24.401,58.969 -40.668,98.282c-108.11,259.937 -104.721,251.465 -115.227,291.794c-10.845,41.007 -14.573,107.093 -8.811,151.15c22.367,166.401 147.083,306.029 310.095,347.375c41.685,10.167 117.26,14.234 155.895,8.133c62.696,-10.167 113.193,-28.467 161.656,-58.969c90.148,-56.596 157.25,-149.455 183.007,-253.159c7.117,-28.129 8.133,-40.329 8.133,-96.587c0,-58.969 -0.678,-67.442 -9.15,-99.976c-5.084,-19.656 -14.573,-47.785 -20.673,-62.697c-16.945,-39.99 -67.78,-161.656 -142,-342.291c-9.15,-22.367 -22.029,-53.546 -28.807,-69.475c-6.439,-15.928 -16.945,-41.007 -23.045,-55.918c-6.1,-14.912 -27.112,-66.086 -46.768,-113.533c-19.657,-47.446 -41.007,-99.298 -47.447,-115.226c-10.844,-26.773 -47.107,-113.532 -76.252,-184.024c-6.778,-16.267 -13.895,-29.484 -15.929,-29.484c-1.694,-0 -9.15,14.234 -15.928,31.518Zm32.195,353.135c6.778,16.606 25.757,63.375 42.363,103.365c16.606,39.991 42.702,103.365 57.952,140.645c15.59,37.279 33.213,79.98 39.313,94.892c6.1,14.912 18.978,46.091 28.468,69.475c18.3,44.057 25.756,62.019 54.224,130.477c29.823,72.186 32.535,84.387 32.196,142.339c-0,47.785 -0.678,52.868 -10.845,83.031c-27.451,82.353 -97.943,152.167 -176.907,174.873c-73.542,21.351 -140.644,16.267 -205.035,-15.928c-68.12,-33.891 -116.583,-93.198 -140.984,-172.501c-6.439,-21.351 -7.794,-32.874 -7.794,-71.17c0.339,-51.513 3.389,-67.441 24.401,-118.615c7.455,-17.623 33.551,-80.998 58.291,-140.645c24.74,-59.646 51.513,-124.376 59.307,-144.033c8.134,-19.656 20.673,-50.157 27.79,-67.78c7.456,-17.623 33.213,-79.981 56.936,-138.272c24.062,-58.291 44.735,-104.721 45.752,-103.365c1.355,1.694 7.794,16.267 14.572,33.212Z" style="fill-rule:nonzero;stroke:#000;stroke-width:108.33px;"/></g></svg>