<?xml version="1.0" standalone="no"?>
<!DOCTYPE svg PUBLIC "-//W3C//DTD SVG 20010904//EN"
 "http://www.w3.org/TR/2001/REC-SVG-20010904/DTD/svg10.dtd">
<svg version="1.0" xmlns="http://www.w3.org/2000/svg"
 width="408.000000pt" height="737.000000pt" viewBox="0 0 408.000000 737.000000"
 preserveAspectRatio="xMidYMid meet">
<metadata>
Created by potrace 1.16, written by Peter Selinger 2001-2019
</metadata>
<g transform="translate(0.000000,737.000000) scale(0.100000,-0.100000)"
fill="#000000" stroke="none">
<path d="M1946 7177 c-43 -106 -93 -228 -111 -272 -119 -286 -193 -464 -232
-560 -25 -60 -56 -135 -68 -165 -12 -30 -43 -104 -68 -165 -25 -60 -69 -166
-97 -235 -29 -69 -105 -253 -170 -410 -65 -157 -152 -368 -195 -470 -42 -102
-85 -205 -95 -230 -9 -25 -48 -117 -85 -205 -36 -88 -114 -275 -172 -415 -120
-291 -151 -367 -221 -535 -27 -66 -53 -131 -57 -145 -4 -14 -20 -50 -35 -80
-15 -30 -30 -67 -34 -82 -3 -15 -19 -56 -35 -90 -17 -35 -42 -92 -56 -128 -15
-36 -47 -114 -72 -175 -48 -118 -103 -315 -128 -459 -18 -106 -21 -497 -4
-609 52 -352 220 -736 434 -992 339 -407 756 -648 1279 -740 123 -21 509 -21
632 0 523 92 940 333 1279 740 214 256 382 640 434 992 17 112 14 503 -4 609
-35 197 -118 462 -191 606 -13 26 -24 52 -24 59 0 6 -14 41 -31 77 -17 37 -41
94 -54 127 -25 65 -51 130 -122 300 -25 61 -60 146 -78 190 -18 44 -61 148
-95 230 -34 83 -93 226 -131 319 -38 93 -92 221 -118 285 -27 64 -89 211 -136
326 -155 373 -426 1027 -472 1140 -51 124 -70 171 -138 335 -26 63 -62 151
-80 195 -19 44 -57 136 -85 205 -99 239 -127 306 -191 462 -43 106 -69 158
-79 158 -10 -1 -41 -64 -94 -193z m122 -994 c23 -54 80 -192 128 -308 47 -115
136 -329 196 -475 61 -146 121 -290 133 -320 12 -30 56 -136 98 -235 41 -99
123 -297 182 -440 93 -225 236 -569 365 -880 21 -49 86 -207 145 -350 59 -143
138 -334 176 -424 70 -165 127 -358 149 -501 17 -111 14 -322 -5 -436 -111
-651 -543 -1144 -1158 -1319 -164 -47 -297 -67 -447 -67 -496 -1 -993 242
-1288 630 -197 258 -302 531 -332 860 -25 271 24 547 149 830 23 52 89 209
147 350 153 368 333 802 349 837 7 17 62 147 120 290 197 479 213 519 280 680
37 88 104 250 150 360 45 110 154 371 240 580 87 209 163 392 169 408 6 15 11
27 12 27 0 0 19 -44 42 -97z"/>
<path d="M1978 5197 c-20 -50 -116 -283 -213 -517 -97 -234 -201 -483 -230
-555 -29 -71 -86 -209 -125 -305 -40 -96 -87 -211 -105 -255 -18 -44 -72 -174
-120 -290 -319 -767 -309 -742 -340 -861 -32 -121 -43 -316 -26 -446 66 -491
434 -903 915 -1025 123 -30 346 -42 460 -24 185 30 334 84 477 174 266 167
464 441 540 747 21 83 24 119 24 285 0 174 -2 199 -27 295 -15 58 -43 141 -61
185 -50 118 -200 477 -419 1010 -27 66 -65 158 -85 205 -19 47 -50 121 -68
165 -18 44 -80 195 -138 335 -58 140 -121 293 -140 340 -32 79 -139 335 -225
543 -20 48 -41 87 -47 87 -5 0 -27 -42 -47 -93z m95 -1042 c20 -49 76 -187
125 -305 49 -118 126 -305 171 -415 46 -110 98 -236 116 -280 18 -44 56 -136
84 -205 54 -130 76 -183 160 -385 88 -213 96 -249 95 -420 0 -141 -2 -156 -32
-245 -81 -243 -289 -449 -522 -516 -217 -63 -415 -48 -605 47 -201 100 -344
275 -416 509 -19 63 -23 97 -23 210 1 152 10 199 72 350 22 52 99 239 172 415
73 176 152 367 175 425 24 58 61 148 82 200 22 52 98 236 168 408 71 172 132
309 135 305 4 -5 23 -48 43 -98z"/>
</g>
</svg>
