<?xml version="1.0" encoding="UTF-8" standalone="no"?>
<!DOCTYPE svg PUBLIC "-//W3C//DTD SVG 1.1//EN" "http://www.w3.org/Graphics/SVG/1.1/DTD/svg11.dtd">
<svg width="100%" height="100%" viewBox="0 0 256 256" version="1.1" xmlns="http://www.w3.org/2000/svg" xmlns:xlink="http://www.w3.org/1999/xlink" xml:space="preserve" xmlns:serif="http://www.serif.com/" style="fill-rule:evenodd;clip-rule:evenodd;stroke-linecap:round;stroke-linejoin:round;stroke-miterlimit:1.5;">
    <g transform="matrix(0.06144,0,0,0.06144,-0.265856,6.21668)">
        <circle cx="2087.66" cy="1982.15" r="1917.5" style="fill:rgb(166,170,237);stroke:rgb(60,18,44);stroke-width:150px;"/>
    </g>
    <g transform="matrix(0.273438,0,0,0.273438,128,91.2083)">
        <g transform="matrix(1,0,0,1,-256,-256)">
            <clipPath id="_clip1">
                <rect x="0" y="0" width="512" height="512"/>
            </clipPath>
            <g clip-path="url(#_clip1)">
                <g>
                    <g>
                        <path d="M334.901,343.427C334.901,325.687 338.012,309.522 343.12,297.329C343.581,296.227 344.031,295.12 344.468,294.009C356.979,262.214 358.52,227.156 349.875,194.1C341.222,161.011 323.038,112.062 288.139,90.607L288.139,56.326L214.725,56.326L214.725,89.242C178.494,109.896 160.005,160.157 151.351,193.966C142.869,227.105 144.396,262.177 156.922,294.009C157.359,295.12 157.809,296.227 158.27,297.329C163.378,309.522 166.489,325.687 166.489,343.427C166.489,361.167 167.612,378.39 162.504,390.583C153.272,412.621 148.909,436.595 148.909,460.7C148.909,483.449 173.871,503.622 187.841,501.89C201.811,500.158 207.583,489.44 218.048,489.44C228.512,489.44 237.675,500.831 251.438,500.831C265.201,500.831 275.397,488.673 282.642,488.673C289.887,488.673 298.189,498.576 313.217,500.064C328.245,501.552 352.149,481.623 352.149,458.874C352.149,434.769 347.785,410.794 338.553,388.757C333.446,376.565 334.901,361.166 334.901,343.427Z" style="fill:rgb(193,229,239);fill-rule:nonzero;"/>
                        <path d="M346.471,271.303L158.741,271.303C139.055,241.787 143.449,205.935 158.741,166.011L340.758,166.011C351.369,197.843 354.129,238.576 346.471,271.303Z" style="fill:white;fill-rule:nonzero;"/>
                        <path d="M348.28,227.394L320.89,205.165L293.501,248.432L272.462,231.363L241.897,272.249L349.736,272.249L348.28,227.394Z" style="fill:rgb(161,232,195);fill-rule:nonzero;"/>
                        <path d="M334.901,343.427C334.901,325.687 338.012,309.522 343.12,297.329C343.582,296.227 344.031,295.12 344.468,294.009C356.98,262.214 358.52,227.157 349.876,194.1C341.223,161.01 323.039,112.062 288.14,90.607L288.14,61.612L261.292,61.612L261.292,103.699C289.598,122.648 304.346,153.414 311.364,182.638C318.376,211.832 317.126,242.793 306.979,270.874C306.624,271.856 306.26,272.833 305.885,273.806C301.742,284.574 299.219,310.997 299.219,326.664C299.219,342.331 298.039,355.931 302.182,366.699C309.67,386.161 313.209,395.188 313.209,416.476C313.209,436.567 293.821,454.168 281.632,452.854C269.443,451.54 262.709,442.794 256.833,442.794C250.957,442.794 242.687,453.531 231.525,453.531C220.362,453.531 212.931,443.47 204.444,443.47C195.956,443.47 191.275,452.936 179.944,454.465C171.186,455.647 157.107,445.267 151.164,431.215C149.659,440.939 148.911,450.808 148.911,460.701C148.911,483.449 173.873,503.622 187.843,501.891C201.813,500.158 207.585,489.441 218.05,489.441C228.515,489.441 237.677,500.833 251.44,500.833C265.203,500.833 275.399,488.675 282.644,488.675C289.889,488.675 298.191,498.578 313.219,500.067C328.248,501.555 352.151,481.625 352.151,458.877C352.151,434.773 347.787,410.797 338.556,388.761C333.446,376.565 334.901,361.167 334.901,343.427Z" style="fill:rgb(166,170,237);fill-rule:nonzero;"/>
                        <path d="M306.565,271.98L351.28,271.98C357.149,246.447 356.564,219.675 349.875,194.099C347.879,186.466 345.368,177.985 342.269,169.197L307.586,169.197C309.038,173.682 310.291,178.177 311.363,182.637C318.375,211.831 317.125,242.792 306.978,270.873C306.844,271.244 306.702,271.611 306.565,271.98Z" style="fill:rgb(225,189,252);fill-rule:nonzero;"/>
                        <path d="M348.28,227.394L320.89,205.165L315.627,213.478C316.411,232.975 313.603,252.538 306.977,270.873C306.843,271.244 306.701,271.611 306.564,271.98L349.727,271.98L348.28,227.394Z" style="fill:rgb(133,173,194);fill-rule:nonzero;"/>
                        <path d="M288.036,51.877L214.829,51.877C210.445,51.877 206.891,48.323 206.891,43.939L206.891,23.35C206.891,15.984 212.863,10.012 220.229,10.012L282.637,10.012C290.003,10.012 295.975,15.984 295.975,23.35L295.975,43.939C295.974,48.323 292.42,51.877 288.036,51.877Z" style="fill:rgb(150,180,235);fill-rule:nonzero;"/>
                        <path d="M231.598,229.486C231.598,243.518 220.223,254.894 206.19,254.894C192.158,254.894 180.782,243.519 180.782,229.486C180.782,199.938 210.518,184.129 214.282,185.634C216.457,186.504 216.917,200.69 220.681,207.466C223.059,211.743 231.598,220.264 231.598,229.486Z" style="fill:rgb(150,180,235);fill-rule:nonzero;"/>
                        <path d="M101.083,43.82L109.307,66.945C109.659,67.935 110.356,68.72 111.236,69.116L131.781,78.372C134.684,79.68 134.684,84.304 131.781,85.612L111.236,94.869C110.356,95.265 109.659,96.05 109.307,97.04L101.083,120.165C99.921,123.432 95.812,123.432 94.65,120.165L86.426,97.04C86.074,96.05 85.377,95.265 84.497,94.869L63.952,85.612C61.049,84.304 61.049,79.68 63.952,78.372L84.497,69.116C85.377,68.72 86.074,67.935 86.426,66.945L94.65,43.82C95.812,40.553 99.921,40.553 101.083,43.82Z" style="fill:rgb(193,229,239);fill-rule:nonzero;"/>
                        <circle cx="416.092" cy="123.369" r="17.958" style="fill:rgb(150,180,235);"/>
                        <circle cx="46.662" cy="204.136" r="7.746" style="fill:rgb(150,180,235);"/>
                        <path d="M448.698,261.939L454.798,279.093C455.059,279.827 455.576,280.409 456.229,280.703L471.469,287.569C473.622,288.539 473.622,291.97 471.469,292.94L456.229,299.806C455.577,300.1 455.06,300.682 454.798,301.416L448.698,318.569C447.836,320.992 444.788,320.992 443.926,318.569L437.826,301.416C437.565,300.682 437.048,300.1 436.395,299.806L421.155,292.94C419.002,291.97 419.002,288.539 421.155,287.569L436.395,280.703C437.047,280.409 437.565,279.827 437.826,279.093L443.926,261.939C444.788,259.515 447.836,259.515 448.698,261.939Z" style="fill:rgb(193,229,239);fill-rule:nonzero;"/>
                    </g>
                    <g>
                        <g>
                            <path d="M299.23,365.06L203.673,365.06C200.356,365.06 197.666,362.37 197.666,359.053C197.666,355.736 200.356,353.046 203.673,353.046L299.23,353.046C302.547,353.046 305.237,355.736 305.237,359.053C305.237,362.37 302.548,365.06 299.23,365.06Z" style="fill:rgb(60,18,44);fill-rule:nonzero;"/>
                            <path d="M299.23,330.019L203.673,330.019C200.356,330.019 197.666,327.329 197.666,324.012C197.666,320.695 200.356,318.005 203.673,318.005L299.23,318.005C302.547,318.005 305.237,320.695 305.237,324.012C305.237,327.329 302.548,330.019 299.23,330.019Z" style="fill:rgb(60,18,44);fill-rule:nonzero;"/>
                            <path d="M299.23,400.101L203.673,400.101C200.356,400.101 197.666,397.411 197.666,394.094C197.666,390.777 200.356,388.087 203.673,388.087L299.23,388.087C302.547,388.087 305.237,390.777 305.237,394.094C305.237,397.411 302.548,400.101 299.23,400.101Z" style="fill:rgb(60,18,44);fill-rule:nonzero;"/>
                            <path d="M206.191,260.9C188.869,260.9 174.776,246.808 174.776,229.486C174.776,204.201 193.845,189.325 199.69,185.368C204.791,181.914 211.852,178.191 216.514,180.057C220.602,181.692 221.374,185.766 222.655,192.516C223.401,196.447 224.423,201.83 225.933,204.549C226.346,205.293 227.272,206.553 228.253,207.888C231.977,212.956 237.605,220.615 237.605,229.486C237.605,246.808 223.513,260.9 206.191,260.9ZM210.492,192.88C202.859,196.843 186.79,209.348 186.79,229.486C186.79,240.183 195.493,248.886 206.191,248.886C216.889,248.886 225.592,240.183 225.592,229.486C225.592,224.554 221.535,219.033 218.573,215.002C217.308,213.28 216.215,211.793 215.432,210.384C212.982,205.973 211.802,199.753 210.853,194.756C210.741,194.17 210.619,193.524 210.492,192.88Z" style="fill:rgb(60,18,44);fill-rule:nonzero;"/>
                            <path d="M344.812,353.251C344.862,350.085 344.913,346.81 344.913,343.426C344.913,327.649 347.556,312.652 352.355,301.196C352.844,300.029 353.319,298.857 353.785,297.674C366.961,264.188 368.958,227.497 359.561,191.566C350.21,155.807 332.047,109.12 298.151,85.22L298.151,58.75C302.876,55.511 305.985,50.079 305.985,43.93L305.985,23.366C305.986,10.482 295.504,-0 282.621,-0L220.244,-0C207.361,-0 196.879,10.482 196.879,23.366L196.879,43.93C196.879,50.079 199.988,55.511 204.713,58.75L204.713,83.658C169.576,106.957 151.07,154.693 141.653,191.484C132.415,227.578 134.473,264.298 147.606,297.674C148.069,298.853 148.547,300.028 149.036,301.198C153.836,312.652 156.478,327.649 156.478,343.427C156.478,346.197 156.505,348.954 156.532,351.682C156.666,365.373 156.793,378.306 153.27,386.714C143.732,409.482 138.897,434.374 138.897,460.7C138.897,474.54 145.911,488.676 158.142,499.484C167.174,507.466 177.426,512.001 186.172,512.001C187.16,512.001 188.127,511.943 189.072,511.826C198.458,510.663 204.822,506.563 209.934,503.27C213.719,500.832 215.961,499.453 218.048,499.453C220.399,499.453 223.933,501.355 227.674,503.369C233.862,506.7 241.561,510.844 251.437,510.844C262.195,510.844 270.785,505.67 277.057,501.892C278.965,500.742 281.514,499.207 282.767,498.753C283.943,499.113 286.405,500.486 288.248,501.513C293.903,504.665 301.646,508.982 312.229,510.03C322.023,511.002 333.788,506.216 343.704,497.233C355.433,486.609 362.159,472.628 362.159,458.876C362.159,432.549 357.323,407.656 347.786,384.891C344.441,376.9 344.613,365.941 344.812,353.251ZM342.04,266.637L253.593,266.637L273.531,239.966L289.716,253.097C291.048,254.177 292.776,254.64 294.473,254.36C296.165,254.083 297.659,253.095 298.577,251.645L322.353,214.087L344.495,232.058C344.726,232.246 344.97,232.406 345.219,232.554C345.478,244.062 344.452,255.52 342.165,266.643C342.122,266.643 342.082,266.637 342.04,266.637ZM161.051,196.449C162.727,189.902 164.941,182.174 167.759,173.929L333.292,173.929C336.194,182.266 338.472,190.066 340.19,196.634C341.876,203.08 343.132,209.608 343.976,216.165L324.677,200.502C323.343,199.421 321.616,198.957 319.92,199.238C318.227,199.515 316.733,200.503 315.816,201.953L292.04,239.512L276.248,226.7C274.979,225.67 273.348,225.201 271.722,225.404C270.1,225.605 268.63,226.459 267.652,227.768L238.593,266.639L159.16,266.639C154.409,243.921 155.008,220.055 161.051,196.449ZM216.902,23.366C216.902,21.523 218.401,20.024 220.244,20.024L282.621,20.024C284.464,20.024 285.963,21.523 285.963,23.366L285.963,41.865L216.903,41.865L216.903,23.366L216.902,23.366ZM219.683,97.94L224.737,95.059L224.737,66.338L278.129,66.338L278.129,96.204L282.897,99.135C304.387,112.347 319.121,137.987 328.786,161.915L172.189,161.915C182.005,137.225 197.187,110.764 219.683,97.94ZM330.263,482.392C323.904,488.153 317.475,490.429 314.204,490.103C307.763,489.465 302.8,486.698 297.999,484.023C293.273,481.388 288.385,478.663 282.642,478.663C276.813,478.663 271.914,481.615 266.726,484.739C261.763,487.728 256.631,490.82 251.439,490.82C246.61,490.82 242.023,488.351 237.166,485.737C231.673,482.78 225.446,479.429 218.049,479.429C209.969,479.429 204.191,483.152 199.091,486.436C194.995,489.075 191.458,491.353 186.61,491.955C184.308,492.239 178.167,490.459 171.402,484.48C163.587,477.574 158.922,468.685 158.922,460.701C158.922,437.046 163.235,414.757 171.741,394.452C176.857,382.237 176.711,367.301 176.556,351.487C176.53,348.824 176.503,346.132 176.503,343.428C176.503,325.055 173.308,307.31 167.506,293.463C167.073,292.428 166.651,291.389 166.24,290.345C164.726,286.497 163.383,282.597 162.204,278.653L339.165,278.653C337.994,282.611 336.66,286.512 335.155,290.339C334.743,291.385 334.321,292.426 333.887,293.462C328.085,307.31 324.89,325.055 324.89,343.428C324.89,346.656 324.84,349.85 324.791,352.94C324.567,367.255 324.355,380.775 329.32,392.628C337.826,412.931 342.139,435.22 342.139,458.877C342.138,466.865 337.699,475.656 330.263,482.392Z" style="fill:rgb(60,18,44);fill-rule:nonzero;"/>
                        </g>
                        <path d="M200.253,160.361C199.204,160.361 198.136,160.194 197.085,159.844C191.84,158.095 189.005,152.425 190.754,147.18C192.842,140.916 198.97,130.767 205.229,125.292C209.391,121.652 215.717,122.074 219.356,126.236C222.997,130.398 222.575,136.723 218.412,140.363C215.301,143.085 210.893,150.078 209.749,153.513C208.351,157.708 204.444,160.361 200.253,160.361Z" style="fill:white;fill-rule:nonzero;"/>
                        <path d="M229.783,126.272C226.241,126.272 222.808,124.388 220.989,121.06C218.337,116.209 220.12,110.125 224.971,107.473C226.139,106.835 227.319,106.253 228.48,105.743C233.542,103.522 239.449,105.822 241.671,110.885C243.894,115.948 241.592,121.854 236.528,124.077C235.896,124.355 235.238,124.68 234.576,125.042C233.052,125.877 231.406,126.272 229.783,126.272Z" style="fill:white;fill-rule:nonzero;"/>
                    </g>
                </g>
            </g>
        </g>
    </g>
    <g transform="matrix(0.06144,0,0,0.06144,33.9612,20.2468)">
        <path d="M1193.08,3298.67C1256.95,3298.67 1299.72,3257.07 1299.72,3192.62L1299.72,2546.33C1299.72,2472.5 1254.61,2426.21 1177.26,2426.21C1135.08,2426.21 1098.75,2430.9 1053.63,2461.37L893.669,2570.35C863.201,2591.45 850.896,2615.47 850.896,2646.52C850.896,2689.88 881.951,2720.94 923.552,2720.94C944.06,2720.94 956.951,2716.25 976.287,2702.77L1081.76,2629.53L1085.86,2629.53L1085.86,3192.62C1085.86,3257.07 1129.22,3298.67 1193.08,3298.67Z" style="fill:none;fill-rule:nonzero;stroke:rgb(60,18,44);stroke-width:204.17px;stroke-linecap:butt;stroke-miterlimit:2;"/>
        <path d="M1830.58,3306.29C2054.41,3306.29 2192.69,3136.37 2192.69,2860.39C2192.69,2582.66 2053.24,2418.01 1830.58,2418.01C1608.51,2418.01 1467.89,2583.24 1467.89,2860.98C1467.89,3137.54 1606.76,3306.29 1830.58,3306.29ZM1830.58,3138.71C1741.52,3138.71 1686.44,3045.55 1686.44,2860.39C1686.44,2676.41 1741.52,2585.59 1830.58,2585.59C1919.65,2585.59 1974.14,2675.82 1974.14,2860.98C1974.14,3045.55 1920.23,3138.71 1830.58,3138.71Z" style="fill:none;fill-rule:nonzero;stroke:rgb(60,18,44);stroke-width:204.17px;stroke-linecap:butt;stroke-miterlimit:2;"/>
        <g transform="matrix(1200,0,0,1200,822.185,3285.2)">
            <path d="M0.309,0.011C0.362,0.011 0.398,-0.023 0.398,-0.077L0.398,-0.616C0.398,-0.677 0.36,-0.716 0.296,-0.716C0.261,-0.716 0.23,-0.712 0.193,-0.687L0.06,-0.596C0.034,-0.578 0.024,-0.558 0.024,-0.532C0.024,-0.496 0.05,-0.47 0.084,-0.47C0.102,-0.47 0.112,-0.474 0.128,-0.485L0.216,-0.546L0.22,-0.546L0.22,-0.077C0.22,-0.023 0.256,0.011 0.309,0.011Z" style="fill:rgb(193,229,239);fill-rule:nonzero;"/>
        </g>
        <g transform="matrix(1200,0,0,1200,1421.6,3285.2)">
            <path d="M0.341,0.018C0.527,0.018 0.643,-0.124 0.643,-0.354C0.643,-0.585 0.526,-0.723 0.341,-0.723C0.156,-0.723 0.039,-0.585 0.039,-0.354C0.039,-0.123 0.154,0.018 0.341,0.018ZM0.341,-0.122C0.267,-0.122 0.221,-0.2 0.221,-0.354C0.221,-0.507 0.267,-0.583 0.341,-0.583C0.415,-0.583 0.46,-0.508 0.46,-0.354C0.46,-0.2 0.416,-0.122 0.341,-0.122Z" style="fill:rgb(193,229,239);fill-rule:nonzero;"/>
        </g>
    </g>
</svg>
