<?xml version="1.0" encoding="UTF-8" standalone="no"?><!DOCTYPE svg PUBLIC "-//W3C//DTD SVG 1.1//EN" "http://www.w3.org/Graphics/SVG/1.1/DTD/svg11.dtd"><svg width="100%" height="100%" viewBox="0 0 1067 1067" version="1.1" xmlns="http://www.w3.org/2000/svg" xmlns:xlink="http://www.w3.org/1999/xlink" xml:space="preserve" xmlns:serif="http://www.serif.com/" style="fill-rule:evenodd;clip-rule:evenodd;stroke-linecap:round;stroke-linejoin:round;stroke-miterlimit:1.5;"><circle cx="533.333" cy="533.333" r="490.88" style="fill:#a6aaed;stroke:#3c122c;stroke-width:38.4px;"/><clipPath id="_clip1"><rect x="262.5" y="88.368" width="541.667" height="541.667"/></clipPath><g clip-path="url(#_clip1)"><g><g><path d="M616.806,451.694c0,-18.768 3.291,-35.87 8.695,-48.769c0.488,-1.166 0.964,-2.337 1.426,-3.512c13.236,-33.638 14.867,-70.727 5.721,-105.698c-9.155,-35.007 -28.392,-86.792 -65.313,-109.49l-0,-36.267l-77.668,-0l-0,34.823c-38.331,21.851 -57.891,75.024 -67.046,110.792c-8.974,35.059 -7.358,72.163 5.893,105.84c0.463,1.175 0.939,2.346 1.427,3.512c5.404,12.899 8.695,30.001 8.695,48.769c-0,18.768 1.188,36.989 -4.216,49.888c-9.767,23.315 -14.383,48.678 -14.383,74.18c0,24.067 26.409,45.409 41.188,43.577c14.779,-1.833 20.886,-13.172 31.957,-13.172c11.071,0 20.765,12.051 35.325,12.051c14.56,0 25.347,-12.862 33.012,-12.862c7.665,-0 16.448,10.477 32.347,12.051c15.898,1.574 41.187,-19.51 41.187,-43.577c0,-25.501 -4.616,-50.866 -14.383,-74.18c-5.403,-12.898 -3.864,-29.189 -3.864,-47.956Z" style="fill:#c1e5ef;fill-rule:nonzero;"/><path d="M629.046,375.391l-198.607,-0c-20.827,-31.226 -16.178,-69.156 -0,-111.393l192.563,-0c11.226,33.676 14.146,76.77 6.044,111.393Z" style="fill:#fff;fill-rule:nonzero;"/><path d="M630.96,328.938l-28.977,-23.517l-28.976,45.774l-22.258,-18.058l-32.336,43.255l114.088,-0l-1.541,-47.454Z" style="fill:#a1e8c3;fill-rule:nonzero;"/><path d="M616.806,451.694c0,-18.768 3.291,-35.87 8.695,-48.769c0.489,-1.166 0.964,-2.337 1.426,-3.512c13.237,-33.638 14.867,-70.726 5.722,-105.698c-9.155,-35.008 -28.392,-86.792 -65.313,-109.49l-0,-30.675l-28.404,-0l-0,44.525c29.946,20.047 45.549,52.596 52.973,83.513c7.419,30.886 6.096,63.641 -4.639,93.349c-0.375,1.039 -0.76,2.073 -1.157,3.102c-4.383,11.392 -7.052,39.346 -7.052,55.921c-0,16.574 -1.249,30.962 3.134,42.354c7.922,20.59 11.666,30.14 11.666,52.662c0,21.255 -20.511,39.876 -33.406,38.485c-12.896,-1.39 -20.02,-10.642 -26.236,-10.642c-6.217,-0 -14.966,11.359 -26.775,11.359c-11.81,-0 -19.671,-10.644 -28.65,-10.644c-8.98,-0 -13.932,10.014 -25.92,11.632c-9.265,1.25 -24.16,-9.731 -30.447,-24.597c-1.592,10.287 -2.384,20.728 -2.384,31.194c0,24.066 26.409,45.408 41.188,43.577c14.78,-1.834 20.886,-13.172 31.957,-13.172c11.072,0 20.765,12.052 35.325,12.052c14.561,0 25.347,-12.862 33.012,-12.862c7.665,-0 16.448,10.477 32.347,12.052c15.9,1.574 41.188,-19.511 41.188,-43.577c-0,-25.5 -4.617,-50.865 -14.383,-74.178c-5.406,-12.903 -3.867,-29.193 -3.867,-47.961Z" style="fill:#a6aaed;fill-rule:nonzero;"/><path d="M586.828,376.107l47.306,0c6.209,-27.012 5.59,-55.336 -1.486,-82.394c-2.112,-8.075 -4.768,-17.047 -8.047,-26.344l-36.693,-0c1.536,4.744 2.862,9.5 3.996,14.218c7.419,30.886 6.096,63.641 -4.639,93.349c-0.142,0.392 -0.292,0.781 -0.437,1.171Z" style="fill:#e1bdfc;fill-rule:nonzero;"/><path d="M630.96,328.938l-28.977,-23.517l-5.568,8.794c0.83,20.627 -2.141,41.324 -9.151,60.721c-0.142,0.392 -0.292,0.781 -0.437,1.171l45.664,0l-1.531,-47.169Z" style="fill:#85adc2;fill-rule:nonzero;"/><path d="M567.226,143.251l-77.449,-0c-4.638,-0 -8.398,-3.76 -8.398,-8.398l-0,-21.782c-0,-7.793 6.318,-14.111 14.111,-14.111l66.024,-0c7.793,-0 14.111,6.318 14.111,14.111l-0,21.782c-0.001,4.638 -3.761,8.398 -8.399,8.398Z" style="fill:#96b4eb;fill-rule:nonzero;"/><path d="M507.517,331.151c0,14.845 -12.034,26.88 -26.88,26.88c-14.845,0 -26.88,-12.034 -26.88,-26.88c-0,-31.26 31.459,-47.985 35.441,-46.393c2.301,0.92 2.788,15.928 6.77,23.097c2.516,4.525 11.549,13.54 11.549,23.296Z" style="fill:#96b4eb;fill-rule:nonzero;"/></g><g><g><path d="M579.068,474.58l-101.094,0c-3.509,0 -6.355,-2.845 -6.355,-6.355c0,-3.509 2.846,-6.355 6.355,-6.355l101.094,0c3.509,0 6.355,2.846 6.355,6.355c0,3.51 -2.845,6.355 -6.355,6.355Z" style="fill:#3c122c;fill-rule:nonzero;"/><path d="M579.068,437.509l-101.094,0c-3.509,0 -6.355,-2.846 -6.355,-6.355c0,-3.509 2.846,-6.355 6.355,-6.355l101.094,-0c3.509,-0 6.355,2.846 6.355,6.355c0,3.509 -2.845,6.355 -6.355,6.355Z" style="fill:#3c122c;fill-rule:nonzero;"/><path d="M579.068,511.652l-101.094,-0c-3.509,-0 -6.355,-2.846 -6.355,-6.355c0,-3.509 2.846,-6.355 6.355,-6.355l101.094,-0c3.509,-0 6.355,2.846 6.355,6.355c0,3.509 -2.845,6.355 -6.355,6.355Z" style="fill:#3c122c;fill-rule:nonzero;"/><path d="M480.638,364.385c-18.325,0 -33.235,-14.908 -33.235,-33.234c-0,-26.75 20.174,-42.488 26.358,-46.674c5.396,-3.655 12.866,-7.593 17.798,-5.619c4.325,1.73 5.142,6.04 6.497,13.181c0.789,4.159 1.871,9.853 3.468,12.73c0.437,0.787 1.417,2.12 2.455,3.532c3.939,5.362 9.893,13.465 9.893,22.85c0,18.326 -14.908,33.234 -33.234,33.234Zm4.55,-71.961c-8.075,4.192 -25.075,17.422 -25.075,38.727c0,11.317 9.207,20.524 20.525,20.524c11.318,-0 20.525,-9.207 20.525,-20.524c0,-5.218 -4.292,-11.059 -7.425,-15.323c-1.339,-1.822 -2.495,-3.395 -3.323,-4.886c-2.592,-4.667 -3.841,-11.247 -4.845,-16.533c-0.118,-0.62 -0.247,-1.304 -0.382,-1.985Z" style="fill:#3c122c;fill-rule:nonzero;"/><path d="M627.291,462.087c0.053,-3.349 0.107,-6.814 0.107,-10.394c0,-16.691 2.796,-32.557 7.873,-44.677c0.518,-1.235 1.02,-2.475 1.513,-3.726c13.94,-35.426 16.052,-74.243 6.111,-112.256c-9.893,-37.831 -29.108,-87.223 -64.968,-112.508l-0,-28.004c4.998,-3.427 8.288,-9.173 8.288,-15.679l-0,-21.755c0.001,-13.631 -11.089,-24.72 -24.718,-24.72l-65.991,-0c-13.63,-0 -24.719,11.089 -24.719,24.72l-0,21.755c-0,6.506 3.289,12.252 8.288,15.679l-0,26.351c-37.173,24.649 -56.752,75.151 -66.714,114.074c-9.774,38.185 -7.596,77.033 6.298,112.343c0.49,1.247 0.995,2.49 1.513,3.728c5.078,12.118 7.873,27.984 7.873,44.676c-0,2.93 0.028,5.847 0.057,8.733c0.142,14.485 0.276,28.167 -3.451,37.062c-10.091,24.087 -15.206,50.422 -15.206,78.273c0,14.642 7.42,29.597 20.36,41.031c9.556,8.445 20.402,13.243 29.654,13.243c1.046,-0 2.069,-0.062 3.068,-0.186c9.93,-1.23 16.663,-5.568 22.071,-9.051c4.004,-2.58 6.376,-4.039 8.584,-4.039c2.488,0 6.226,2.013 10.184,4.143c6.547,3.524 14.692,7.909 25.14,7.909c11.381,-0 20.469,-5.474 27.104,-9.471c2.019,-1.217 4.716,-2.841 6.041,-3.321c1.244,0.381 3.849,1.833 5.799,2.92c5.983,3.334 14.174,7.902 25.37,9.01c10.362,1.029 22.809,-4.035 33.299,-13.538c12.409,-11.24 19.524,-26.031 19.524,-40.58c0,-27.852 -5.116,-54.187 -15.205,-78.272c-3.539,-8.454 -3.357,-20.048 -3.147,-33.473Zm-2.932,-91.632l-93.572,-0l21.093,-28.217l17.123,13.892c1.409,1.143 3.237,1.632 5.033,1.336c1.79,-0.293 3.37,-1.338 4.341,-2.872l25.154,-39.734l23.425,19.012c0.244,0.199 0.502,0.368 0.766,0.525c0.274,12.174 -0.812,24.296 -3.231,36.064c-0.046,-0 -0.088,-0.006 -0.132,-0.006Zm-191.476,-74.255c1.773,-6.927 4.115,-15.103 7.096,-23.825l175.125,-0c3.07,8.82 5.48,17.072 7.298,24.02c1.783,6.82 3.112,13.726 4.005,20.663l-20.417,-16.571c-1.412,-1.143 -3.239,-1.634 -5.033,-1.337c-1.791,0.293 -3.372,1.339 -4.342,2.873l-25.153,39.735l-16.707,-13.555c-1.343,-1.089 -3.068,-1.585 -4.789,-1.371c-1.716,0.213 -3.271,1.116 -4.306,2.501l-30.742,41.124l-84.036,-0c-5.026,-24.035 -4.392,-49.284 2.001,-74.257Zm59.087,-183.112c-0,-1.95 1.586,-3.536 3.536,-3.536l65.991,0c1.95,0 3.535,1.586 3.535,3.536l0,19.571l-73.061,-0l-0,-19.571l-0.001,-0Zm2.942,78.895l5.347,-3.048l-0,-30.385l56.486,-0l-0,31.596l5.044,3.101c22.735,13.978 38.323,41.103 48.548,66.418l-165.671,-0c10.385,-26.121 26.447,-54.115 50.246,-67.682Zm116.987,406.728c-6.727,6.095 -13.529,8.503 -16.989,8.158c-6.814,-0.675 -12.065,-3.603 -17.144,-6.433c-5,-2.787 -10.171,-5.67 -16.247,-5.67c-6.167,-0 -11.35,3.123 -16.838,6.428c-5.251,3.162 -10.68,6.433 -16.173,6.433c-5.109,0 -9.962,-2.612 -15.1,-5.377c-5.811,-3.129 -12.399,-6.674 -20.225,-6.674c-8.548,0 -14.661,3.939 -20.056,7.413c-4.333,2.792 -8.075,5.202 -13.204,5.839c-2.436,0.3 -8.933,-1.583 -16.09,-7.908c-8.267,-7.306 -13.203,-16.71 -13.203,-25.157c0,-25.026 4.563,-48.606 13.562,-70.088c5.413,-12.922 5.258,-28.724 5.094,-45.454c-0.027,-2.817 -0.056,-5.665 -0.056,-8.526c0,-19.438 -3.38,-38.211 -9.518,-52.86c-0.458,-1.095 -0.905,-2.194 -1.34,-3.299c-1.601,-4.071 -3.022,-8.197 -4.269,-12.369l187.214,-0c-1.239,4.187 -2.65,8.314 -4.242,12.363c-0.436,1.106 -0.883,2.208 -1.342,3.304c-6.138,14.65 -9.518,33.423 -9.518,52.861c0,3.415 -0.053,6.794 -0.105,10.063c-0.237,15.145 -0.461,29.448 4.792,41.988c8.999,21.479 13.561,45.06 13.561,70.087c-0.001,8.451 -4.697,17.752 -12.564,24.878Z" style="fill:#3c122c;fill-rule:nonzero;"/></g><path d="M474.356,258.021c-1.11,-0 -2.239,-0.177 -3.351,-0.547c-5.549,-1.851 -8.549,-7.849 -6.698,-13.398c2.209,-6.627 8.692,-17.364 15.314,-23.156c4.403,-3.851 11.095,-3.405 14.945,0.998c3.852,4.403 3.406,11.095 -0.999,14.946c-3.291,2.88 -7.954,10.278 -9.165,13.912c-1.479,4.438 -5.612,7.245 -10.046,7.245Z" style="fill:#fff;fill-rule:nonzero;"/><path d="M505.597,221.956c-3.747,0 -7.379,-1.993 -9.303,-5.514c-2.806,-5.132 -0.92,-11.568 4.212,-14.374c1.236,-0.675 2.484,-1.291 3.713,-1.83c5.355,-2.35 11.604,0.083 13.955,5.44c2.352,5.356 -0.084,11.604 -5.441,13.956c-0.669,0.294 -1.365,0.638 -2.065,1.021c-1.612,0.883 -3.354,1.301 -5.071,1.301Z" style="fill:#fff;fill-rule:nonzero;"/></g></g></g><g transform="matrix(0.256,0,0,0.256,133.389,27.9107)"><path d="M1233.07,3297.08c56.306,0 94.016,-36.676 94.016,-93.5l0,-569.78c0,-65.088 -39.776,-105.898 -107.964,-105.898c-37.193,0 -69.221,4.133 -108.997,30.995l-141.024,96.082c-26.862,18.597 -37.71,39.776 -37.71,67.155c-0,38.226 27.378,65.605 64.055,65.605c18.08,-0 29.445,-4.133 46.491,-16.014l92.984,-64.572l3.616,0l-0,496.427c-0,56.824 38.226,93.5 94.533,93.5Z" style="fill:none;fill-rule:nonzero;stroke:#3c122c;stroke-width:204.17px;stroke-linecap:butt;stroke-miterlimit:2;"/><path d="M1795.1,3303.79c197.331,-0 319.242,-149.807 319.242,-393.113c0,-244.856 -122.944,-390.013 -319.242,-390.013c-195.782,0 -319.759,145.674 -319.759,390.53c-0,243.823 122.428,392.596 319.759,392.596Zm-0,-147.74c-78.519,-0 -127.077,-82.136 -127.077,-245.373c-0,-162.204 48.558,-242.273 127.077,-242.273c78.519,0 126.56,79.553 126.56,242.79c0,162.72 -47.524,244.856 -126.56,244.856Z" style="fill:none;fill-rule:nonzero;stroke:#3c122c;stroke-width:204.17px;stroke-linecap:butt;stroke-miterlimit:2;"/><g transform="matrix(1057.94,0,0,1057.94,906.081,3285.2)"><path d="M0.309,0.011c0.053,0 0.089,-0.034 0.089,-0.088l-0,-0.539c-0,-0.061 -0.038,-0.1 -0.102,-0.1c-0.035,0 -0.066,0.004 -0.103,0.029l-0.133,0.091c-0.026,0.018 -0.036,0.038 -0.036,0.064c-0,0.036 0.026,0.062 0.06,0.062c0.018,-0 0.028,-0.004 0.044,-0.015l0.088,-0.061l0.004,-0l-0,0.469c-0,0.054 0.036,0.088 0.089,0.088Z" style="fill:#c1e5ef;fill-rule:nonzero;"/></g><g transform="matrix(1057.94,0,0,1057.94,1434.54,3285.2)"><path d="M0.341,0.018c0.186,-0 0.302,-0.142 0.302,-0.372c-0,-0.231 -0.117,-0.369 -0.302,-0.369c-0.185,0 -0.302,0.138 -0.302,0.369c-0,0.231 0.115,0.372 0.302,0.372Zm-0,-0.14c-0.074,-0 -0.12,-0.078 -0.12,-0.232c-0,-0.153 0.046,-0.229 0.12,-0.229c0.074,-0 0.119,0.075 0.119,0.229c0,0.154 -0.044,0.232 -0.119,0.232Z" style="fill:#c1e5ef;fill-rule:nonzero;"/></g></g></svg>