<?xml version="1.0" encoding="UTF-8" standalone="no"?><!DOCTYPE svg PUBLIC "-//W3C//DTD SVG 1.1//EN" "http://www.w3.org/Graphics/SVG/1.1/DTD/svg11.dtd"><svg width="100%" height="100%" viewBox="0 0 1067 1067" version="1.1" xmlns="http://www.w3.org/2000/svg" xmlns:xlink="http://www.w3.org/1999/xlink" xml:space="preserve" xmlns:serif="http://www.serif.com/" style="fill-rule:evenodd;clip-rule:evenodd;stroke-linecap:round;stroke-linejoin:round;stroke-miterlimit:1.5;"><circle cx="533.333" cy="533.333" r="490.88" style="fill:#eeb6a8;stroke:#440a29;stroke-width:38.4px;"/><g transform="matrix(0.242956,0,0,0.242956,159.15,71.4763)"><path d="M796.877,3304.79c197.039,0 323.863,-94.709 323.863,-241.673c0,-106.14 -75.114,-173.09 -193.773,-185.064l-0,-3.811c89.81,-17.962 162.748,-82.19 162.748,-182.887c-0,-133.356 -123.014,-211.192 -293.927,-211.192c-154.583,0 -247.116,74.026 -278.141,150.229c-7.076,16.874 -9.798,30.482 -9.798,47.355c0,45.722 27.76,78.381 82.191,78.381c44.089,-0 68.038,-15.785 90.355,-57.697c23.95,-46.811 60.418,-69.671 116.482,-69.671c68.038,-0 107.229,35.38 107.229,90.899c-0,57.152 -46.811,94.71 -123.558,94.71l-17.962,-0c-47.355,-0 -72.393,27.759 -72.393,67.494c-0,40.823 25.038,68.038 72.393,68.038l19.05,0c87.09,0 136.077,35.38 136.077,101.242c0,56.608 -47.899,96.886 -116.482,96.886c-74.57,0 -109.95,-28.848 -138.798,-77.836c-19.595,-31.569 -44.089,-45.177 -82.191,-45.177c-54.431,-0 -87.633,31.57 -87.633,81.646c-0,14.152 3.266,30.481 9.797,45.722c31.57,76.203 127.368,152.406 294.471,152.406Z" style="fill:none;fill-rule:nonzero;stroke:#440a29;stroke-width:204.17px;stroke-linecap:butt;stroke-miterlimit:2;"/><path d="M1544.76,3304.79c182.343,0 315.699,-117.57 315.699,-284.129c-0,-146.963 -100.697,-253.647 -253.648,-253.647c-106.14,-0 -181.254,51.709 -211.191,125.191l-3.81,-0l-0,-8.709c-1.089,-147.508 46.81,-250.382 149.684,-250.382c47.355,0 80.558,15.785 115.394,53.342c27.759,27.76 50.076,44.089 89.266,44.089c52.254,0 81.102,-34.291 81.102,-76.747c0,-14.697 -3.266,-28.304 -9.797,-43.001c-33.203,-71.848 -130.09,-131.178 -275.965,-131.178c-210.103,0 -340.736,157.849 -340.736,415.852c-0,94.709 18.506,176.355 51.164,237.318c62.052,117.026 163.837,172.001 292.838,172.001Zm-2.721,-153.495c-70.76,0 -125.735,-53.886 -125.735,-124.646c-0,-70.216 54.975,-119.748 127.368,-119.748c70.76,-0 124.646,50.621 124.102,122.469c-0.544,68.583 -55.52,121.925 -125.735,121.925Z" style="fill:none;fill-rule:nonzero;stroke:#440a29;stroke-width:204.17px;stroke-linecap:butt;stroke-miterlimit:2;"/><path d="M2271.41,3304.79c186.697,0 316.243,-113.76 316.243,-286.306c-0,-149.14 -106.685,-253.647 -255.281,-253.647c-82.19,-0 -145.875,34.291 -176.356,86l-3.81,0l15.241,-197.584l300.458,0c47.899,0 78.38,-29.937 78.38,-76.747c0,-46.811 -31.025,-76.747 -78.38,-76.747l-353.256,-0c-66.95,-0 -106.14,29.936 -111.583,101.785l-20.684,275.964l-0,2.722c-3.266,52.798 26.671,98.52 92.532,98.52c43.545,-0 63.684,-9.798 94.166,-36.469c25.038,-22.317 59.329,-41.912 102.33,-41.912c75.114,0 127.912,50.621 127.912,122.47c-0,73.481 -54.975,127.912 -129.545,127.912c-63.14,-0 -101.242,-29.937 -131.723,-75.659c-23.95,-29.937 -47.899,-42.456 -85.456,-42.456c-50.621,0 -80.558,29.393 -80.558,78.381c0,19.05 4.899,37.557 13.608,54.975c40.279,80.013 155.672,138.798 285.762,138.798Z" style="fill:none;fill-rule:nonzero;stroke:#440a29;stroke-width:204.17px;stroke-linecap:butt;stroke-miterlimit:2;"/><g transform="matrix(1114.74,0,0,1114.74,439.811,3285.2)"><path d="M0.32,0.018c0.177,-0 0.291,-0.085 0.291,-0.217c-0,-0.095 -0.068,-0.155 -0.174,-0.166l0,-0.004c0.081,-0.016 0.146,-0.073 0.146,-0.164c0,-0.119 -0.11,-0.189 -0.264,-0.189c-0.138,-0 -0.221,0.066 -0.249,0.135c-0.007,0.015 -0.009,0.027 -0.009,0.042c0,0.041 0.025,0.07 0.074,0.07c0.039,0 0.061,-0.014 0.081,-0.051c0.021,-0.042 0.054,-0.063 0.104,-0.063c0.061,0 0.097,0.032 0.097,0.082c-0,0.051 -0.042,0.085 -0.111,0.085l-0.016,-0c-0.043,-0 -0.065,0.025 -0.065,0.06c-0,0.037 0.022,0.061 0.065,0.061l0.017,0c0.078,0 0.122,0.032 0.122,0.091c-0,0.051 -0.043,0.087 -0.105,0.087c-0.067,-0 -0.098,-0.026 -0.124,-0.07c-0.018,-0.028 -0.04,-0.04 -0.074,-0.04c-0.049,-0 -0.079,0.028 -0.079,0.073c0,0.013 0.003,0.027 0.009,0.041c0.028,0.068 0.114,0.137 0.264,0.137Z" style="fill:#fef2a8;fill-rule:nonzero;"/></g><g transform="matrix(1114.74,0,0,1114.74,1159.39,3285.2)"><path d="M0.346,0.018c0.163,-0 0.283,-0.106 0.283,-0.255c-0,-0.132 -0.09,-0.228 -0.228,-0.228c-0.095,0 -0.162,0.047 -0.189,0.112l-0.004,0l0,-0.007c-0,-0.133 0.042,-0.225 0.135,-0.225c0.042,0 0.072,0.014 0.103,0.048c0.025,0.025 0.045,0.039 0.08,0.039c0.047,0 0.073,-0.03 0.073,-0.068c0,-0.014 -0.003,-0.026 -0.009,-0.039c-0.029,-0.064 -0.116,-0.118 -0.247,-0.118c-0.189,0 -0.306,0.142 -0.306,0.373c0,0.085 0.017,0.159 0.046,0.213c0.056,0.105 0.147,0.155 0.263,0.155Zm-0.003,-0.138c-0.063,-0 -0.113,-0.048 -0.113,-0.112c0,-0.063 0.05,-0.107 0.115,-0.107c0.063,-0 0.112,0.045 0.111,0.11c-0,0.061 -0.05,0.109 -0.113,0.109Z" style="fill:#fef2a8;fill-rule:nonzero;"/></g><g transform="matrix(1114.74,0,0,1114.74,1901.82,3285.2)"><path d="M0.332,0.018c0.167,-0 0.283,-0.102 0.283,-0.257c0,-0.134 -0.095,-0.228 -0.229,-0.228c-0.074,0 -0.131,0.031 -0.158,0.077l-0.003,0l0.013,-0.177l0.27,0c0.043,0 0.07,-0.027 0.07,-0.069c0,-0.042 -0.028,-0.069 -0.07,-0.069l-0.317,0c-0.06,0 -0.095,0.027 -0.1,0.092l-0.019,0.247l0,0.003c-0.003,0.047 0.024,0.088 0.083,0.088c0.039,0 0.057,-0.009 0.085,-0.033c0.022,-0.02 0.053,-0.037 0.092,-0.037c0.067,-0 0.114,0.045 0.114,0.11c0,0.066 -0.049,0.114 -0.116,0.114c-0.057,0 -0.091,-0.026 -0.118,-0.067c-0.022,-0.027 -0.043,-0.039 -0.077,-0.039c-0.045,0 -0.072,0.027 -0.072,0.071c-0,0.017 0.004,0.033 0.012,0.049c0.036,0.072 0.14,0.125 0.257,0.125Z" style="fill:#fef2a8;fill-rule:nonzero;"/></g></g><g><g><path d="M368.604,286.268c-12.547,-0 -22.719,-10.171 -22.719,-22.719l0,-52.016c0,-12.547 10.172,-22.719 22.719,-22.719c12.547,0 22.718,10.171 22.718,22.719l-0,52.016c-0,12.547 -10.171,22.719 -22.718,22.719Z" style="fill:#ffe266;fill-rule:nonzero;"/><path d="M696.304,286.268c-12.547,-0 -22.719,-10.171 -22.719,-22.719l0,-52.016c0,-12.547 10.171,-22.719 22.719,-22.719c12.547,0 22.718,10.171 22.718,22.719l-0,52.016c-0,12.547 -10.171,22.719 -22.718,22.719Z" style="fill:#ffe266;fill-rule:nonzero;"/><path d="M743.342,599.482l-420.016,0c-16.025,0 -29.015,-12.99 -29.015,-29.014l-0,-288.95c-0,-16.025 12.99,-29.015 29.015,-29.015l420.016,-0c16.025,-0 29.015,12.99 29.015,29.015l-0,288.95c-0.001,16.024 -12.991,29.014 -29.015,29.014Z" style="fill:#fef2a8;fill-rule:nonzero;"/><path d="M726.911,569.064l-118.97,0c-6.871,0 -12.441,-5.57 -12.441,-12.44l0,-247.923c0,-6.871 5.57,-12.44 12.441,-12.44l118.97,-0c6.872,-0 12.441,5.57 12.441,12.44l-0,247.923c-0,6.871 -5.569,12.44 -12.441,12.44Z" style="fill:#fff;fill-rule:nonzero;"/><path d="M333.503,350.835l225.188,-0c4.494,-0 8.136,3.643 8.136,8.137l0,196.632c0,4.494 -3.642,8.136 -8.136,8.136l-225.188,0c-4.494,0 -8.136,-3.642 -8.136,-8.136l-0,-196.631c-0,-4.494 3.642,-8.138 8.136,-8.138Z" style="fill:#fff;fill-rule:nonzero;"/><path d="M566.828,395.66l0,-36.688c0,-4.494 -3.643,-8.137 -8.136,-8.137l-225.189,-0c-4.494,-0 -8.136,3.643 -8.136,8.137l-0,36.688l241.461,0Z" style="fill:#ef8bbd;fill-rule:nonzero;"/><path d="M743.342,252.503l-53.977,-0c13.76,-0 24.915,11.154 24.915,24.914l-0,241.407c-0,13.76 -11.155,24.915 -24.915,24.915l-370.139,0c-13.761,0 -24.915,-11.155 -24.915,-24.915l-0,51.643c-0,16.024 12.99,29.014 29.015,29.014l420.016,0c16.025,0 29.015,-12.99 29.015,-29.014l-0,-288.949c-0.001,-16.025 -12.991,-29.015 -29.015,-29.015Z" style="fill:#eeb6a8;fill-rule:nonzero;"/><g><path d="M333.503,563.741l225.188,0c4.494,0 8.136,-3.642 8.136,-8.137l0,-11.864l-241.46,0l-0,11.864c-0,4.495 3.642,8.137 8.136,8.137Z" style="fill:#ffbffc;fill-rule:nonzero;"/><path d="M726.911,296.261l-12.631,-0l-0,222.564c-0,13.76 -11.155,24.915 -24.915,24.915l-93.865,0l0,12.884c0,6.871 5.57,12.44 12.441,12.44l118.97,0c6.872,0 12.441,-5.57 12.441,-12.44l-0,-247.923c-0,-6.87 -5.57,-12.44 -12.441,-12.44Z" style="fill:#ffbffc;fill-rule:nonzero;"/></g></g><g><g><path d="M743.341,242.559l-14.374,-0l0,-31.025c0,-18.011 -14.653,-32.664 -32.664,-32.664c-18.011,0 -32.663,14.653 -32.663,32.664l-0,31.025l-262.373,-0l-0,-31.025c-0,-18.011 -14.653,-32.664 -32.663,-32.664c-18.01,0 -32.663,14.653 -32.663,32.664l-0,31.025l-12.615,-0c-21.483,-0 -38.96,17.477 -38.96,38.959l-0,288.951c-0,21.48 17.477,38.958 38.96,38.958l420.015,-0c21.483,-0 38.96,-17.478 38.96,-38.959l0,-288.951c0,-21.482 -17.477,-38.958 -38.96,-38.958Zm-59.81,-31.025c-0,-7.044 5.729,-12.774 12.772,-12.774c7.044,-0 12.773,5.73 12.773,12.774l0,31.025l-25.546,-0l-0,-31.025l0.001,0Zm-327.701,0c0,-7.044 5.73,-12.774 12.773,-12.774c7.044,-0 12.773,5.73 12.773,12.774l0,31.025l-25.547,-0l0,-31.025l0.001,0Zm406.581,358.934c0,10.514 -8.554,19.069 -19.07,19.069l-420.015,0c-10.515,0 -19.071,-8.554 -19.071,-19.069l0,-288.951c0,-10.515 8.555,-19.07 19.071,-19.07l420.015,0c10.515,0 19.07,8.554 19.07,19.07l0,288.951Z" style="fill:#440a29;fill-rule:nonzero;"/><path d="M726.91,290.294l-118.97,-0c-10.15,-0 -18.407,8.258 -18.407,18.407l-0,247.923c-0,10.149 8.257,18.408 18.407,18.408l118.97,0c10.15,0 18.409,-8.258 18.409,-18.408l-0,-247.923c-0,-10.149 -8.258,-18.407 -18.409,-18.407Zm6.475,266.33c0,3.57 -2.904,6.474 -6.474,6.474l-118.971,-0c-3.571,-0 -6.474,-2.905 -6.474,-6.474l0,-247.923c0,-3.57 2.904,-6.473 6.474,-6.473l118.97,-0c3.571,-0 6.474,2.903 6.474,6.473l0,247.923l0.001,0Z" style="fill:#440a29;fill-rule:nonzero;"/><path d="M558.691,344.869l-225.188,0c-7.776,0 -14.103,6.327 -14.103,14.104l-0,196.631c-0,7.778 6.327,14.105 14.103,14.105l225.188,-0c7.777,-0 14.104,-6.327 14.104,-14.105l0,-196.632c0,-7.776 -6.327,-14.103 -14.104,-14.103Zm-225.188,11.934l225.188,-0c1.196,-0 2.171,0.973 2.171,2.17l-0,31.667l-229.529,-0l0,-31.667c0,-1.198 0.974,-2.17 2.17,-2.17Zm78.782,87.539l27.845,-0l0,29.835l-27.845,-0l-0,-29.835Zm-11.934,29.834l-27.846,-0l0,-29.835l27.846,-0l-0,29.835Zm39.779,11.933l0,29.834l-27.845,0l-0,-29.834l27.845,0Zm11.935,0l27.845,0l0,29.834l-27.845,0l-0,-29.834Zm-0,-11.933l-0,-29.835l27.845,-0l0,29.835l-27.845,-0Zm39.779,-29.834l27.846,-0l-0,29.835l-27.846,-0l0,-29.835Zm0,-11.935l0,-29.834l27.846,0l-0,29.834l-27.846,0Zm-11.934,0l-27.846,0l-0,-29.834l27.846,0l-0,29.834Zm-39.78,0l-27.845,0l-0,-29.834l27.845,0l0,29.834Zm-39.779,0l-27.846,0l0,-29.834l27.846,0l-0,29.834Zm-39.779,0l-29.239,0l0,-29.834l29.239,0l-0,29.834Zm-0,11.935l-0,29.835l-29.239,-0l0,-29.835l29.239,-0Zm-0,41.767l-0,29.834l-29.239,0l0,-29.834l29.239,0Zm11.933,0l27.846,0l-0,29.834l-27.846,0l0,-29.834Zm27.846,41.769l-0,29.896l-27.846,0l0,-29.896l27.846,-0Zm11.934,-0l27.845,-0l0,29.896l-27.845,0l-0,-29.896Zm39.78,-0l27.845,-0l0,29.896l-27.845,0l-0,-29.896Zm39.779,-0l27.846,-0l-0,29.896l-27.846,0l0,-29.896Zm0,-11.934l0,-29.834l27.846,0l-0,29.834l-27.846,0Zm39.779,-29.835l29.239,0l-0,29.834l-29.239,0l0,-29.834Zm0,-11.933l0,-29.835l29.239,-0l-0,29.835l-29.239,-0Zm0,-41.769l0,-29.834l29.239,0l-0,29.834l-29.239,0Zm-200.29,123.197l0,-27.726l29.239,-0l-0,29.896l-27.069,0c-1.196,0 -2.17,-0.973 -2.17,-2.17Zm227.358,2.17l-27.068,0l0,-29.896l29.239,-0l-0,27.726c-0,1.197 -0.975,2.17 -2.171,2.17Z" style="fill:#440a29;fill-rule:nonzero;"/><path d="M333.805,322.909l136.359,0c3.295,0 5.967,-2.672 5.967,-5.967c0,-3.295 -2.672,-5.966 -5.967,-5.966l-136.359,-0c-3.295,-0 -5.967,2.671 -5.967,5.966c0,3.295 2.672,5.967 5.967,5.967Z" style="fill:#440a29;fill-rule:nonzero;"/><path d="M513.869,322.909l42.696,0c3.295,0 5.967,-2.672 5.967,-5.967c-0,-3.295 -2.672,-5.966 -5.967,-5.966l-42.696,-0c-3.294,-0 -5.966,2.671 -5.966,5.966c-0,3.295 2.672,5.967 5.966,5.967Z" style="fill:#440a29;fill-rule:nonzero;"/><path d="M709.681,332.224l-84.511,-0c-3.295,-0 -5.967,2.672 -5.967,5.966c0,3.295 2.672,5.967 5.967,5.967l84.511,0c3.295,0 5.967,-2.672 5.967,-5.967c-0,-3.294 -2.671,-5.966 -5.967,-5.966Z" style="fill:#440a29;fill-rule:nonzero;"/><path d="M709.681,370.466l-84.511,-0c-3.295,-0 -5.967,2.672 -5.967,5.967c0,3.295 2.672,5.966 5.967,5.966l84.511,0c3.295,0 5.967,-2.671 5.967,-5.966c-0,-3.295 -2.671,-5.967 -5.967,-5.967Z" style="fill:#440a29;fill-rule:nonzero;"/><path d="M709.681,408.707l-84.511,0c-3.295,0 -5.967,2.672 -5.967,5.967c0,3.295 2.672,5.967 5.967,5.967l84.511,-0c3.295,-0 5.967,-2.672 5.967,-5.967c-0,-3.295 -2.671,-5.967 -5.967,-5.967Z" style="fill:#440a29;fill-rule:nonzero;"/><path d="M709.681,446.949l-84.511,0c-3.295,0 -5.967,2.672 -5.967,5.967c0,3.295 2.672,5.967 5.967,5.967l84.511,-0c3.295,-0 5.967,-2.672 5.967,-5.967c-0,-3.295 -2.671,-5.967 -5.967,-5.967Z" style="fill:#440a29;fill-rule:nonzero;"/><path d="M709.681,485.19l-84.511,0c-3.295,0 -5.967,2.672 -5.967,5.967c0,3.295 2.672,5.967 5.967,5.967l84.511,0c3.295,0 5.967,-2.672 5.967,-5.967c-0,-3.295 -2.671,-5.967 -5.967,-5.967Z" style="fill:#440a29;fill-rule:nonzero;"/><path d="M709.681,523.432l-84.511,-0c-3.295,-0 -5.967,2.672 -5.967,5.966c0,3.295 2.672,5.967 5.967,5.967l84.511,0c3.295,0 5.967,-2.672 5.967,-5.967c-0,-3.294 -2.671,-5.966 -5.967,-5.966Z" style="fill:#440a29;fill-rule:nonzero;"/></g><path d="M384.105,292.993c-5.406,0 -9.839,-4.332 -9.94,-9.761c-0.101,-5.492 4.269,-10.025 9.76,-10.126c10.139,-0.187 19.09,-0.185 29.021,0c5.491,0.103 9.859,4.639 9.755,10.131c-0.102,5.492 -4.665,9.852 -10.13,9.755c-9.674,-0.182 -18.397,-0.182 -28.279,0c-0.062,0 -0.126,0.001 -0.187,0.001Z" style="fill:#fff;fill-rule:nonzero;"/><path d="M340.768,292.993l-5.97,0c-5.492,0 -9.945,-4.453 -9.945,-9.944c-0,-5.492 4.453,-9.945 9.945,-9.945l5.97,-0c5.492,-0 9.944,4.453 9.944,9.945c0,5.491 -4.453,9.944 -9.944,9.944Z" style="fill:#fff;fill-rule:nonzero;"/></g><g><path d="M582.458,188.815c0,10.187 -8.257,18.445 -18.444,18.445c-10.187,-0 -18.444,-8.258 -18.444,-18.445c-0,-10.186 8.257,-18.444 18.444,-18.444c10.187,0 18.444,8.258 18.444,18.444Z" style="fill:#ffe266;fill-rule:nonzero;"/><path d="M333.549,132.565c0,4.315 -3.497,7.812 -7.81,7.812c-4.315,-0 -7.812,-3.497 -7.812,-7.812c0,-4.314 3.497,-7.81 7.812,-7.81c4.313,-0 7.81,3.497 7.81,7.81Z" style="fill:#ffe266;fill-rule:nonzero;"/><path d="M736.396,149.931c-0,4.314 -3.497,7.812 -7.811,7.812c-4.314,-0 -7.811,-3.498 -7.811,-7.812c-0,-4.314 3.497,-7.811 7.811,-7.811c4.314,0 7.811,3.498 7.811,7.811Z" style="fill:#ffe266;fill-rule:nonzero;"/><g><path d="M650.601,111.294l6.266,17.619c0.268,0.754 0.798,1.353 1.469,1.654l15.654,7.053c2.211,0.996 2.211,4.52 -0,5.517l-15.654,7.052c-0.67,0.302 -1.201,0.9 -1.469,1.655l-6.266,17.619c-0.885,2.489 -4.016,2.489 -4.901,-0l-6.266,-17.619c-0.269,-0.755 -0.799,-1.353 -1.47,-1.655l-15.653,-7.052c-2.211,-0.996 -2.211,-4.52 -0,-5.517l15.653,-7.053c0.67,-0.301 1.201,-0.899 1.47,-1.654l6.266,-17.619c0.885,-2.489 4.016,-2.489 4.901,-0Z" style="fill:#fef2a8;fill-rule:nonzero;"/><path d="M758.871,189.046l4.35,12.232c0.186,0.523 0.554,0.939 1.02,1.148l10.867,4.897c1.535,0.691 1.535,3.137 0,3.829l-10.867,4.897c-0.465,0.209 -0.834,0.624 -1.02,1.148l-4.35,12.232c-0.615,1.728 -2.788,1.728 -3.403,0l-4.35,-12.232c-0.186,-0.524 -0.554,-0.939 -1.02,-1.148l-10.867,-4.897c-1.535,-0.691 -1.535,-3.137 -0,-3.829l10.867,-4.897c0.465,-0.209 0.834,-0.624 1.02,-1.148l4.35,-12.232c0.615,-1.728 2.788,-1.728 3.403,-0Z" style="fill:#fef2a8;fill-rule:nonzero;"/><path d="M463.683,126.283l8.609,23.752c0.369,1.017 1.099,1.823 2.02,2.231l21.509,9.507c3.039,1.343 3.039,6.094 -0,7.437l-21.509,9.508c-0.921,0.407 -1.651,1.213 -2.02,2.229l-8.609,23.752c-1.217,3.356 -5.518,3.356 -6.734,0l-8.61,-23.752c-0.369,-1.016 -1.098,-1.823 -2.019,-2.229l-21.509,-9.508c-3.039,-1.343 -3.039,-6.094 -0,-7.437l21.509,-9.507c0.921,-0.408 1.65,-1.213 2.019,-2.231l8.61,-23.752c1.216,-3.355 5.518,-3.355 6.734,0Z" style="fill:#fef2a8;fill-rule:nonzero;"/></g></g></g></svg>