<?xml version="1.0" encoding="UTF-8" standalone="no"?>
<!DOCTYPE svg PUBLIC "-//W3C//DTD SVG 1.1//EN" "http://www.w3.org/Graphics/SVG/1.1/DTD/svg11.dtd">
<svg width="100%" height="100%" viewBox="0 0 256 256" version="1.1" xmlns="http://www.w3.org/2000/svg" xmlns:xlink="http://www.w3.org/1999/xlink" xml:space="preserve" xmlns:serif="http://www.serif.com/" style="fill-rule:evenodd;clip-rule:evenodd;stroke-linecap:round;stroke-linejoin:round;stroke-miterlimit:1.5;">
    <g transform="matrix(0.06144,0,0,0.06144,-0.265856,6.21668)">
        <circle cx="2087.66" cy="1982.15" r="1917.5" style="fill:rgb(238,182,168);stroke:rgb(68,10,41);stroke-width:150px;"/>
    </g>
    <g transform="matrix(0.0583094,0,0,0.0583094,38.3618,27.3452)">
        <path d="M740.74,3306.29C952.849,3306.29 1089.37,3204.34 1089.37,3046.13C1089.37,2931.88 1008.51,2859.8 880.779,2846.91L880.779,2842.81C977.458,2823.48 1055.97,2754.34 1055.97,2645.94C1055.97,2502.38 923.552,2418.59 739.568,2418.59C573.162,2418.59 473.552,2498.28 440.154,2580.31C432.537,2598.48 429.607,2613.12 429.607,2631.29C429.607,2680.51 459.49,2715.66 518.083,2715.66C565.544,2715.66 591.326,2698.67 615.349,2653.55C641.13,2603.16 680.388,2578.55 740.74,2578.55C813.982,2578.55 856.169,2616.64 856.169,2676.41C856.169,2737.93 805.779,2778.36 723.162,2778.36L703.826,2778.36C652.849,2778.36 625.896,2808.24 625.896,2851.01C625.896,2894.96 652.849,2924.26 703.826,2924.26L724.333,2924.26C818.083,2924.26 870.818,2962.34 870.818,3033.24C870.818,3094.18 819.255,3137.54 745.427,3137.54C665.154,3137.54 627.068,3106.48 596.013,3053.75C574.919,3019.76 548.552,3005.12 507.537,3005.12C448.943,3005.12 413.201,3039.1 413.201,3093.01C413.201,3108.24 416.716,3125.82 423.747,3142.23C457.732,3224.26 560.857,3306.29 740.74,3306.29Z" style="fill:none;fill-rule:nonzero;stroke:rgb(68,10,41);stroke-width:204.17px;stroke-linecap:butt;stroke-miterlimit:2;"/>
        <path d="M1545.82,3306.29C1742.11,3306.29 1885.66,3179.73 1885.66,3000.43C1885.66,2842.23 1777.26,2727.38 1612.62,2727.38C1498.36,2727.38 1417.5,2783.05 1385.27,2862.15L1381.17,2862.15L1381.17,2852.77C1380,2693.98 1431.56,2583.24 1542.3,2583.24C1593.28,2583.24 1629.02,2600.23 1666.52,2640.66C1696.4,2670.55 1720.43,2688.12 1762.62,2688.12C1818.87,2688.12 1849.92,2651.21 1849.92,2605.51C1849.92,2589.69 1846.4,2575.04 1839.37,2559.22C1803.63,2481.88 1699.33,2418.01 1542.3,2418.01C1316.13,2418.01 1175.51,2587.93 1175.51,2865.66C1175.51,2967.62 1195.43,3055.51 1230.58,3121.13C1297.38,3247.11 1406.95,3306.29 1545.82,3306.29ZM1542.89,3141.05C1466.72,3141.05 1407.54,3083.05 1407.54,3006.88C1407.54,2931.29 1466.72,2877.97 1544.65,2877.97C1620.82,2877.97 1678.83,2932.46 1678.24,3009.8C1677.65,3083.63 1618.47,3141.05 1542.89,3141.05Z" style="fill:none;fill-rule:nonzero;stroke:rgb(68,10,41);stroke-width:204.17px;stroke-linecap:butt;stroke-miterlimit:2;"/>
        <path d="M2328.04,3306.29C2529.02,3306.29 2668.47,3183.83 2668.47,2998.09C2668.47,2837.54 2553.63,2725.04 2393.67,2725.04C2305.19,2725.04 2236.64,2761.95 2203.83,2817.62L2199.72,2817.62L2216.13,2604.92L2539.57,2604.92C2591.13,2604.92 2623.94,2572.7 2623.94,2522.3C2623.94,2471.91 2590.54,2439.69 2539.57,2439.69L2159.29,2439.69C2087.22,2439.69 2045.04,2471.91 2039.18,2549.26L2016.91,2846.33L2016.91,2849.26C2013.4,2906.09 2045.62,2955.31 2116.52,2955.31C2163.4,2955.31 2185.08,2944.76 2217.89,2916.05C2244.84,2892.03 2281.76,2870.94 2328.04,2870.94C2408.9,2870.94 2465.74,2925.43 2465.74,3002.77C2465.74,3081.88 2406.56,3140.47 2326.29,3140.47C2258.32,3140.47 2217.3,3108.24 2184.49,3059.02C2158.71,3026.8 2132.93,3013.32 2092.5,3013.32C2038.01,3013.32 2005.78,3044.96 2005.78,3097.7C2005.78,3118.2 2011.05,3138.12 2020.43,3156.88C2063.79,3243.01 2188.01,3306.29 2328.04,3306.29Z" style="fill:none;fill-rule:nonzero;stroke:rgb(68,10,41);stroke-width:204.17px;stroke-linecap:butt;stroke-miterlimit:2;"/>
        <g transform="matrix(1200,0,0,1200,356.365,3285.2)">
            <path d="M0.32,0.018C0.497,0.018 0.611,-0.067 0.611,-0.199C0.611,-0.294 0.543,-0.354 0.437,-0.365L0.437,-0.369C0.518,-0.385 0.583,-0.442 0.583,-0.533C0.583,-0.652 0.473,-0.722 0.319,-0.722C0.181,-0.722 0.098,-0.656 0.07,-0.587C0.063,-0.572 0.061,-0.56 0.061,-0.545C0.061,-0.504 0.086,-0.475 0.135,-0.475C0.174,-0.475 0.196,-0.489 0.216,-0.526C0.237,-0.568 0.27,-0.589 0.32,-0.589C0.381,-0.589 0.417,-0.557 0.417,-0.507C0.417,-0.456 0.375,-0.422 0.306,-0.422L0.29,-0.422C0.247,-0.422 0.225,-0.397 0.225,-0.362C0.225,-0.325 0.247,-0.301 0.29,-0.301L0.307,-0.301C0.385,-0.301 0.429,-0.269 0.429,-0.21C0.429,-0.159 0.386,-0.123 0.324,-0.123C0.257,-0.123 0.226,-0.149 0.2,-0.193C0.182,-0.221 0.16,-0.233 0.126,-0.233C0.077,-0.233 0.047,-0.205 0.047,-0.16C0.047,-0.147 0.05,-0.133 0.056,-0.119C0.084,-0.051 0.17,0.018 0.32,0.018Z" style="fill:rgb(254,242,168);fill-rule:nonzero;"/>
        </g>
        <g transform="matrix(1200,0,0,1200,1130.97,3285.2)">
            <path d="M0.346,0.018C0.509,0.018 0.629,-0.088 0.629,-0.237C0.629,-0.369 0.539,-0.465 0.401,-0.465C0.306,-0.465 0.239,-0.418 0.212,-0.353L0.208,-0.353L0.208,-0.36C0.208,-0.493 0.25,-0.585 0.343,-0.585C0.385,-0.585 0.415,-0.571 0.446,-0.537C0.471,-0.512 0.491,-0.498 0.526,-0.498C0.573,-0.498 0.599,-0.528 0.599,-0.566C0.599,-0.58 0.596,-0.592 0.59,-0.605C0.561,-0.669 0.474,-0.723 0.343,-0.723C0.154,-0.723 0.037,-0.581 0.037,-0.35C0.037,-0.265 0.054,-0.191 0.083,-0.137C0.139,-0.032 0.23,0.018 0.346,0.018ZM0.343,-0.12C0.28,-0.12 0.23,-0.168 0.23,-0.232C0.23,-0.295 0.28,-0.339 0.345,-0.339C0.408,-0.339 0.457,-0.294 0.456,-0.229C0.456,-0.168 0.406,-0.12 0.343,-0.12Z" style="fill:rgb(254,242,168);fill-rule:nonzero;"/>
        </g>
        <g transform="matrix(1200,0,0,1200,1930.19,3285.2)">
            <path d="M0.332,0.018C0.499,0.018 0.615,-0.084 0.615,-0.239C0.615,-0.373 0.52,-0.467 0.386,-0.467C0.313,-0.467 0.255,-0.436 0.228,-0.39L0.225,-0.39L0.238,-0.567L0.508,-0.567C0.551,-0.567 0.578,-0.594 0.578,-0.636C0.578,-0.678 0.55,-0.705 0.508,-0.705L0.191,-0.705C0.131,-0.705 0.096,-0.678 0.091,-0.613L0.072,-0.366L0.072,-0.363C0.069,-0.316 0.096,-0.275 0.155,-0.275C0.194,-0.275 0.212,-0.284 0.24,-0.308C0.262,-0.328 0.293,-0.345 0.332,-0.345C0.399,-0.345 0.446,-0.3 0.446,-0.235C0.446,-0.169 0.397,-0.121 0.33,-0.121C0.273,-0.121 0.239,-0.147 0.212,-0.188C0.19,-0.215 0.169,-0.227 0.135,-0.227C0.09,-0.227 0.063,-0.2 0.063,-0.156C0.063,-0.139 0.067,-0.123 0.075,-0.107C0.111,-0.035 0.215,0.018 0.332,0.018Z" style="fill:rgb(254,242,168);fill-rule:nonzero;"/>
        </g>
    </g>
    <g transform="matrix(0.263672,0,0,0.263672,128,93.7624)">
        <g transform="matrix(1,0,0,1,-256,-256)">
            <g>
                <g>
                    <path d="M87.317,181.085C74.469,181.085 64.053,170.67 64.053,157.821L64.053,104.557C64.053,91.709 74.469,81.293 87.317,81.293C100.165,81.293 110.58,91.708 110.58,104.557L110.58,157.821C110.58,170.669 100.165,181.085 87.317,181.085Z" style="fill:rgb(255,226,102);fill-rule:nonzero;"/>
                    <path d="M422.882,181.085C410.034,181.085 399.618,170.67 399.618,157.821L399.618,104.557C399.618,91.709 410.033,81.293 422.882,81.293C435.73,81.293 446.145,91.708 446.145,104.557L446.145,157.821C446.145,170.669 435.73,181.085 422.882,181.085Z" style="fill:rgb(255,226,102);fill-rule:nonzero;"/>
                    <path d="M471.049,501.817L40.952,501.817C24.543,501.817 11.241,488.515 11.241,472.106L11.241,176.221C11.241,159.812 24.543,146.51 40.952,146.51L471.049,146.51C487.458,146.51 500.76,159.812 500.76,176.221L500.76,472.106C500.759,488.515 487.457,501.817 471.049,501.817Z" style="fill:rgb(254,242,168);fill-rule:nonzero;"/>
                    <path d="M454.224,470.669L332.398,470.669C325.362,470.669 319.659,464.965 319.659,457.93L319.659,204.057C319.659,197.021 325.362,191.318 332.398,191.318L454.224,191.318C461.26,191.318 466.963,197.022 466.963,204.057L466.963,457.93C466.963,464.966 461.26,470.669 454.224,470.669Z" style="fill:white;fill-rule:nonzero;"/>
                    <path d="M51.374,247.202L281.966,247.202C286.568,247.202 290.298,250.932 290.298,255.534L290.298,456.885C290.298,461.487 286.568,465.217 281.966,465.217L51.374,465.217C46.772,465.217 43.042,461.487 43.042,456.885L43.042,255.535C43.042,250.933 46.772,247.202 51.374,247.202Z" style="fill:white;fill-rule:nonzero;"/>
                    <path d="M290.299,293.103L290.299,255.534C290.299,250.932 286.568,247.202 281.967,247.202L51.374,247.202C46.772,247.202 43.042,250.932 43.042,255.534L43.042,293.103L290.299,293.103Z" style="fill:rgb(239,139,189);fill-rule:nonzero;"/>
                    <path d="M471.049,146.51L415.776,146.51C429.867,146.51 441.289,157.932 441.289,172.022L441.289,419.223C441.289,433.313 429.867,444.736 415.776,444.736L36.754,444.736C22.663,444.736 11.241,433.313 11.241,419.223L11.241,472.105C11.241,488.514 24.543,501.816 40.952,501.816L471.049,501.816C487.458,501.816 500.76,488.514 500.76,472.105L500.76,176.221C500.759,159.812 487.457,146.51 471.049,146.51Z" style="fill:rgb(238,182,168);fill-rule:nonzero;"/>
                    <g>
                        <path d="M51.374,465.218L281.966,465.218C286.568,465.218 290.298,461.488 290.298,456.886L290.298,444.737L43.042,444.737L43.042,456.886C43.042,461.488 46.772,465.218 51.374,465.218Z" style="fill:rgb(255,191,252);fill-rule:nonzero;"/>
                        <path d="M454.224,191.318L441.289,191.318L441.289,419.224C441.289,433.314 429.867,444.737 415.776,444.737L319.659,444.737L319.659,457.93C319.659,464.966 325.362,470.669 332.398,470.669L454.224,470.669C461.26,470.669 466.963,464.965 466.963,457.93L466.963,204.057C466.963,197.022 461.259,191.318 454.224,191.318Z" style="fill:rgb(255,191,252);fill-rule:nonzero;"/>
                    </g>
                </g>
                <g>
                    <g>
                        <path d="M471.048,136.327L456.329,136.327L456.329,104.558C456.329,86.115 441.324,71.11 422.881,71.11C404.438,71.11 389.434,86.115 389.434,104.558L389.434,136.327L120.764,136.327L120.764,104.558C120.764,86.115 105.759,71.11 87.317,71.11C68.875,71.11 53.87,86.115 53.87,104.558L53.87,136.327L40.952,136.327C18.954,136.327 1.057,154.224 1.057,176.221L1.057,472.107C1.057,494.103 18.954,512 40.952,512L471.048,512C493.046,512 510.943,494.103 510.943,472.106L510.943,176.22C510.943,154.223 493.046,136.327 471.048,136.327ZM409.802,104.558C409.802,97.345 415.669,91.477 422.881,91.477C430.094,91.477 435.961,97.345 435.961,104.558L435.961,136.327L409.801,136.327L409.801,104.558L409.802,104.558ZM74.237,104.558C74.237,97.345 80.104,91.477 87.316,91.477C94.529,91.477 100.396,97.345 100.396,104.558L100.396,136.327L74.236,136.327L74.236,104.558L74.237,104.558ZM490.576,472.106C490.576,482.873 481.816,491.633 471.048,491.633L40.952,491.633C30.185,491.633 21.424,482.874 21.424,472.106L21.424,176.22C21.424,165.453 30.184,156.693 40.952,156.693L471.048,156.693C481.815,156.693 490.576,165.452 490.576,176.22L490.576,472.106Z" style="fill:rgb(68,10,41);fill-rule:nonzero;"/>
                        <path d="M454.223,185.208L332.397,185.208C322.004,185.208 313.548,193.664 313.548,204.057L313.548,457.93C313.548,468.323 322.004,476.78 332.397,476.78L454.223,476.78C464.616,476.78 473.073,468.324 473.073,457.93L473.073,204.057C473.073,193.664 464.617,185.208 454.223,185.208ZM460.853,457.93C460.853,461.586 457.879,464.559 454.224,464.559L332.397,464.559C328.741,464.559 325.768,461.585 325.768,457.93L325.768,204.057C325.768,200.401 328.742,197.428 332.397,197.428L454.223,197.428C457.879,197.428 460.852,200.401 460.852,204.057L460.852,457.93L460.853,457.93Z" style="fill:rgb(68,10,41);fill-rule:nonzero;"/>
                        <path d="M281.966,241.093L51.374,241.093C43.411,241.093 36.932,247.572 36.932,255.535L36.932,456.886C36.932,464.85 43.411,471.329 51.374,471.329L281.966,471.329C289.93,471.329 296.409,464.85 296.409,456.886L296.409,255.534C296.409,247.572 289.93,241.093 281.966,241.093ZM51.374,253.313L281.966,253.313C283.191,253.313 284.189,254.31 284.189,255.535L284.189,287.962L49.152,287.962L49.152,255.535C49.152,254.309 50.149,253.313 51.374,253.313ZM132.046,342.953L160.56,342.953L160.56,373.504L132.046,373.504L132.046,342.953ZM119.826,373.503L91.312,373.503L91.312,342.952L119.826,342.952L119.826,373.503ZM160.56,385.723L160.56,416.273L132.046,416.273L132.046,385.723L160.56,385.723ZM172.781,385.723L201.295,385.723L201.295,416.273L172.781,416.273L172.781,385.723ZM172.781,373.503L172.781,342.952L201.295,342.952L201.295,373.503L172.781,373.503ZM213.515,342.953L242.029,342.953L242.029,373.504L213.515,373.504L213.515,342.953ZM213.515,330.732L213.515,300.182L242.029,300.182L242.029,330.732L213.515,330.732ZM201.294,330.732L172.78,330.732L172.78,300.182L201.294,300.182L201.294,330.732ZM160.56,330.732L132.046,330.732L132.046,300.182L160.56,300.182L160.56,330.732ZM119.826,330.732L91.312,330.732L91.312,300.182L119.826,300.182L119.826,330.732ZM79.092,330.732L49.152,330.732L49.152,300.182L79.092,300.182L79.092,330.732ZM79.092,342.953L79.092,373.504L49.152,373.504L49.152,342.953L79.092,342.953ZM79.092,385.723L79.092,416.273L49.152,416.273L49.152,385.723L79.092,385.723ZM91.312,385.723L119.826,385.723L119.826,416.273L91.312,416.273L91.312,385.723ZM119.826,428.494L119.826,459.108L91.312,459.108L91.312,428.494L119.826,428.494ZM132.046,428.494L160.56,428.494L160.56,459.108L132.046,459.108L132.046,428.494ZM172.781,428.494L201.295,428.494L201.295,459.108L172.781,459.108L172.781,428.494ZM213.515,428.494L242.029,428.494L242.029,459.108L213.515,459.108L213.515,428.494ZM213.515,416.274L213.515,385.724L242.029,385.724L242.029,416.274L213.515,416.274ZM254.249,385.723L284.189,385.723L284.189,416.273L254.249,416.273L254.249,385.723ZM254.249,373.503L254.249,342.952L284.189,342.952L284.189,373.503L254.249,373.503ZM254.249,330.732L254.249,300.182L284.189,300.182L284.189,330.732L254.249,330.732ZM49.152,456.886L49.152,428.494L79.092,428.494L79.092,459.108L51.374,459.108C50.149,459.108 49.152,458.111 49.152,456.886ZM281.966,459.108L254.249,459.108L254.249,428.494L284.189,428.494L284.189,456.886C284.189,458.111 283.191,459.108 281.966,459.108Z" style="fill:rgb(68,10,41);fill-rule:nonzero;"/>
                        <path d="M51.683,218.606L191.315,218.606C194.689,218.606 197.425,215.87 197.425,212.496C197.425,209.122 194.689,206.386 191.315,206.386L51.683,206.386C48.309,206.386 45.573,209.122 45.573,212.496C45.573,215.87 48.309,218.606 51.683,218.606Z" style="fill:rgb(68,10,41);fill-rule:nonzero;"/>
                        <path d="M236.069,218.606L279.789,218.606C283.163,218.606 285.899,215.87 285.899,212.496C285.899,209.122 283.163,206.386 279.789,206.386L236.069,206.386C232.695,206.386 229.959,209.122 229.959,212.496C229.959,215.87 232.695,218.606 236.069,218.606Z" style="fill:rgb(68,10,41);fill-rule:nonzero;"/>
                        <path d="M436.58,228.144L350.041,228.144C346.667,228.144 343.931,230.88 343.931,234.254C343.931,237.628 346.667,240.364 350.041,240.364L436.58,240.364C439.954,240.364 442.69,237.628 442.69,234.254C442.69,230.88 439.955,228.144 436.58,228.144Z" style="fill:rgb(68,10,41);fill-rule:nonzero;"/>
                        <path d="M436.58,267.304L350.041,267.304C346.667,267.304 343.931,270.04 343.931,273.414C343.931,276.788 346.667,279.524 350.041,279.524L436.58,279.524C439.954,279.524 442.69,276.788 442.69,273.414C442.69,270.04 439.955,267.304 436.58,267.304Z" style="fill:rgb(68,10,41);fill-rule:nonzero;"/>
                        <path d="M436.58,306.463L350.041,306.463C346.667,306.463 343.931,309.199 343.931,312.573C343.931,315.947 346.667,318.683 350.041,318.683L436.58,318.683C439.954,318.683 442.69,315.947 442.69,312.573C442.69,309.199 439.955,306.463 436.58,306.463Z" style="fill:rgb(68,10,41);fill-rule:nonzero;"/>
                        <path d="M436.58,345.623L350.041,345.623C346.667,345.623 343.931,348.359 343.931,351.733C343.931,355.107 346.667,357.843 350.041,357.843L436.58,357.843C439.954,357.843 442.69,355.107 442.69,351.733C442.69,348.359 439.955,345.623 436.58,345.623Z" style="fill:rgb(68,10,41);fill-rule:nonzero;"/>
                        <path d="M436.58,384.782L350.041,384.782C346.667,384.782 343.931,387.518 343.931,390.892C343.931,394.266 346.667,397.002 350.041,397.002L436.58,397.002C439.954,397.002 442.69,394.266 442.69,390.892C442.69,387.518 439.955,384.782 436.58,384.782Z" style="fill:rgb(68,10,41);fill-rule:nonzero;"/>
                        <path d="M436.58,423.941L350.041,423.941C346.667,423.941 343.931,426.677 343.931,430.051C343.931,433.425 346.667,436.161 350.041,436.161L436.58,436.161C439.954,436.161 442.69,433.425 442.69,430.051C442.69,426.677 439.955,423.941 436.58,423.941Z" style="fill:rgb(68,10,41);fill-rule:nonzero;"/>
                    </g>
                    <path d="M103.19,187.972C97.654,187.972 93.115,183.536 93.012,177.977C92.908,172.353 97.383,167.711 103.006,167.608C113.388,167.416 122.554,167.418 132.723,167.608C138.346,167.713 142.819,172.358 142.713,177.982C142.608,183.605 137.936,188.07 132.339,187.971C122.433,187.784 113.501,187.784 103.382,187.971C103.318,187.971 103.253,187.972 103.19,187.972Z" style="fill:white;fill-rule:nonzero;"/>
                    <path d="M58.813,187.972L52.7,187.972C47.076,187.972 42.516,183.412 42.516,177.789C42.516,172.165 47.076,167.605 52.7,167.605L58.813,167.605C64.437,167.605 68.996,172.165 68.996,177.789C68.996,183.412 64.436,187.972 58.813,187.972Z" style="fill:white;fill-rule:nonzero;"/>
                </g>
                <g>
                    <path d="M306.304,81.294C306.304,91.725 297.848,100.181 287.417,100.181C276.986,100.181 268.53,91.725 268.53,81.294C268.53,70.863 276.986,62.407 287.417,62.407C297.848,62.407 306.304,70.863 306.304,81.294Z" style="fill:rgb(255,226,102);fill-rule:nonzero;"/>
                    <path d="M51.421,23.694C51.421,28.112 47.84,31.693 43.423,31.693C39.005,31.693 35.424,28.112 35.424,23.694C35.424,19.276 39.005,15.696 43.423,15.696C47.84,15.696 51.421,19.277 51.421,23.694Z" style="fill:rgb(255,226,102);fill-rule:nonzero;"/>
                    <g>
                        <path d="M376.082,1.912L382.498,19.954C382.773,20.726 383.316,21.339 384.003,21.648L400.032,28.87C402.296,29.89 402.296,33.498 400.032,34.519L384.003,41.741C383.317,42.05 382.773,42.662 382.498,43.435L376.082,61.477C375.176,64.026 371.97,64.026 371.063,61.477L364.647,43.435C364.372,42.662 363.829,42.05 363.142,41.741L347.113,34.519C344.849,33.499 344.849,29.891 347.113,28.87L363.142,21.648C363.828,21.339 364.372,20.727 364.647,19.954L371.063,1.912C371.97,-0.637 375.176,-0.637 376.082,1.912Z" style="fill:rgb(254,242,168);fill-rule:nonzero;"/>
                        <path d="M184.678,17.261L193.494,41.583C193.872,42.624 194.619,43.45 195.562,43.867L217.587,53.603C220.699,54.978 220.699,59.843 217.587,61.218L195.562,70.954C194.619,71.371 193.872,72.196 193.494,73.237L184.678,97.559C183.432,100.995 179.028,100.995 177.782,97.559L168.966,73.237C168.588,72.196 167.841,71.37 166.898,70.954L144.873,61.218C141.761,59.843 141.761,54.978 144.873,53.603L166.898,43.867C167.841,43.45 168.588,42.625 168.966,41.583L177.782,17.261C179.028,13.825 183.433,13.825 184.678,17.261Z" style="fill:rgb(254,242,168);fill-rule:nonzero;"/>
                    </g>
                </g>
            </g>
        </g>
    </g>
</svg>
