<?xml version="1.0" encoding="UTF-8" standalone="no"?>
<!DOCTYPE svg PUBLIC "-//W3C//DTD SVG 1.1//EN" "http://www.w3.org/Graphics/SVG/1.1/DTD/svg11.dtd">
<svg width="100%" height="100%" viewBox="0 0 511 512" version="1.1" xmlns="http://www.w3.org/2000/svg" xmlns:xlink="http://www.w3.org/1999/xlink" xml:space="preserve" xmlns:serif="http://www.serif.com/" style="fill-rule:evenodd;clip-rule:evenodd;stroke-linejoin:round;stroke-miterlimit:2;">
    <g transform="matrix(1,0,0,1,116,0)">
        <path d="M280.289,6.285C279.609,2.191 275.746,-0.578 271.641,0.102L208.219,10.648C203.406,11.449 199.488,14.832 197.992,19.473L183.422,64.645L21.887,64.645C15.547,64.645 9.914,68.43 7.531,74.285C3.973,83.031 -0.125,99.113 0.578,126.039C1.445,159.18 9.363,199.609 24.113,246.211C52.863,337.031 44.879,426.695 38.125,469.871C37.926,471.145 37.723,472.41 37.516,473.668C37.453,474.051 37.391,474.437 37.328,474.809C37.004,476.738 36.672,478.652 36.332,480.539C34.918,488.34 37.023,496.309 42.109,502.398C44.949,505.797 48.535,508.391 52.527,510.016C55.695,511.309 59.121,512 62.641,512L192.699,512C196.043,512 199.301,511.371 202.332,510.203C206.516,508.59 210.277,505.934 213.23,502.395C218.313,496.309 220.422,488.34 219.008,480.539C218.695,478.82 218.395,477.074 218.098,475.32C218.047,475.016 217.992,474.715 217.941,474.41C216.906,468.219 215.965,461.84 215.133,455.371L215.133,455.363C213.953,446.168 212.992,436.801 212.273,427.32C211.961,423.18 208.34,420.086 204.211,420.395C200.07,420.707 196.969,424.32 197.285,428.457C197.93,436.941 198.766,445.332 199.77,453.605C197.758,455.137 195.293,455.992 192.699,455.992L62.641,455.992C60.059,455.992 57.609,455.145 55.602,453.629C62,401.621 64.148,322.879 38.445,241.676C20.629,185.395 15.66,146.465 15.59,120.648L32.207,120.648L19.156,143.254C16.352,148.117 18.02,154.355 22.883,157.164L55.43,175.957C57.027,176.879 58.777,177.316 60.504,177.316C64.023,177.316 67.453,175.492 69.34,172.227L88.129,139.684C90.938,134.82 89.266,128.578 84.402,125.77L75.527,120.648L123.813,120.648C127.965,120.648 131.328,117.285 131.328,113.133C131.328,108.98 127.965,105.617 123.813,105.617L16.164,105.617C17.297,92.02 19.852,83.887 21.453,79.949C21.52,79.781 21.691,79.676 21.887,79.676L178.57,79.676L170.203,105.617L158.781,105.617C154.633,105.617 151.266,108.98 151.266,113.133C151.266,117.285 154.633,120.648 158.781,120.648L239.809,120.648C239.801,122.266 239.781,123.93 239.734,125.648C238.906,157.379 231.223,196.418 216.895,241.676C202.223,288.023 195.098,338.734 195.707,392.41C195.758,396.527 199.113,399.836 203.223,399.836L203.309,399.836C207.461,399.789 210.785,396.387 210.738,392.238C210.145,340.164 217.035,291.035 231.223,246.211C251.012,183.703 255.59,141.219 254.695,113.473C254.699,113.359 254.715,113.246 254.715,113.133C254.715,112.812 254.688,112.5 254.648,112.191C253.891,92.77 250.445,80.766 247.809,74.285C245.426,68.426 239.789,64.645 233.453,64.645L199.215,64.645L211.914,25.273L274.109,14.93C278.203,14.25 280.969,10.379 280.289,6.285ZM51.125,483.203C51.891,478.965 52.668,474.348 53.426,469.398C56.336,470.465 59.445,471.023 62.641,471.023L192.699,471.023C195.895,471.023 199.008,470.461 201.922,469.395C202.629,474.055 203.395,478.66 204.215,483.203C204.832,486.617 203.91,490.102 201.688,492.766C200.57,494.102 199.195,495.152 197.66,495.871C196.129,496.586 194.438,496.969 192.699,496.969L62.641,496.969C61.336,496.969 60.059,496.754 58.852,496.344C56.848,495.66 55.047,494.434 53.652,492.766C51.426,490.102 50.504,486.617 51.125,483.203ZM48.539,122.422L72.688,136.363L58.746,160.516L34.598,146.574L48.539,122.422ZM233.453,79.676C233.648,79.676 233.82,79.781 233.887,79.949C235.617,84.199 238.113,92.344 239.23,105.617L185.996,105.617L194.363,79.676L233.453,79.676Z" style="fill-rule:nonzero;"/>
    </g>
    <g transform="matrix(1,0,0,1,116,0)">
        <path d="M117.734,216.781C119.734,218.438 122.16,219.242 124.574,219.242C127.664,219.242 130.734,217.922 132.855,215.359L161.836,180.375C163.668,178.164 164.531,175.375 164.262,172.52C163.992,169.66 162.629,167.082 160.418,165.25L125.43,136.27C120.871,132.488 114.086,133.129 110.309,137.688L81.328,172.676C79.496,174.883 78.637,177.672 78.906,180.531C79.172,183.387 80.539,185.969 82.746,187.797L117.734,216.781ZM119.148,150.582L147.523,174.09L124.02,202.469L95.641,178.961L119.148,150.582Z" style="fill-rule:nonzero;"/>
    </g>
    <g transform="matrix(1,0,0,1,116,0)">
        <path d="M123.027,279.277L162.527,308.832C164.453,310.273 166.742,311.031 169.105,311.031C169.633,311.031 170.164,310.992 170.699,310.914C173.609,310.496 176.188,308.969 177.949,306.613L207.508,267.109C209.27,264.754 210.008,261.852 209.59,258.941C209.168,256.027 207.641,253.449 205.285,251.691L165.781,222.133C160.918,218.496 154,219.492 150.363,224.355L120.805,263.855C117.168,268.719 118.164,275.637 123.027,279.277ZM159.996,236.574L193.07,261.32L168.32,294.395L135.246,269.648L159.996,236.574Z" style="fill-rule:nonzero;"/>
    </g>
    <g transform="matrix(1,0,0,1,116,0)">
        <path d="M182.641,177.211C182.77,177.211 182.898,177.207 183.027,177.203L213.422,176C218.754,175.789 222.918,171.285 222.707,165.953L221.508,135.551C221.293,130.227 216.762,126.07 211.461,126.273L181.066,127.473C175.734,127.684 171.57,132.191 171.777,137.52L172.98,167.914C173.184,173.117 177.48,177.211 182.641,177.211ZM206.699,141.504L207.477,161.191L187.785,161.973L187.008,142.281L206.699,141.504Z" style="fill-rule:nonzero;"/>
    </g>
    <g transform="matrix(1,0,0,1,116,0)">
        <path d="M97.434,218.457L65.492,221.703C62.891,221.969 60.547,223.227 58.891,225.258C57.238,227.285 56.473,229.832 56.738,232.438L59.98,264.375C60.246,266.98 61.508,269.324 63.535,270.977C65.301,272.418 67.461,273.184 69.707,273.184C70.043,273.184 70.379,273.164 70.715,273.133L102.656,269.887C105.262,269.621 107.605,268.359 109.258,266.332C110.91,264.305 111.676,261.754 111.41,259.152L108.168,227.211C107.621,221.84 102.805,217.93 97.434,218.457ZM74.406,257.648L72.219,236.129L93.742,233.941L95.93,255.465L74.406,257.648Z" style="fill-rule:nonzero;"/>
    </g>
</svg>
