<?xml version="1.0" encoding="UTF-8" standalone="no"?>
<!DOCTYPE svg PUBLIC "-//W3C//DTD SVG 1.1//EN" "http://www.w3.org/Graphics/SVG/1.1/DTD/svg11.dtd">
<svg width="100%" height="100%" viewBox="0 0 256 256" version="1.1" xmlns="http://www.w3.org/2000/svg" xmlns:xlink="http://www.w3.org/1999/xlink" xml:space="preserve" xmlns:serif="http://www.serif.com/" style="fill-rule:evenodd;clip-rule:evenodd;stroke-linecap:round;stroke-linejoin:round;stroke-miterlimit:1.5;">
    <g transform="matrix(0.06144,0,0,0.06144,-0.265856,6.21668)">
        <circle cx="2087.66" cy="1982.15" r="1917.5" style="fill:rgb(199,199,199);stroke:rgb(68,68,68);stroke-width:150px;"/>
    </g>
    <g transform="matrix(0.273759,0,0,0.273759,128,96.1493)">
        <g transform="matrix(1,0,0,1,-256,-256)">
            <g>
                <g>
                    <g>
                        <path d="M247.617,114.715C247.616,114.715 247.616,114.714 247.617,114.715C224.481,81.609 180.504,70.452 149.582,89.84C118.662,109.23 112.326,151.938 135.461,185.044C150.893,207.127 175.597,219.445 199.515,219.445C211.454,219.445 223.199,216.375 233.494,209.918C264.415,190.528 270.751,147.82 247.617,114.715ZM215.536,184.22C199.572,194.231 175.82,186.968 162.589,168.032C149.356,149.096 151.578,125.547 167.54,115.537C172.407,112.486 177.995,111.04 183.791,111.04C197.005,111.04 211.29,118.562 220.488,131.726L220.487,131.725C233.72,150.661 231.499,174.21 215.536,184.22Z" style="fill:white;fill-rule:nonzero;"/>
                        <path d="M373.514,89.84C342.592,70.452 298.615,81.609 275.48,114.714C275.48,114.714 275.48,114.715 275.479,114.715C252.346,147.82 258.681,190.529 289.601,209.917C299.897,216.374 311.641,219.444 323.58,219.444C347.499,219.444 372.202,207.127 387.635,185.043C410.769,151.938 404.434,109.229 373.514,89.84ZM360.506,168.032C347.275,186.967 323.523,194.231 307.559,184.22C291.596,174.21 289.375,150.661 302.607,131.726L302.606,131.727C311.805,118.563 326.089,111.041 339.303,111.041C345.099,111.041 350.687,112.487 355.554,115.538C371.518,125.547 373.739,149.096 360.506,168.032Z" style="fill:white;fill-rule:nonzero;"/>
                        <rect x="237.901" y="205.243" width="47.295" height="135.322" style="fill:white;"/>
                        <path d="M305.447,291.185L217.65,291.185C203.851,291.185 192.664,302.372 192.664,316.171C192.664,329.97 203.851,341.157 217.65,341.157L305.447,341.157C319.246,341.157 330.433,329.971 330.433,316.171C330.432,302.372 319.246,291.185 305.447,291.185Z" style="fill:white;fill-rule:nonzero;"/>
                        <path d="M261.548,228.554C220.618,228.554 187.438,195.374 187.438,154.444L187.438,54.837C187.438,41.01 198.647,29.802 212.473,29.802L310.622,29.802C324.449,29.802 335.657,41.011 335.657,54.837L335.657,154.444C335.658,195.374 302.478,228.554 261.548,228.554Z" style="fill:white;fill-rule:nonzero;"/>
                    </g>
                    <path d="M310.623,29.802L283.145,29.802C293.887,29.802 302.596,38.51 302.596,49.253L302.596,126.642C302.596,158.441 276.817,184.221 245.017,184.221C213.217,184.221 187.438,158.442 187.438,126.642L187.438,154.445C187.438,195.375 220.618,228.555 261.548,228.555C302.478,228.555 335.658,195.375 335.658,154.445L335.658,54.837C335.658,41.01 324.449,29.802 310.623,29.802Z" style="fill:rgb(239,239,239);fill-rule:nonzero;"/>
                    <rect x="174.505" y="359.549" width="174.086" height="102.02" style="fill:rgb(212,212,212);"/>
                    <path d="M350.719,488.033L172.377,488.033C160.984,488.033 151.749,478.798 151.749,467.405C151.749,456.013 160.984,446.777 172.377,446.777L350.72,446.777C362.112,446.777 371.348,456.013 371.348,467.405C371.347,478.798 362.112,488.033 350.719,488.033Z" style="fill:rgb(176,176,176);fill-rule:nonzero;"/>
                    <path d="M350.719,371.317L172.377,371.317C160.984,371.317 151.749,362.081 151.749,350.689C151.749,339.296 160.984,330.061 172.377,330.061L350.72,330.061C362.112,330.061 371.348,339.296 371.348,350.689C371.347,362.082 362.112,371.317 350.719,371.317Z" style="fill:rgb(176,176,176);fill-rule:nonzero;"/>
                    <rect x="172.377" y="371.317" width="176.214" height="35.436" style="fill:rgb(199,199,199);"/>
                </g>
                <g>
                    <g>
                        <path d="M410.259,126.854C406.351,107.617 395.229,91.398 378.941,81.183C368.818,74.836 357.495,71.333 345.874,70.417L345.874,54.837C345.874,35.399 330.06,19.585 310.622,19.585L212.473,19.585C193.034,19.585 177.22,35.399 177.22,54.837L177.22,70.415C165.6,71.333 154.277,74.836 144.154,81.183C127.866,91.397 116.744,107.616 112.836,126.853C108.47,148.347 113.664,171.689 127.084,190.896C143.794,214.807 171.547,229.66 199.513,229.66C206.17,229.66 212.697,228.815 218.944,227.174C221.757,228.828 224.673,230.323 227.681,231.648L227.681,280.969L217.65,280.969C198.239,280.969 182.447,296.761 182.447,316.172C182.447,317.415 182.536,318.636 182.663,319.846L172.377,319.846C155.369,319.846 141.532,333.682 141.532,350.691C141.532,364.901 151.192,376.889 164.288,380.452L164.288,437.646C151.192,441.209 141.532,453.198 141.532,467.407C141.532,484.415 155.369,498.252 172.377,498.252L350.72,498.252C367.728,498.252 381.565,484.415 381.565,467.407C381.565,453.197 371.905,441.209 358.809,437.646L358.809,380.452C371.905,376.889 381.565,364.901 381.565,350.691C381.565,333.683 367.729,319.846 350.72,319.846L340.434,319.846C340.562,318.637 340.65,317.416 340.65,316.172C340.65,296.761 324.858,280.969 305.447,280.969L295.413,280.969L295.413,231.648C298.421,230.323 301.336,228.828 304.148,227.175C310.396,228.815 316.923,229.66 323.581,229.66C351.547,229.66 379.3,214.807 396.011,190.895C409.431,171.689 414.625,148.348 410.259,126.854ZM345.874,117.985C348.168,118.58 350.319,119.49 352.298,120.731C357.572,124.038 361.072,129.296 362.421,135.933C364.287,145.12 361.757,155.539 355.481,164.522C351.955,169.568 347.6,173.667 342.876,176.684C344.817,169.593 345.874,162.142 345.874,154.444L345.874,117.985ZM197.654,54.837C197.654,46.667 204.302,40.019 212.473,40.019L310.622,40.019C318.792,40.019 325.44,46.667 325.44,54.837L325.44,154.444C325.44,189.675 296.777,218.337 261.547,218.337C226.317,218.337 197.654,189.674 197.654,154.444L197.654,54.837ZM180.217,176.675C175.495,173.658 171.139,169.565 167.614,164.522C161.338,155.539 158.809,145.119 160.675,135.932C162.024,129.294 165.524,124.038 170.796,120.732C172.776,119.491 174.927,118.58 177.221,117.986L177.221,154.444C177.221,162.138 178.277,169.587 180.217,176.675ZM143.836,179.192C133.604,164.55 129.605,146.956 132.862,130.921C135.645,117.222 143.511,105.705 155.01,98.495C161.821,94.225 169.391,91.724 177.22,90.847L177.22,105.484C172.563,106.281 168.168,107.908 164.282,110.344C156.211,115.404 150.663,123.626 148.659,133.491C146.128,145.953 149.373,159.822 157.564,171.543C165.03,182.228 175.538,189.563 186.511,192.846C189.534,198.729 193.224,204.209 197.488,209.191C176.778,208.493 156.374,197.133 143.836,179.192ZM184.722,436.561L184.722,381.534L338.375,381.534L338.375,436.561L184.722,436.561ZM350.719,477.817L172.377,477.817C166.636,477.817 161.966,473.147 161.966,467.406C161.966,461.665 166.636,456.995 172.377,456.995L350.72,456.995C356.461,456.995 361.131,461.665 361.131,467.406C361.131,473.146 356.46,477.817 350.719,477.817ZM361.131,350.69C361.131,356.431 356.461,361.101 350.72,361.101L172.377,361.101C166.636,361.101 161.966,356.431 161.966,350.69C161.966,344.949 166.636,340.279 172.377,340.279L350.72,340.279C356.46,340.278 361.131,344.949 361.131,350.69ZM320.216,316.171C320.216,317.442 320.036,318.668 319.731,319.845L203.365,319.845C203.06,318.669 202.88,317.442 202.88,316.171C202.88,308.028 209.506,301.402 217.649,301.402L305.446,301.402C313.59,301.402 320.216,308.028 320.216,316.171ZM274.979,280.968L248.117,280.968L248.117,237.689C252.493,238.392 256.976,238.77 261.547,238.77C266.119,238.77 270.602,238.392 274.978,237.689L274.978,280.968L274.979,280.968ZM379.261,179.191C366.722,197.133 346.316,208.492 325.606,209.192C329.87,204.21 333.561,198.729 336.584,192.846C347.557,189.562 358.066,182.227 365.531,171.544C373.721,159.824 376.967,145.954 374.437,133.493C372.433,123.627 366.884,115.406 358.812,110.344C354.928,107.909 350.533,106.282 345.876,105.485L345.876,90.848C353.705,91.725 361.277,94.225 368.087,98.495C379.587,105.707 387.453,117.223 390.235,130.922C393.491,146.957 389.492,164.551 379.261,179.191Z" style="fill:rgb(68,68,68);fill-rule:nonzero;"/>
                        <path d="M270.497,195.193C273.882,195.193 276.627,192.448 276.627,189.063L276.627,176.019C276.627,172.634 273.882,169.889 270.497,169.889C267.112,169.889 264.367,172.634 264.367,176.019L264.367,189.063C264.367,192.448 267.112,195.193 270.497,195.193Z" style="fill:rgb(68,68,68);fill-rule:nonzero;"/>
                        <path d="M295.54,169.053C298.925,169.053 301.67,166.308 301.67,162.923L301.67,149.879C301.67,146.494 298.925,143.749 295.54,143.749C292.155,143.749 289.41,146.494 289.41,149.879L289.41,162.923C289.41,166.309 292.155,169.053 295.54,169.053Z" style="fill:rgb(68,68,68);fill-rule:nonzero;"/>
                    </g>
                    <path d="M222.627,130.595C216.985,130.595 212.41,126.02 212.41,120.378L212.41,104.36C212.41,98.718 216.985,94.143 222.627,94.143C228.269,94.143 232.844,98.717 232.844,104.36L232.844,120.378C232.844,126.021 228.269,130.595 222.627,130.595Z" style="fill:rgb(166,166,166);fill-rule:nonzero;"/>
                    <path d="M222.627,83.866C216.985,83.866 212.41,79.291 212.41,73.649L212.41,71.212C212.41,65.57 216.985,60.995 222.627,60.995C228.269,60.995 232.844,65.57 232.844,71.212L232.844,73.649C232.844,79.291 228.269,83.866 222.627,83.866Z" style="fill:rgb(166,166,166);fill-rule:nonzero;"/>
                </g>
                <g>
                    <path d="M512,121.153C512,131.618 503.516,140.102 493.051,140.102C482.586,140.102 474.102,131.618 474.102,121.153C474.102,110.688 482.586,102.204 493.051,102.204C503.516,102.204 512,110.688 512,121.153Z" style="fill:white;fill-rule:nonzero;"/>
                    <circle cx="57.468" cy="70.244" r="8.025" style="fill:white;"/>
                    <g>
                        <path d="M30.767,142.592L37.204,160.692C37.48,161.467 38.025,162.081 38.714,162.391L54.796,169.636C57.068,170.66 57.068,174.28 54.796,175.303L38.714,182.548C38.025,182.858 37.48,183.472 37.204,184.247L30.767,202.347C29.857,204.904 26.641,204.904 25.732,202.347L19.295,184.247C19.019,183.472 18.474,182.858 17.785,182.548L1.704,175.303C-0.568,174.279 -0.568,170.66 1.704,169.636L17.785,162.391C18.474,162.081 19.019,161.467 19.295,160.692L25.732,142.592C26.642,140.035 29.858,140.035 30.767,142.592Z" style="fill:rgb(254,254,254);fill-rule:nonzero;"/>
                        <path d="M447.856,15.668L454.293,33.768C454.568,34.543 455.114,35.157 455.803,35.467L471.885,42.712C474.157,43.736 474.157,47.355 471.885,48.379L455.803,55.624C455.114,55.934 454.569,56.548 454.293,57.323L447.856,75.423C446.947,77.98 443.73,77.98 442.821,75.423L436.384,57.323C436.108,56.548 435.563,55.934 434.874,55.624L418.793,48.379C416.521,47.355 416.521,43.736 418.793,42.712L434.874,35.467C435.563,35.157 436.108,34.543 436.384,33.768L442.821,15.668C443.731,13.111 446.947,13.111 447.856,15.668Z" style="fill:rgb(254,254,254);fill-rule:nonzero;"/>
                        <path d="M89.242,232.764L98.087,257.165C98.466,258.21 99.215,259.038 100.162,259.456L122.259,269.223C125.381,270.603 125.381,275.483 122.259,276.863L100.162,286.63C99.216,287.048 98.466,287.876 98.087,288.921L89.242,313.322C87.992,316.769 83.573,316.769 82.323,313.322L73.478,288.921C73.099,287.876 72.35,287.048 71.403,286.63L49.306,276.863C46.184,275.483 46.184,270.603 49.306,269.223L71.403,259.456C72.349,259.038 73.099,258.21 73.478,257.165L82.323,232.764C83.573,229.316 87.992,229.316 89.242,232.764Z" style="fill:rgb(254,254,254);fill-rule:nonzero;"/>
                    </g>
                </g>
            </g>
        </g>
    </g>
    <g transform="matrix(0.06144,0,0,0.06144,33.9612,20.2468)">
        <path d="M833.318,3035C878.435,3035 905.974,3013.32 919.451,2972.3C931.169,2930.12 946.404,2909.02 1026.68,2862.73C1112.81,2812.93 1153.24,2753.16 1153.24,2667.03C1153.24,2524.65 1036.64,2432.07 859.099,2432.07C726.091,2432.07 628.24,2482.46 588.982,2556.29C576.677,2578.55 570.818,2601.41 570.818,2626.6C570.232,2679.34 605.388,2713.32 660.466,2713.32C701.482,2713.32 734.88,2693.98 751.872,2655.9C770.037,2613.12 801.677,2591.45 848.552,2591.45C901.287,2591.45 939.372,2624.84 939.372,2672.3C939.372,2722.7 918.865,2747.89 839.177,2794.76C775.31,2831.09 740.74,2873.87 740.74,2937.73L740.74,2941.25C740.74,2996.91 777.068,3035 833.318,3035ZM836.247,3304.53C897.185,3304.53 946.99,3258.24 946.99,3199.06C946.99,3140.47 897.185,3094.18 836.247,3094.18C774.724,3094.18 725.505,3140.47 725.505,3199.06C725.505,3258.24 774.724,3304.53 836.247,3304.53Z" style="fill:none;fill-rule:nonzero;stroke:rgb(68,68,68);stroke-width:204.17px;stroke-linecap:butt;stroke-miterlimit:2;"/>
        <path d="M1501.87,3035C1546.99,3035 1574.53,3013.32 1588.01,2972.3C1599.72,2930.12 1614.96,2909.02 1695.23,2862.73C1781.37,2812.93 1821.79,2753.16 1821.79,2667.03C1821.79,2524.65 1705.19,2432.07 1527.65,2432.07C1394.65,2432.07 1296.79,2482.46 1257.54,2556.29C1245.23,2578.55 1239.37,2601.41 1239.37,2626.6C1238.79,2679.34 1273.94,2713.32 1329.02,2713.32C1370.04,2713.32 1403.43,2693.98 1420.43,2655.9C1438.59,2613.12 1470.23,2591.45 1517.11,2591.45C1569.84,2591.45 1607.93,2624.84 1607.93,2672.3C1607.93,2722.7 1587.42,2747.89 1507.73,2794.76C1443.87,2831.09 1409.29,2873.87 1409.29,2937.73L1409.29,2941.25C1409.29,2996.91 1445.62,3035 1501.87,3035ZM1504.8,3304.53C1565.74,3304.53 1615.54,3258.24 1615.54,3199.06C1615.54,3140.47 1565.74,3094.18 1504.8,3094.18C1443.28,3094.18 1394.06,3140.47 1394.06,3199.06C1394.06,3258.24 1443.28,3304.53 1504.8,3304.53Z" style="fill:none;fill-rule:nonzero;stroke:rgb(68,68,68);stroke-width:204.17px;stroke-linecap:butt;stroke-miterlimit:2;"/>
        <path d="M2170.43,3035C2215.54,3035 2243.08,3013.32 2256.56,2972.3C2268.28,2930.12 2283.51,2909.02 2363.79,2862.73C2449.92,2812.93 2490.35,2753.16 2490.35,2667.03C2490.35,2524.65 2373.75,2432.07 2196.21,2432.07C2063.2,2432.07 1965.35,2482.46 1926.09,2556.29C1913.79,2578.55 1907.93,2601.41 1907.93,2626.6C1907.34,2679.34 1942.5,2713.32 1997.58,2713.32C2038.59,2713.32 2071.99,2693.98 2088.98,2655.9C2107.15,2613.12 2138.79,2591.45 2185.66,2591.45C2238.4,2591.45 2276.48,2624.84 2276.48,2672.3C2276.48,2722.7 2255.97,2747.89 2176.29,2794.76C2112.42,2831.09 2077.85,2873.87 2077.85,2937.73L2077.85,2941.25C2077.85,2996.91 2114.18,3035 2170.43,3035ZM2173.36,3304.53C2234.29,3304.53 2284.1,3258.24 2284.1,3199.06C2284.1,3140.47 2234.29,3094.18 2173.36,3094.18C2111.83,3094.18 2062.62,3140.47 2062.62,3199.06C2062.62,3258.24 2111.83,3304.53 2173.36,3304.53Z" style="fill:none;fill-rule:nonzero;stroke:rgb(68,68,68);stroke-width:204.17px;stroke-linecap:butt;stroke-miterlimit:2;"/>
        <g transform="matrix(1200,0,0,1200,528.044,3285.2)">
            <path d="M0.254,-0.208C0.292,-0.208 0.315,-0.227 0.326,-0.261C0.336,-0.296 0.349,-0.313 0.416,-0.352C0.487,-0.394 0.521,-0.443 0.521,-0.515C0.521,-0.634 0.424,-0.711 0.276,-0.711C0.165,-0.711 0.083,-0.669 0.051,-0.607C0.041,-0.589 0.036,-0.57 0.036,-0.549C0.035,-0.505 0.064,-0.477 0.11,-0.477C0.145,-0.477 0.172,-0.493 0.187,-0.524C0.202,-0.56 0.228,-0.578 0.267,-0.578C0.311,-0.578 0.343,-0.55 0.343,-0.511C0.343,-0.469 0.326,-0.448 0.259,-0.409C0.206,-0.378 0.177,-0.343 0.177,-0.29L0.177,-0.287C0.177,-0.24 0.208,-0.208 0.254,-0.208ZM0.257,0.016C0.308,0.016 0.349,-0.022 0.349,-0.072C0.349,-0.121 0.308,-0.159 0.257,-0.159C0.206,-0.159 0.165,-0.121 0.165,-0.072C0.165,-0.022 0.206,0.016 0.257,0.016Z" style="fill:rgb(199,199,199);fill-rule:nonzero;"/>
        </g>
        <g transform="matrix(1200,0,0,1200,1196.6,3285.2)">
            <path d="M0.254,-0.208C0.292,-0.208 0.315,-0.227 0.326,-0.261C0.336,-0.296 0.349,-0.313 0.416,-0.352C0.487,-0.394 0.521,-0.443 0.521,-0.515C0.521,-0.634 0.424,-0.711 0.276,-0.711C0.165,-0.711 0.083,-0.669 0.051,-0.607C0.041,-0.589 0.036,-0.57 0.036,-0.549C0.035,-0.505 0.064,-0.477 0.11,-0.477C0.145,-0.477 0.172,-0.493 0.187,-0.524C0.202,-0.56 0.228,-0.578 0.267,-0.578C0.311,-0.578 0.343,-0.55 0.343,-0.511C0.343,-0.469 0.326,-0.448 0.259,-0.409C0.206,-0.378 0.177,-0.343 0.177,-0.29L0.177,-0.287C0.177,-0.24 0.208,-0.208 0.254,-0.208ZM0.257,0.016C0.308,0.016 0.349,-0.022 0.349,-0.072C0.349,-0.121 0.308,-0.159 0.257,-0.159C0.206,-0.159 0.165,-0.121 0.165,-0.072C0.165,-0.022 0.206,0.016 0.257,0.016Z" style="fill:rgb(199,199,199);fill-rule:nonzero;"/>
        </g>
        <g transform="matrix(1200,0,0,1200,1865.15,3285.2)">
            <path d="M0.254,-0.208C0.292,-0.208 0.315,-0.227 0.326,-0.261C0.336,-0.296 0.349,-0.313 0.416,-0.352C0.487,-0.394 0.521,-0.443 0.521,-0.515C0.521,-0.634 0.424,-0.711 0.276,-0.711C0.165,-0.711 0.083,-0.669 0.051,-0.607C0.041,-0.589 0.036,-0.57 0.036,-0.549C0.035,-0.505 0.064,-0.477 0.11,-0.477C0.145,-0.477 0.172,-0.493 0.187,-0.524C0.202,-0.56 0.228,-0.578 0.267,-0.578C0.311,-0.578 0.343,-0.55 0.343,-0.511C0.343,-0.469 0.326,-0.448 0.259,-0.409C0.206,-0.378 0.177,-0.343 0.177,-0.29L0.177,-0.287C0.177,-0.24 0.208,-0.208 0.254,-0.208ZM0.257,0.016C0.308,0.016 0.349,-0.022 0.349,-0.072C0.349,-0.121 0.308,-0.159 0.257,-0.159C0.206,-0.159 0.165,-0.121 0.165,-0.072C0.165,-0.022 0.206,0.016 0.257,0.016Z" style="fill:rgb(199,199,199);fill-rule:nonzero;"/>
        </g>
    </g>
</svg>
