<?xml version="1.0" encoding="UTF-8" standalone="no"?><!DOCTYPE svg PUBLIC "-//W3C//DTD SVG 1.1//EN" "http://www.w3.org/Graphics/SVG/1.1/DTD/svg11.dtd"><svg width="100%" height="100%" viewBox="0 0 1067 1067" version="1.1" xmlns="http://www.w3.org/2000/svg" xmlns:xlink="http://www.w3.org/1999/xlink" xml:space="preserve" xmlns:serif="http://www.serif.com/" style="fill-rule:evenodd;clip-rule:evenodd;stroke-linecap:round;stroke-linejoin:round;stroke-miterlimit:1.5;"><circle cx="533.333" cy="533.333" r="490.88" style="fill:#c7c7c7;stroke:#444;stroke-width:38.4px;"/><g><g><g><path d="M524.465,229.975c-0.001,-0 -0.001,-0.001 -0,-0c-24.477,-35.024 -71.002,-46.828 -103.716,-26.316c-32.711,20.513 -39.415,65.696 -14.939,100.72c16.326,23.362 42.462,36.394 67.765,36.394c12.631,0 25.057,-3.248 35.948,-10.079c32.713,-20.513 39.416,-65.696 14.942,-100.719Zm-33.94,73.532c-16.889,10.591 -42.018,2.907 -56.015,-17.126c-14,-20.033 -11.649,-44.947 5.238,-55.537c5.149,-3.227 11.061,-4.757 17.192,-4.757c13.98,-0 29.093,7.958 38.824,21.885l-0.001,-0.002c13.999,20.034 11.65,44.947 -5.238,55.537Z" style="fill:#fff;fill-rule:nonzero;"/><path d="M657.656,203.659c-32.713,-20.512 -79.238,-8.708 -103.714,26.315c0,-0 0,0.001 -0.001,0.001c-24.473,35.023 -17.771,80.207 14.94,100.718c10.893,6.831 23.317,10.079 35.948,10.079c25.305,0 51.439,-13.031 67.767,-36.394c24.474,-35.023 17.772,-80.207 -14.94,-100.719Zm-13.761,82.722c-13.998,20.032 -39.126,27.717 -56.015,17.126c-16.888,-10.59 -19.238,-35.503 -5.239,-55.535l-0.001,0.001c9.732,-13.927 24.843,-21.885 38.823,-21.885c6.132,-0 12.044,1.53 17.193,4.758c16.889,10.588 19.238,35.502 5.239,55.535Z" style="fill:#fff;fill-rule:nonzero;"/><rect x="514.186" y="325.748" width="50.035" height="143.163" style="fill:#fff;"/><path d="M585.645,416.67l-92.884,-0c-14.598,-0 -26.434,11.835 -26.434,26.434c0,14.598 11.836,26.434 26.434,26.434l92.884,-0c14.599,-0 26.434,-11.835 26.434,-26.434c-0.001,-14.599 -11.835,-26.434 -26.434,-26.434Z" style="fill:#fff;fill-rule:nonzero;"/><path d="M539.203,350.41c-43.302,-0 -78.404,-35.103 -78.404,-78.404l-0,-105.379c-0,-14.628 11.858,-26.485 26.485,-26.485l103.836,-0c14.628,-0 26.486,11.858 26.486,26.485l-0,105.379c0.001,43.301 -35.102,78.404 -78.403,78.404Z" style="fill:#fff;fill-rule:nonzero;"/></g><path d="M591.121,140.142l-29.07,-0c11.365,-0 20.578,9.212 20.578,20.578l0,81.873c0,33.641 -27.272,60.915 -60.915,60.915c-33.643,0 -60.915,-27.272 -60.915,-60.915l-0,29.414c-0,43.302 35.102,78.404 78.404,78.404c43.301,0 78.404,-35.102 78.404,-78.404l-0,-105.38c-0,-14.628 -11.859,-26.485 -26.486,-26.485Z" style="fill:#efefef;fill-rule:nonzero;"/><rect x="447.116" y="488.995" width="184.173" height="107.931" style="fill:#d4d4d4;"/><path d="M633.541,624.924l-188.676,-0c-12.053,-0 -21.823,-9.77 -21.823,-21.823c-0,-12.052 9.77,-21.824 21.823,-21.824l188.677,0c12.052,0 21.823,9.772 21.823,21.824c-0.001,12.053 -9.771,21.823 -21.824,21.823Z" style="fill:#b0b0b0;fill-rule:nonzero;"/><path d="M633.541,501.445l-188.676,0c-12.053,0 -21.823,-9.771 -21.823,-21.823c-0,-12.053 9.77,-21.823 21.823,-21.823l188.677,-0c12.052,-0 21.823,9.77 21.823,21.823c-0.001,12.053 -9.771,21.823 -21.824,21.823Z" style="fill:#b0b0b0;fill-rule:nonzero;"/><rect x="444.865" y="501.445" width="186.424" height="37.489" style="fill:#c7c7c7;"/></g><g><g><path d="M696.531,242.817c-4.135,-20.351 -15.901,-37.51 -33.133,-48.317c-10.71,-6.715 -22.689,-10.421 -34.983,-11.39l-0,-16.483c-0,-20.564 -16.73,-37.294 -37.295,-37.294l-103.836,-0c-20.565,-0 -37.295,16.73 -37.295,37.294l-0,16.481c-12.294,0.971 -24.273,4.677 -34.982,11.392c-17.232,10.806 -28.999,27.965 -33.133,48.316c-4.619,22.74 0.876,47.434 15.074,67.754c17.678,25.296 47.039,41.01 76.625,41.01c7.043,0 13.948,-0.894 20.557,-2.63c2.976,1.75 6.061,3.331 9.243,4.733l0,52.179l-10.612,0c-20.535,0 -37.243,16.707 -37.243,37.243c0,1.315 0.095,2.607 0.229,3.887l-10.882,-0c-17.993,-0 -32.632,14.637 -32.632,32.632c-0,15.033 10.219,27.716 24.074,31.485l0,60.508c-13.855,3.77 -24.074,16.453 -24.074,31.486c-0,17.993 14.639,32.632 32.632,32.632l188.677,0c17.993,0 32.632,-14.639 32.632,-32.632c-0,-15.034 -10.22,-27.716 -24.075,-31.486l0,-60.508c13.855,-3.769 24.075,-16.452 24.075,-31.485c-0,-17.994 -14.638,-32.632 -32.632,-32.632l-10.882,-0c0.135,-1.279 0.228,-2.571 0.228,-3.887c0,-20.536 -16.707,-37.243 -37.243,-37.243l-10.615,0l0,-52.179c3.182,-1.402 6.266,-2.983 9.241,-4.732c6.61,1.735 13.515,2.629 20.559,2.629c29.587,0 58.948,-15.714 76.627,-41.011c14.198,-20.319 19.692,-45.012 15.074,-67.752Zm-68.116,-9.383c2.427,0.63 4.702,1.593 6.796,2.905c5.58,3.499 9.282,9.062 10.71,16.083c1.974,9.72 -0.703,20.742 -7.342,30.246c-3.731,5.338 -8.338,9.675 -13.336,12.866c2.054,-7.501 3.172,-15.384 3.172,-23.528l-0,-38.572Zm-156.808,-66.807c-0,-8.643 7.033,-15.676 15.677,-15.676l103.836,-0c8.644,-0 15.677,7.033 15.677,15.676l-0,105.379c-0,37.272 -30.324,67.595 -67.595,67.595c-37.272,-0 -67.595,-30.324 -67.595,-67.595l-0,-105.379Zm-18.448,128.898c-4.995,-3.192 -9.604,-7.522 -13.333,-12.857c-6.64,-9.504 -9.315,-20.527 -7.341,-30.247c1.427,-7.022 5.13,-12.583 10.707,-16.081c2.095,-1.312 4.371,-2.276 6.798,-2.905l-0,38.571c-0,8.14 1.117,16.02 3.169,23.519Zm-38.489,2.663c-10.825,-15.491 -15.055,-34.104 -11.61,-51.068c2.945,-14.493 11.266,-26.677 23.432,-34.305c7.205,-4.517 15.214,-7.163 23.497,-8.091l-0,15.485c-4.927,0.843 -9.577,2.564 -13.688,5.142c-8.539,5.353 -14.408,14.051 -16.528,24.488c-2.678,13.184 0.755,27.856 9.421,40.257c7.898,11.304 19.015,19.064 30.624,22.537c3.198,6.224 7.102,12.021 11.613,17.292c-21.91,-0.738 -43.496,-12.757 -56.761,-31.737Zm43.255,272.281l0,-58.215l162.556,0l0,58.215l-162.556,0Zm175.616,43.647l-188.676,-0c-6.074,-0 -11.014,-4.941 -11.014,-11.014c-0,-6.074 4.94,-11.015 11.014,-11.015l188.677,0c6.073,0 11.014,4.941 11.014,11.015c-0,6.072 -4.942,11.014 -11.015,11.014Zm11.015,-134.493c-0,6.074 -4.941,11.014 -11.014,11.014l-188.677,0c-6.074,0 -11.014,-4.94 -11.014,-11.014c-0,-6.074 4.94,-11.014 11.014,-11.014l188.677,-0c6.072,-0.001 11.014,4.94 11.014,11.014Zm-43.286,-36.519c0,1.344 -0.19,2.641 -0.513,3.887l-123.108,-0c-0.323,-1.245 -0.514,-2.543 -0.514,-3.887c0,-8.615 7.01,-15.625 15.625,-15.625l92.884,-0c8.616,-0 15.626,7.01 15.626,15.625Zm-47.858,-37.243l-28.418,-0l-0,-45.787c4.629,0.744 9.372,1.144 14.208,1.144c4.837,-0 9.579,-0.4 14.209,-1.144l-0,45.787l0.001,-0Zm110.324,-107.674c-13.265,18.981 -34.854,30.999 -56.764,31.739c4.512,-5.271 8.416,-11.069 11.615,-17.293c11.608,-3.474 22.726,-11.234 30.624,-22.536c8.664,-12.399 12.098,-27.073 9.422,-40.256c-2.12,-10.438 -7.991,-19.135 -16.53,-24.49c-4.11,-2.577 -8.759,-4.298 -13.686,-5.141l-0,-15.485c8.283,0.928 16.293,3.573 23.498,8.09c12.166,7.63 20.488,19.813 23.431,34.306c3.445,16.964 -0.786,35.577 -11.61,51.066Z" style="fill:#444;fill-rule:nonzero;"/><path d="M548.67,315.116c3.581,-0 6.486,-2.904 6.486,-6.485l-0,-13.8c-0,-3.581 -2.905,-6.485 -6.486,-6.485c-3.581,-0 -6.485,2.904 -6.485,6.485l0,13.8c0,3.581 2.904,6.485 6.485,6.485Z" style="fill:#444;fill-rule:nonzero;"/><path d="M575.164,287.461c3.582,0 6.486,-2.904 6.486,-6.485l-0,-13.8c-0,-3.581 -2.904,-6.485 -6.486,-6.485c-3.581,0 -6.485,2.904 -6.485,6.485l0,13.8c0,3.582 2.904,6.485 6.485,6.485Z" style="fill:#444;fill-rule:nonzero;"/></g><path d="M498.027,246.775c-5.969,-0 -10.809,-4.84 -10.809,-10.809l-0,-16.946c-0,-5.969 4.84,-10.809 10.809,-10.809c5.969,-0 10.809,4.839 10.809,10.809l-0,16.946c-0,5.97 -4.84,10.809 -10.809,10.809Z" style="fill:#a6a6a6;fill-rule:nonzero;"/><path d="M498.027,197.338c-5.969,0 -10.809,-4.84 -10.809,-10.809l-0,-2.578c-0,-5.969 4.84,-10.809 10.809,-10.809c5.969,0 10.809,4.84 10.809,10.809l-0,2.578c-0,5.969 -4.84,10.809 -10.809,10.809Z" style="fill:#a6a6a6;fill-rule:nonzero;"/></g></g><g transform="matrix(0.256,0,0,0.256,141.496,28.6244)"><path d="M915.896,3064.62c39.776,0 64.055,-19.113 75.936,-55.273c10.331,-37.193 23.762,-55.79 94.533,-96.599c75.936,-43.909 111.58,-96.6 111.58,-172.536c-0,-125.527 -102.798,-207.146 -259.32,-207.146c-117.262,-0 -203.53,44.425 -238.141,109.514c-10.848,19.629 -16.013,39.776 -16.013,61.988c-0.517,46.492 30.477,76.453 79.035,76.453c36.16,0 65.605,-17.047 80.586,-50.624c16.014,-37.71 43.909,-56.823 85.234,-56.823c46.492,-0 80.069,29.445 80.069,71.287c0,44.425 -18.08,66.638 -88.334,107.964c-56.306,32.028 -86.784,69.737 -86.784,126.044l-0,3.099c-0,49.075 32.027,82.652 81.619,82.652Zm2.582,237.624c53.724,0 97.633,-40.809 97.633,-92.983c-0,-51.658 -43.909,-92.467 -97.633,-92.467c-54.24,0 -97.632,40.809 -97.632,92.467c-0,52.174 43.392,92.983 97.632,92.983Z" style="fill:none;fill-rule:nonzero;stroke:#444;stroke-width:204.17px;stroke-linecap:butt;stroke-miterlimit:2;"/><path d="M1505.31,3064.62c39.776,0 64.055,-19.113 75.936,-55.273c10.332,-37.193 23.763,-55.79 94.533,-96.599c75.937,-43.909 111.58,-96.6 111.58,-172.536c0,-125.527 -102.798,-207.146 -259.32,-207.146c-117.262,-0 -203.53,44.425 -238.14,109.514c-10.848,19.629 -16.014,39.776 -16.014,61.988c-0.517,46.492 30.478,76.453 79.036,76.453c36.16,0 65.605,-17.047 80.585,-50.624c16.014,-37.71 43.909,-56.823 85.235,-56.823c46.492,-0 80.069,29.445 80.069,71.287c-0,44.425 -18.08,66.638 -88.334,107.964c-56.307,32.028 -86.785,69.737 -86.785,126.044l0,3.099c0,49.075 32.028,82.652 81.619,82.652Zm2.583,237.624c53.724,0 97.632,-40.809 97.632,-92.983c0,-51.658 -43.908,-92.467 -97.632,-92.467c-54.24,0 -97.633,40.809 -97.633,92.467c0,52.174 43.393,92.983 97.633,92.983Z" style="fill:none;fill-rule:nonzero;stroke:#444;stroke-width:204.17px;stroke-linecap:butt;stroke-miterlimit:2;"/><path d="M2094.72,3064.62c39.777,0 64.056,-19.113 75.937,-55.273c10.331,-37.193 23.762,-55.79 94.533,-96.599c75.936,-43.909 111.58,-96.6 111.58,-172.536c-0,-125.527 -102.799,-207.146 -259.32,-207.146c-117.263,-0 -203.53,44.425 -238.141,109.514c-10.848,19.629 -16.014,39.776 -16.014,61.988c-0.516,46.492 30.478,76.453 79.036,76.453c36.16,0 65.605,-17.047 80.586,-50.624c16.013,-37.71 43.908,-56.823 85.234,-56.823c46.492,-0 80.069,29.445 80.069,71.287c0,44.425 -18.08,66.638 -88.334,107.964c-56.306,32.028 -86.784,69.737 -86.784,126.044l-0,3.099c-0,49.075 32.027,82.652 81.618,82.652Zm2.583,237.624c53.724,0 97.633,-40.809 97.633,-92.983c-0,-51.658 -43.909,-92.467 -97.633,-92.467c-54.24,0 -97.632,40.809 -97.632,92.467c-0,52.174 43.392,92.983 97.632,92.983Z" style="fill:none;fill-rule:nonzero;stroke:#444;stroke-width:204.17px;stroke-linecap:butt;stroke-miterlimit:2;"/><g transform="matrix(1057.94,0,0,1057.94,646.761,3285.2)"><path d="M0.254,-0.208c0.038,-0 0.061,-0.019 0.072,-0.053c0.01,-0.035 0.023,-0.052 0.09,-0.091c0.071,-0.042 0.105,-0.091 0.105,-0.163c-0,-0.119 -0.097,-0.196 -0.245,-0.196c-0.111,0 -0.193,0.042 -0.225,0.104c-0.01,0.018 -0.015,0.037 -0.015,0.058c-0.001,0.044 0.028,0.072 0.074,0.072c0.035,0 0.062,-0.016 0.077,-0.047c0.015,-0.036 0.041,-0.054 0.08,-0.054c0.044,-0 0.076,0.028 0.076,0.067c-0,0.042 -0.017,0.063 -0.084,0.102c-0.053,0.031 -0.082,0.066 -0.082,0.119l0,0.003c0,0.047 0.031,0.079 0.077,0.079Zm0.003,0.224c0.051,0 0.092,-0.038 0.092,-0.088c0,-0.049 -0.041,-0.087 -0.092,-0.087c-0.051,-0 -0.092,0.038 -0.092,0.087c-0,0.05 0.041,0.088 0.092,0.088Z" style="fill:#c7c7c7;fill-rule:nonzero;"/></g><g transform="matrix(1057.94,0,0,1057.94,1236.17,3285.2)"><path d="M0.254,-0.208c0.038,-0 0.061,-0.019 0.072,-0.053c0.01,-0.035 0.023,-0.052 0.09,-0.091c0.071,-0.042 0.105,-0.091 0.105,-0.163c-0,-0.119 -0.097,-0.196 -0.245,-0.196c-0.111,0 -0.193,0.042 -0.225,0.104c-0.01,0.018 -0.015,0.037 -0.015,0.058c-0.001,0.044 0.028,0.072 0.074,0.072c0.035,0 0.062,-0.016 0.077,-0.047c0.015,-0.036 0.041,-0.054 0.08,-0.054c0.044,-0 0.076,0.028 0.076,0.067c-0,0.042 -0.017,0.063 -0.084,0.102c-0.053,0.031 -0.082,0.066 -0.082,0.119l0,0.003c0,0.047 0.031,0.079 0.077,0.079Zm0.003,0.224c0.051,0 0.092,-0.038 0.092,-0.088c0,-0.049 -0.041,-0.087 -0.092,-0.087c-0.051,-0 -0.092,0.038 -0.092,0.087c-0,0.05 0.041,0.088 0.092,0.088Z" style="fill:#c7c7c7;fill-rule:nonzero;"/></g><g transform="matrix(1057.94,0,0,1057.94,1825.58,3285.2)"><path d="M0.254,-0.208c0.038,-0 0.061,-0.019 0.072,-0.053c0.01,-0.035 0.023,-0.052 0.09,-0.091c0.071,-0.042 0.105,-0.091 0.105,-0.163c-0,-0.119 -0.097,-0.196 -0.245,-0.196c-0.111,0 -0.193,0.042 -0.225,0.104c-0.01,0.018 -0.015,0.037 -0.015,0.058c-0.001,0.044 0.028,0.072 0.074,0.072c0.035,0 0.062,-0.016 0.077,-0.047c0.015,-0.036 0.041,-0.054 0.08,-0.054c0.044,-0 0.076,0.028 0.076,0.067c-0,0.042 -0.017,0.063 -0.084,0.102c-0.053,0.031 -0.082,0.066 -0.082,0.119l0,0.003c0,0.047 0.031,0.079 0.077,0.079Zm0.003,0.224c0.051,0 0.092,-0.038 0.092,-0.088c0,-0.049 -0.041,-0.087 -0.092,-0.087c-0.051,-0 -0.092,0.038 -0.092,0.087c-0,0.05 0.041,0.088 0.092,0.088Z" style="fill:#c7c7c7;fill-rule:nonzero;"/></g></g></svg>