<?xml version="1.0" encoding="UTF-8" standalone="no"?>
<!DOCTYPE svg PUBLIC "-//W3C//DTD SVG 1.1//EN" "http://www.w3.org/Graphics/SVG/1.1/DTD/svg11.dtd">
<svg width="100%" height="100%" viewBox="0 0 512 512" version="1.1" xmlns="http://www.w3.org/2000/svg" xmlns:xlink="http://www.w3.org/1999/xlink" xml:space="preserve" xmlns:serif="http://www.serif.com/" style="fill-rule:evenodd;clip-rule:evenodd;stroke-linejoin:round;stroke-miterlimit:2;">
    <g>
        <g>
            <path d="M23.795,46.472L165.46,46.472C170.159,46.472 174.533,48.872 177.057,52.836L339.073,307.305L166.778,311.995L12.176,67.569C6.386,58.415 12.963,46.472 23.795,46.472Z" style="fill:rgb(255,165,133);fill-rule:nonzero;"/>
            <path d="M214.898,291.277L267.753,291.277L110.559,46.186L57.704,46.186L214.898,291.277Z" style="fill:rgb(178,231,241);fill-rule:nonzero;"/>
            <path d="M15.003,59.988C12.478,56.225 12.874,52.025 15.15,49.51C10.065,53.65 8.192,61.27 12.176,67.569L121.985,241.177L15.003,59.988Z" style="fill:rgb(203,44,255);fill-rule:nonzero;"/>
            <path d="M177.057,52.837C174.533,48.873 170.159,46.472 165.46,46.472L23.795,46.472C21.922,46.472 20.181,46.836 18.604,47.474C19.398,47.279 20.257,47.195 21.186,47.27L109.459,54.365C112.387,54.6 115.233,56.333 117.004,58.958L179.921,152.638C205.279,190.395 178.23,241.162 132.748,241.175L121.986,241.178L166.779,311.996L339.074,307.305L177.057,52.837Z" style="fill:rgb(239,124,133);fill-rule:nonzero;"/>
            <g>
                <path d="M185.907,164.129C194.342,185.941 187.983,209.776 172.437,225.072L214.899,291.277L267.754,291.277L186.205,164.129L185.907,164.129Z" style="fill:rgb(167,173,241);fill-rule:nonzero;"/>
            </g>
            <path d="M488.204,46.472L351.017,46.472C346.397,46.472 342.085,48.793 339.541,52.65L168.463,311.996L344.298,311.996L499.803,67.6C505.627,58.448 499.052,46.472 488.204,46.472Z" style="fill:rgb(255,165,133);fill-rule:nonzero;"/>
            <path d="M488.204,46.472L462.691,46.472L300.102,270.914L179.354,295.484L168.463,311.995L344.298,311.995L499.803,67.6C505.627,58.448 499.052,46.472 488.204,46.472Z" style="fill:rgb(239,124,133);fill-rule:nonzero;"/>
            <path d="M297.811,291.277L244.956,291.277L402.15,46.186L455.005,46.186L297.811,291.277Z" style="fill:rgb(178,231,241);fill-rule:nonzero;"/>
            <g transform="matrix(0.707,-0.707,0.707,0.707,-169.916,282.492)">
                <circle cx="256.039" cy="346.353" r="119.175" style="fill:rgb(255,226,102);"/>
            </g>
            <path d="M256.039,227.178C250.736,227.178 245.516,227.529 240.396,228.2C283.613,234.755 316.734,272.065 316.734,317.113C316.734,366.783 276.469,407.048 226.799,407.048C181.752,407.048 144.441,373.928 137.887,330.711C137.216,335.831 136.865,341.051 136.865,346.353C136.865,412.172 190.221,465.528 256.04,465.528C321.858,465.528 375.215,412.172 375.215,346.353C375.214,280.535 321.858,227.178 256.039,227.178Z" style="fill:rgb(239,170,102);fill-rule:nonzero;"/>
        </g>
        <g>
            <path d="M509.063,48.769C504.883,41.155 496.891,36.425 488.205,36.425L351.017,36.425C342.996,36.425 335.569,40.423 331.153,47.118L256.948,159.61L185.532,47.44C181.14,40.543 173.637,36.424 165.46,36.424L23.794,36.424C15.121,36.424 7.135,41.144 2.951,48.741C-1.233,56.338 -0.951,65.611 3.685,72.94L140.3,288.93C131.677,306.239 126.817,325.738 126.817,346.353C126.817,417.606 184.785,475.576 256.039,475.576C327.292,475.576 385.262,417.607 385.262,346.353C385.262,325.424 380.255,305.645 371.385,288.141L508.28,72.994C512.943,65.666 513.243,56.383 509.063,48.769ZM296.243,223.542C296.243,223.542 402.858,57.282 403.529,56.519L442.649,56.519L326.197,237.885C316.955,231.887 306.903,227.041 296.243,223.542ZM347.927,58.182C348.614,57.14 349.769,56.519 351.017,56.519L389.159,56.519L284.061,220.2C275.035,218.196 265.659,217.131 256.039,217.131C251.508,217.131 247.031,217.368 242.618,217.825L347.927,58.182ZM187.536,236.832L71.759,56.519L110.026,56.519C110.697,57.282 216.06,221.593 216.06,221.593L214.481,223.987C204.952,227.232 195.924,231.567 187.536,236.832ZM168.581,58.232L244.826,177.985L223.32,210.587L124.397,56.519L165.46,56.519C166.732,56.519 167.899,57.159 168.581,58.232ZM20.667,62.197C19.649,60.59 20.159,59.15 20.552,58.434C20.947,57.718 21.891,56.518 23.794,56.518L57.449,56.518C58.086,57.283 177.627,243.714 177.627,243.714C167.902,251.161 159.262,259.954 151.989,269.817L20.667,62.197ZM256.039,455.481C195.866,455.481 146.911,406.526 146.911,346.353C146.911,286.18 195.866,237.226 256.039,237.226C316.213,237.226 365.168,286.181 365.168,346.353C365.168,406.527 316.213,455.481 256.039,455.481ZM491.327,62.207L359.629,269.186C352.846,260.104 344.898,251.942 336.009,244.919C336.009,244.919 456.392,57.208 456.96,56.519L488.204,56.519C490.109,56.519 491.054,57.722 491.448,58.439C491.842,59.156 492.35,60.599 491.327,62.207Z" style="fill:rgb(68,10,41);fill-rule:nonzero;"/>
            <path d="M256.039,424.18C213.126,424.18 178.213,389.267 178.213,346.353C178.213,303.44 213.126,268.527 256.039,268.527C298.952,268.527 333.865,303.44 333.865,346.353C333.865,389.267 298.952,424.18 256.039,424.18ZM256.039,280.583C219.773,280.583 190.269,310.087 190.269,346.353C190.269,382.619 219.773,412.123 256.039,412.123C292.305,412.123 321.809,382.619 321.809,346.353C321.809,310.087 292.305,280.583 256.039,280.583Z" style="fill:rgb(68,10,41);fill-rule:nonzero;"/>
            <path d="M294.263,356.543C290.934,356.543 288.235,353.844 288.235,350.515L288.235,337.687C288.235,334.358 290.934,331.659 294.263,331.659C297.592,331.659 300.291,334.358 300.291,337.687L300.291,350.515C300.292,353.844 297.592,356.543 294.263,356.543Z" style="fill:rgb(68,10,41);fill-rule:nonzero;"/>
            <path d="M271.424,393.503C268.095,393.503 265.396,390.804 265.396,387.475L265.396,374.647C265.396,371.318 268.095,368.619 271.424,368.619C274.753,368.619 277.452,371.318 277.452,374.647L277.452,387.475C277.452,390.803 274.753,393.503 271.424,393.503Z" style="fill:rgb(68,10,41);fill-rule:nonzero;"/>
        </g>
        <g>
            <g transform="matrix(0.23,-0.973,0.973,0.23,-337.817,397.476)">
                <circle cx="82.208" cy="412.164" r="18.634" style="fill:rgb(255,226,102);"/>
            </g>
            <path d="M438.992,311.996C438.992,316.354 435.459,319.887 431.101,319.887C426.743,319.887 423.21,316.354 423.21,311.996C423.21,307.638 426.743,304.105 431.101,304.105C435.459,304.104 438.992,307.638 438.992,311.996Z" style="fill:rgb(255,226,102);fill-rule:nonzero;"/>
            <g>
                <path d="M68.481,297.7L74.811,315.5C75.082,316.262 75.618,316.866 76.296,317.171L92.111,324.296C94.345,325.303 94.345,328.862 92.111,329.869L76.296,336.994C75.619,337.299 75.082,337.903 74.811,338.665L68.481,356.465C67.587,358.98 64.424,358.98 63.53,356.465L57.2,338.665C56.929,337.903 56.393,337.299 55.715,336.994L39.9,329.869C37.666,328.862 37.666,325.303 39.9,324.296L55.714,317.171C56.391,316.866 56.928,316.262 57.199,315.5L63.529,297.7C64.423,295.185 67.586,295.185 68.481,297.7Z" style="fill:rgb(254,242,168);fill-rule:nonzero;"/>
                <path d="M456.068,372.553L464.766,396.549C465.139,397.576 465.876,398.391 466.806,398.802L488.537,408.407C491.607,409.764 491.607,414.563 488.537,415.92L466.806,425.525C465.876,425.936 465.138,426.75 464.766,427.778L456.068,451.774C454.839,455.164 450.493,455.164 449.264,451.774L440.566,427.778C440.194,426.751 439.456,425.937 438.526,425.525L416.795,415.92C413.725,414.563 413.725,409.764 416.795,408.407L438.526,398.802C439.457,398.391 440.194,397.577 440.566,396.549L449.264,372.553C450.494,369.163 454.839,369.163 456.068,372.553Z" style="fill:rgb(254,242,168);fill-rule:nonzero;"/>
            </g>
        </g>
    </g>
</svg>
