<?xml version="1.0" encoding="UTF-8" standalone="no"?><!DOCTYPE svg PUBLIC "-//W3C//DTD SVG 1.1//EN" "http://www.w3.org/Graphics/SVG/1.1/DTD/svg11.dtd"><svg width="100%" height="100%" viewBox="0 0 1067 1067" version="1.1" xmlns="http://www.w3.org/2000/svg" xmlns:xlink="http://www.w3.org/1999/xlink" xml:space="preserve" xmlns:serif="http://www.serif.com/" style="fill-rule:evenodd;clip-rule:evenodd;stroke-linecap:round;stroke-linejoin:round;stroke-miterlimit:1.5;"><circle cx="533.333" cy="533.333" r="490.88" style="fill:#ccf3e2;stroke:#3c122c;stroke-width:38.4px;"/><g transform="matrix(0.256,0,0,0.256,133.389,27.9107)"><path d="M1526.23,3303.79c187,-0 307.361,-89.884 307.361,-229.359c0,-100.732 -71.287,-164.27 -183.9,-175.635l0,-3.616c85.235,-17.047 154.456,-78.003 154.456,-173.569c-0,-126.56 -116.746,-200.43 -278.95,-200.43c-146.707,-0 -234.524,70.254 -263.969,142.574c-6.715,16.014 -9.298,28.928 -9.298,44.942c-0,43.392 26.345,74.387 78.002,74.387c41.843,-0 64.572,-14.981 85.751,-54.757c22.73,-44.426 57.34,-66.122 110.547,-66.122c64.572,0 101.765,33.578 101.765,86.268c0,54.24 -44.425,89.884 -117.262,89.884l-17.047,-0c-44.942,-0 -68.704,26.345 -68.704,64.055c-0,38.743 23.762,64.572 68.704,64.572l18.08,-0c82.652,-0 129.144,33.577 129.144,96.082c-0,53.724 -45.459,91.951 -110.547,91.951c-70.771,-0 -104.348,-27.379 -131.726,-73.87c-18.597,-29.962 -41.843,-42.876 -78.003,-42.876c-51.657,-0 -83.168,29.961 -83.168,77.486c-0,13.431 3.099,28.928 9.298,43.392c29.961,72.32 120.878,144.641 279.466,144.641Z" style="fill:none;fill-rule:nonzero;stroke:#3c122c;stroke-width:204.17px;stroke-linecap:butt;stroke-miterlimit:2;"/><g transform="matrix(1057.94,0,0,1057.94,1187.35,3285.2)"><path d="M0.32,0.018c0.177,-0 0.291,-0.085 0.291,-0.217c-0,-0.095 -0.068,-0.155 -0.174,-0.166l0,-0.004c0.081,-0.016 0.146,-0.073 0.146,-0.164c0,-0.119 -0.11,-0.189 -0.264,-0.189c-0.138,-0 -0.221,0.066 -0.249,0.135c-0.007,0.015 -0.009,0.027 -0.009,0.042c0,0.041 0.025,0.07 0.074,0.07c0.039,0 0.061,-0.014 0.081,-0.051c0.021,-0.042 0.054,-0.063 0.104,-0.063c0.061,0 0.097,0.032 0.097,0.082c-0,0.051 -0.042,0.085 -0.111,0.085l-0.016,-0c-0.043,-0 -0.065,0.025 -0.065,0.06c-0,0.037 0.022,0.061 0.065,0.061l0.017,0c0.078,0 0.122,0.032 0.122,0.091c-0,0.051 -0.043,0.087 -0.105,0.087c-0.067,-0 -0.098,-0.026 -0.124,-0.07c-0.018,-0.028 -0.04,-0.04 -0.074,-0.04c-0.049,-0 -0.079,0.028 -0.079,0.073c0,0.013 0.003,0.027 0.009,0.041c0.028,0.068 0.114,0.137 0.264,0.137Z" style="fill:#ccf3e2;fill-rule:nonzero;"/></g></g><clipPath id="_clip1"><rect x="262.5" y="86.536" width="541.667" height="541.667"/></clipPath><g clip-path="url(#_clip1)"><g><g><path d="M586.265,171.639c35.694,-35.694 93.652,-35.694 129.346,-0c35.694,35.694 35.694,93.651 -0,129.345c-35.694,35.694 -93.652,35.694 -129.346,0c-35.694,-35.694 -35.694,-93.651 0,-129.345Z" style="fill:#c59b8c;"/><circle cx="650.996" cy="236.286" r="71.862" style="fill:#a1e8c3;"/><path d="M692.729,177.781c8.408,11.765 13.357,26.171 13.357,41.733c-0,39.689 -32.174,71.863 -71.862,71.863c-15.563,0 -29.969,-4.949 -41.735,-13.356c13.033,18.237 34.38,30.128 58.507,30.128c39.688,-0 71.861,-32.174 71.861,-71.862c0,-24.127 -11.889,-45.474 -30.128,-58.506Z" style="fill:#85adc2;fill-rule:nonzero;"/><path d="M619.95,617.591l-171.985,-0c-15.924,-0 -28.975,-14.323 -29.494,-32.365l-10.202,-355.569l249.337,-0l-8.157,355.352c-0.416,18.129 -13.501,32.582 -29.499,32.582Z" style="fill:#fff;fill-rule:nonzero;"/><path d="M539.098,557.078c1.315,0 2.65,-0.169 3.981,-0.521c8.282,-2.193 13.218,-10.684 11.025,-18.967l-114.7,-433.135c-2.192,-8.283 -10.684,-13.219 -18.967,-11.025c-8.281,2.193 -13.218,10.684 -11.025,18.966l114.699,433.138c1.841,6.95 8.12,11.544 14.987,11.544Z" style="fill:#e8a284;fill-rule:nonzero;"/><path d="M594.001,572.887l-118.172,0c-15.919,0 -28.967,-14.694 -29.484,-33.204l-7.59,-271.459l190.801,0l-6.066,271.235c-0.416,18.601 -13.495,33.428 -29.489,33.428Z" style="fill:#ccf3e2;fill-rule:nonzero;"/><path d="M587.991,229.656l-6.536,296.834c-0.333,15.145 -10.819,27.217 -23.638,27.217l-117.739,-0c-11.38,-0 -20.924,-9.52 -23.15,-22.27l1.543,53.789c0.518,18.042 13.57,32.365 29.494,32.365l171.985,-0c15.998,-0 29.083,-14.453 29.5,-32.583l8.157,-355.352l-69.616,-0Z" style="fill:#e1bdfc;fill-rule:nonzero;"/><path d="M581.455,526.49c-0.333,15.145 -10.819,27.217 -23.638,27.217l-108.46,-0c4.817,11.383 14.881,19.18 26.473,19.18l118.172,0c15.993,0 29.073,-14.827 29.489,-33.428l6.066,-271.235l-42.416,0l-5.686,258.266Z" style="fill:#b1b6e1;fill-rule:nonzero;"/><path d="M321.827,159.665l8.706,24.479c0.373,1.048 1.111,1.879 2.042,2.298l21.748,9.799c3.072,1.384 3.072,6.28 0,7.663l-21.748,9.799c-0.931,0.419 -1.669,1.25 -2.042,2.298l-8.706,24.478c-1.23,3.459 -5.579,3.459 -6.81,0l-8.705,-24.478c-0.373,-1.048 -1.111,-1.879 -2.042,-2.298l-21.748,-9.799c-3.073,-1.385 -3.073,-6.28 -0,-7.663l21.748,-9.799c0.931,-0.42 1.669,-1.251 2.042,-2.298l8.705,-24.479c1.232,-3.458 5.581,-3.458 6.81,0Z" style="fill:#efc5b4;fill-rule:nonzero;"/><path d="M577.378,108.679c-0,10.498 -8.512,19.009 -19.01,19.009c-10.497,-0 -19.009,-8.51 -19.009,-19.009c0,-10.499 8.512,-19.009 19.009,-19.009c10.5,-0 19.01,8.51 19.01,19.009Z" style="fill:#e8a284;fill-rule:nonzero;"/><path d="M770.039,338.498c0.724,-4.467 4.939,-7.506 9.406,-6.782c4.467,0.724 7.505,4.939 6.781,9.406c-0.724,4.467 -4.938,7.505 -9.405,6.781c-4.467,-0.724 -7.506,-4.939 -6.782,-9.405Z" style="fill:#e8a284;"/><path d="M734.272,380.347l6.457,18.157c0.276,0.778 0.824,1.394 1.515,1.705l16.133,7.268c2.279,1.027 2.279,4.658 -0,5.685l-16.133,7.268c-0.691,0.311 -1.238,0.927 -1.515,1.705l-6.457,18.157c-0.912,2.566 -4.139,2.566 -5.051,0l-6.458,-18.157c-0.276,-0.778 -0.824,-1.394 -1.515,-1.705l-16.132,-7.268c-2.279,-1.027 -2.279,-4.658 -0,-5.685l16.132,-7.268c0.691,-0.311 1.238,-0.927 1.515,-1.705l6.458,-18.157c0.912,-2.566 4.139,-2.566 5.051,-0Z" style="fill:#efc5b4;fill-rule:nonzero;"/></g><g><g><path d="M729.817,294.149c11.94,-16.218 19.02,-36.223 19.02,-57.863c0,-53.951 -43.892,-97.843 -97.841,-97.843c-48.068,0 -88.143,34.844 -96.313,80.6l-78.347,0l-30.776,-116.219c-1.496,-5.65 -5.102,-10.379 -10.155,-13.317c-5.052,-2.936 -10.946,-3.729 -16.598,-2.233c-5.65,1.495 -10.378,5.102 -13.314,10.155c-2.938,5.052 -3.732,10.947 -2.235,16.596l27.809,105.017l-22.798,0c-2.868,0 -5.614,1.161 -7.611,3.218c-1.999,2.055 -3.079,4.833 -2.997,7.699l10.201,355.571c0.688,23.928 18.303,42.672 40.103,42.672l171.985,-0c21.939,-0 39.556,-18.867 40.109,-42.951l5.79,-252.282c14.498,-2.218 27.958,-7.616 39.639,-15.479l5.623,5.623c1.243,1.243 2.873,1.865 4.502,1.865c1.629,0 3.259,-0.622 4.503,-1.865c2.486,-2.487 2.486,-6.518 -0.001,-9.005l-4.472,-4.472c2.062,-1.818 4.042,-3.724 5.944,-5.707l4.635,4.634c1.243,1.243 2.873,1.866 4.502,1.866c1.63,-0 3.26,-0.623 4.502,-1.866c2.487,-2.487 2.487,-6.518 -0,-9.005l-5.409,-5.409Zm-314.249,-183.384c-0.625,-2.361 -0.293,-4.824 0.935,-6.936c1.228,-2.111 3.204,-3.619 5.565,-4.245c0.781,-0.207 1.571,-0.309 2.359,-0.309c1.593,-0 3.165,0.42 4.579,1.242c2.111,1.227 3.62,3.203 4.244,5.566l29.912,112.959l-18.92,0l-28.674,-108.277Zm206.259,162.851l-5.921,264.726c-0.336,15 -10.709,27.202 -23.124,27.202l-118.172,0c-12.331,0 -22.702,-12.119 -23.119,-27.015l-7.407,-264.913l177.743,0Zm-166.506,-12.735l-5.459,-20.613l18.92,-0l5.459,20.613l-18.92,-0Zm183.519,323.884c-0.283,12.249 -8.756,22.213 -18.891,22.213l-171.984,0c-10.064,0 -18.536,-9.895 -18.886,-22.056l-9.889,-344.652l17.497,0l5.459,20.613l-4.61,-0c-1.72,-0 -3.367,0.695 -4.565,1.929c-1.199,1.232 -1.849,2.898 -1.801,4.616l7.59,271.459c0.618,22.09 16.365,39.394 35.849,39.394l118.172,-0c19.609,-0 35.359,-17.418 35.855,-39.652l6.067,-271.235c0.038,-1.713 -0.614,-3.37 -1.812,-4.595c-1.198,-1.225 -2.839,-1.916 -4.552,-1.916l-140.925,-0l-5.458,-20.613l164.791,0l-7.907,344.495Zm-5.756,-365.722c0.195,-0.154 0.399,-0.293 0.579,-0.474c2.486,-2.487 2.486,-6.517 -0.001,-9.005l-11.452,-11.451c-2.485,-2.486 -6.518,-2.486 -9.005,0c-2.486,2.487 -2.486,6.518 0.001,9.005l11.452,11.451c0.181,0.181 0.384,0.32 0.58,0.474l-37.405,0c7.588,-27.772 33.018,-48.251 63.163,-48.251c36.114,-0 65.494,29.381 65.494,65.495c-0,30.73 -21.286,56.552 -49.881,63.575l0.843,-36.752l11.351,11.351c1.243,1.243 2.873,1.865 4.501,1.865c1.629,-0 3.26,-0.622 4.504,-1.865c2.486,-2.488 2.486,-6.518 -0.001,-9.006l-11.453,-11.451c-2.386,-2.388 -6.186,-2.457 -8.687,-0.259l0.547,-23.844c0.066,-2.856 -1.023,-5.619 -3.021,-7.66c-1.996,-2.043 -4.732,-3.195 -7.589,-3.195l-24.52,-0l-0,-0.003Zm33.224,93.951c35.827,-7.14 62.917,-38.813 62.917,-76.707c0,-43.136 -35.094,-78.23 -78.229,-78.23c-37.21,0 -68.41,26.123 -76.287,60.988l-7.021,-0c7.996,-38.685 42.289,-67.865 83.307,-67.865c46.928,-0 85.107,38.179 85.107,85.108c-0,41.756 -30.234,76.56 -69.956,83.73l0.162,-7.024Z" style="fill:#3c122c;fill-rule:nonzero;"/><path d="M675.137,235.275c-0,3.517 2.851,6.368 6.368,6.368l16.196,0c3.516,0 6.367,-2.851 6.367,-6.368c0,-3.516 -2.851,-6.367 -6.367,-6.367l-16.196,-0c-3.517,-0 -6.368,2.851 -6.368,6.367Z" style="fill:#3c122c;fill-rule:nonzero;"/><path d="M651.266,182.573c-3.516,-0 -6.367,2.851 -6.367,6.368l-0,16.195c-0,3.516 2.851,6.367 6.367,6.367c3.517,0 6.368,-2.851 6.368,-6.367l0,-16.196c0,-3.516 -2.851,-6.367 -6.368,-6.367Z" style="fill:#3c122c;fill-rule:nonzero;"/><path d="M671.854,220.435c1.629,-0 3.26,-0.622 4.502,-1.866l11.452,-11.451c2.487,-2.487 2.487,-6.518 0.001,-9.005c-2.486,-2.485 -6.519,-2.487 -9.005,0l-11.453,11.451c-2.487,2.488 -2.487,6.518 -0.001,9.005c1.244,1.244 2.874,1.866 4.504,1.866Z" style="fill:#3c122c;fill-rule:nonzero;"/><path d="M591.529,341.563c-3.517,-0 -6.368,-2.851 -6.368,-6.368l-0,-11.678c-0,-3.516 2.851,-6.367 6.368,-6.367c3.516,-0 6.367,2.851 6.367,6.367l0,11.678c0,3.517 -2.851,6.368 -6.367,6.368Z" style="fill:#3c122c;fill-rule:nonzero;"/><path d="M548.897,387.471c-3.517,0 -6.368,-2.851 -6.368,-6.368l-0,-11.677c-0,-3.517 2.851,-6.368 6.368,-6.368c3.516,0 6.367,2.851 6.367,6.368l0,11.677c0,3.517 -2.851,6.368 -6.367,6.368Z" style="fill:#3c122c;fill-rule:nonzero;"/><path d="M578.107,452.03c-3.517,-0 -6.368,-2.851 -6.368,-6.368l-0,-11.677c-0,-3.517 2.851,-6.368 6.368,-6.368c3.516,-0 6.367,2.851 6.367,6.368l0,11.677c0,3.517 -2.851,6.368 -6.367,6.368Z" style="fill:#3c122c;fill-rule:nonzero;"/><path d="M493.127,433.146c-3.516,-0 -6.367,-2.851 -6.367,-6.368l-0,-11.678c-0,-3.516 2.851,-6.367 6.367,-6.367c3.517,-0 6.368,2.851 6.368,6.367l0,11.678c0,3.517 -2.851,6.368 -6.368,6.368Z" style="fill:#3c122c;fill-rule:nonzero;"/><path d="M534.83,477.996c-3.516,0 -6.367,-2.851 -6.367,-6.368l-0,-11.677c-0,-3.517 2.851,-6.368 6.367,-6.368c3.517,0 6.368,2.851 6.368,6.368l0,11.677c0,3.517 -2.851,6.368 -6.368,6.368Z" style="fill:#3c122c;fill-rule:nonzero;"/><path d="M502.568,529.928c-3.516,0 -6.367,-2.851 -6.367,-6.367l-0,-11.678c-0,-3.517 2.851,-6.368 6.367,-6.368c3.517,0 6.368,2.851 6.368,6.368l0,11.678c0,3.516 -2.851,6.367 -6.368,6.367Z" style="fill:#3c122c;fill-rule:nonzero;"/><path d="M578.894,533.469c-3.517,0 -6.368,-2.851 -6.368,-6.367l-0,-11.678c-0,-3.517 2.851,-6.368 6.368,-6.368c3.516,0 6.367,2.851 6.367,6.368l0,11.678c0,3.516 -2.851,6.367 -6.367,6.367Z" style="fill:#3c122c;fill-rule:nonzero;"/></g><path d="M475.8,393.822c-5.822,-0 -10.563,-4.696 -10.61,-10.529l-0.313,-39.563c-0.045,-5.861 4.668,-10.65 10.529,-10.695c0.027,-0.001 0.058,-0.001 0.085,-0.001c5.823,-0 10.564,4.696 10.61,10.528l0.314,39.563c0.045,5.861 -4.668,10.65 -10.529,10.696c-0.028,0.001 -0.058,0.001 -0.086,0.001Z" style="fill:#fff;fill-rule:nonzero;"/><path d="M474.594,321.545c-5.778,0 -10.51,-4.634 -10.608,-10.435l-0.161,-9.637c-0.097,-5.86 4.575,-10.69 10.435,-10.788c0.06,-0.001 0.122,-0.001 0.181,-0.001c5.778,0 10.51,4.635 10.608,10.436l0.161,9.637c0.097,5.859 -4.575,10.69 -10.435,10.787c-0.06,0.001 -0.122,0.001 -0.181,0.001Z" style="fill:#fff;fill-rule:nonzero;"/></g></g></g></svg>