<svg id="Capa_1" enable-background="new 0 0 512 512" height="512" viewBox="0 0 512 512" width="512" xmlns="http://www.w3.org/2000/svg"><path d="m382.297 361.447h91.168c18.99 0 34.44-15.45 34.44-34.44v-106.273c0-18.99-15.45-34.44-34.44-34.44h-42.489c0-11.662 0-40.429 0-52.152 0-63.505-62.604-108.334-122.489-88.206-45.267-61.318-136.74-61.177-181.903 0-59.846-20.115-122.489 24.643-122.489 88.206v91.601c0 57.013 22.199 110.612 62.514 150.927 12.9 12.9 27.159 23.941 42.45 32.994h-70.524c-18.991 0-34.44 15.449-34.44 34.44v33.456c0 18.991 15.449 34.44 34.44 34.44h434.93c18.991 0 34.44-15.449 34.44-34.44v-33.456c0-18.991-15.449-34.44-34.44-34.44h-147.453c21.237-12.573 40.251-28.845 56.285-48.217zm48.679-135.704v-9.929h42.489c2.713 0 4.92 2.207 4.92 4.92v106.273c0 2.713-2.207 4.92-4.92 4.92h-70.681c18.391-31.96 28.192-68.319 28.192-106.184zm-305.386-148.299c7.006 3.533 15.557.954 19.454-5.865 32.032-56.039 112.938-56.062 144.983 0 3.897 6.819 12.438 9.397 19.454 5.865 40.59-20.497 89.117 7.515 91.857 52.831h-188.634c-8.148 0-14.76 6.603-14.76 14.76v121.712c0 10.184-8.285 18.47-18.47 18.47-10.184 0-18.47-8.285-18.47-18.47v-43.444c0-8.147-6.603-14.76-14.76-14.76-8.148 0-14.76 6.613-14.76 14.76 0 10.184-8.285 18.47-18.47 18.47s-18.47-8.285-18.47-18.47c0-35.916 0-40.506 0-78.268 0-8.157-6.603-14.76-14.76-14.76h-46.051c2.752-45.519 51.405-73.236 91.857-52.831zm347.875 361.74c2.716 0 4.92 2.204 4.92 4.92v33.456c0 2.716-2.204 4.92-4.92 4.92h-434.93c-2.716 0-4.92-2.204-4.92-4.92v-33.456c0-2.716 2.204-4.92 4.92-4.92zm-255.93-29.521c-101.412 0-183.92-82.509-183.92-183.92v-65.948h31.409v63.508c0 34.218 34.985 57.473 66.47 44.29.453 26.076 21.796 47.144 47.98 47.144 26.46 0 47.99-21.52 47.99-47.99v-106.952h173.992v65.948c0 101.412-82.509 183.92-183.921 183.92z"/></svg>