<?xml version="1.0" encoding="UTF-8" standalone="no"?>
<!DOCTYPE svg PUBLIC "-//W3C//DTD SVG 1.1//EN" "http://www.w3.org/Graphics/SVG/1.1/DTD/svg11.dtd">
<svg width="100%" height="100%" viewBox="0 0 511 512" version="1.1" xmlns="http://www.w3.org/2000/svg" xmlns:xlink="http://www.w3.org/1999/xlink" xml:space="preserve" xmlns:serif="http://www.serif.com/" style="fill-rule:evenodd;clip-rule:evenodd;stroke-linejoin:round;stroke-miterlimit:2;">
    <g transform="matrix(1,0,0,1,47,-1)">
        <path d="M396.676,46.254L371.785,46.254L364.871,12.727C363.348,5.352 356.777,0 349.25,0L67.863,0C60.332,0 53.762,5.352 52.242,12.727L45.324,46.254L20.434,46.254C9.441,46.254 0.5,55.195 0.5,66.188L0.5,99.145C0.5,110.137 9.441,119.082 20.434,119.082L30.215,119.082L35.758,158.031C34.078,159 32.547,160.238 31.246,161.734C27.918,165.574 26.418,170.66 27.133,175.695L64.137,435.684C65.156,442.855 70.543,448.543 77.348,450.223L82.613,487.238C84.625,501.355 96.891,512 111.148,512L305.965,512C320.223,512 332.488,501.355 334.5,487.238L339.766,450.223C346.57,448.543 351.957,442.855 352.977,435.684L389.98,175.695C390.695,170.66 389.195,165.574 385.867,161.734C384.566,160.238 383.035,159 381.352,158.031L386.898,119.082L396.68,119.082C407.672,119.082 416.613,110.137 416.613,99.145L416.613,66.188C416.609,55.195 407.668,46.254 396.676,46.254ZM375.113,173.578L338.109,433.566C337.934,434.801 336.863,435.727 335.621,435.727L263.773,435.727C259.629,435.727 256.27,439.086 256.27,443.234C256.27,447.383 259.629,450.742 263.773,450.742L324.527,450.742L319.633,485.125C318.668,491.887 312.793,496.988 305.961,496.988L111.148,496.988C104.316,496.988 98.441,491.887 97.477,485.125L92.586,450.742L228.84,450.742C232.988,450.742 236.348,447.383 236.348,443.234C236.348,439.086 232.988,435.727 228.84,435.727L81.488,435.727C80.246,435.727 79.176,434.801 79,433.566L41.996,173.578C41.855,172.59 42.305,171.898 42.586,171.574C42.855,171.266 43.441,170.773 44.355,170.727C44.457,170.723 44.555,170.715 44.66,170.707L372.449,170.707C372.551,170.715 372.652,170.723 372.754,170.727C373.668,170.773 374.254,171.266 374.523,171.574C374.805,171.898 375.254,172.59 375.113,173.578ZM45.383,119.082L371.73,119.082L366.52,155.695L50.594,155.695L45.383,119.082ZM401.598,99.145C401.598,101.859 399.391,104.066 396.676,104.066L20.434,104.066C17.723,104.066 15.512,101.859 15.512,99.145L15.512,66.188C15.512,63.473 17.723,61.266 20.434,61.266L87.609,61.266C91.754,61.266 95.113,57.906 95.113,53.758C95.113,49.613 91.754,46.254 87.609,46.254L60.656,46.254L66.945,15.762C67.035,15.328 67.422,15.012 67.863,15.012L349.25,15.012C349.691,15.012 350.078,15.328 350.168,15.762L356.457,46.254L122.543,46.254C118.395,46.254 115.035,49.613 115.035,53.758C115.035,57.906 118.395,61.266 122.543,61.266L396.676,61.266C399.391,61.266 401.598,63.473 401.598,66.188L401.598,99.145Z" style="fill-rule:nonzero;"/>
    </g>
    <g transform="matrix(1,0,0,1,47,-1)">
        <path d="M265.023,241.422C264.973,241.371 264.918,241.324 264.863,241.273C239.91,216.578 194.453,221.703 163.379,252.781C148.527,267.629 139.059,286.188 136.715,305.039C134.281,324.586 139.73,342.137 152.055,354.461C152.055,354.465 152.059,354.465 152.062,354.469C152.082,354.488 152.102,354.508 152.121,354.523C162.52,364.887 176.617,370.367 192.496,370.367C195.43,370.367 198.43,370.176 201.473,369.801C220.324,367.457 238.883,357.984 253.734,343.137C284.887,311.98 289.969,266.367 265.059,241.457C265.047,241.441 265.035,241.434 265.023,241.422ZM151.613,306.891C153.547,291.34 161.496,275.895 173.992,263.395C188.965,248.422 207.711,240.531 224.473,240.531C232.176,240.531 239.453,242.207 245.758,245.621C233.152,253.109 213.578,267.84 207.625,289.672C202.445,308.652 174.344,329.68 158.922,339.43C152.641,330.801 150.047,319.473 151.613,306.891ZM243.117,332.52C230.617,345.02 215.172,352.965 199.621,354.898C188.637,356.266 178.605,354.465 170.492,349.809C185.973,339.59 215.625,317.395 222.109,293.621C227.402,274.203 248.324,261.129 257.879,256.047C272.738,275.828 266.754,308.879 243.117,332.52Z" style="fill-rule:nonzero;"/>
    </g>
</svg>
