<?xml version="1.0" encoding="UTF-8" standalone="no"?><!DOCTYPE svg PUBLIC "-//W3C//DTD SVG 1.1//EN" "http://www.w3.org/Graphics/SVG/1.1/DTD/svg11.dtd"><svg width="100%" height="100%" viewBox="0 0 1067 1067" version="1.1" xmlns="http://www.w3.org/2000/svg" xmlns:xlink="http://www.w3.org/1999/xlink" xml:space="preserve" xmlns:serif="http://www.serif.com/" style="fill-rule:evenodd;clip-rule:evenodd;stroke-linecap:round;stroke-linejoin:round;stroke-miterlimit:1.5;"><circle cx="533.333" cy="533.333" r="490.88" style="fill:#8388ef;stroke:#440a29;stroke-width:38.4px;"/><g transform="matrix(0.256,0,0,0.256,146.657,-5.9428)"><path d="M374.665,3293.42c37.194,-0 63.301,-21.101 63.301,-65.446l-0,-238.896l34.332,0c25.034,0 44.703,-16.093 44.703,-45.419c0,-28.967 -19.669,-45.061 -44.703,-45.061l-37.909,0l0,-16.451c0,-22.888 11.802,-33.974 43.631,-35.762c7.868,-0.358 14.663,-1.431 20.385,-3.219c15.735,-4.291 23.603,-13.947 23.603,-30.398c0,-28.253 -26.107,-48.995 -93.341,-48.995c-78.678,0.715 -117.659,34.332 -117.659,112.295l-0,22.53l-13.948,0c-24.676,0 -44.703,16.094 -44.703,45.061c-0,29.326 20.027,45.419 44.703,45.419l13.948,0l-0,238.896c-0,44.345 26.107,65.446 63.657,65.446Z" style="fill:none;fill-rule:nonzero;stroke:#440a29;stroke-width:130.21px;stroke-linecap:butt;stroke-miterlimit:2;"/><path d="M740.519,3294.49c122.666,0 199.199,-74.029 199.199,-204.205c-0,-127.673 -77.606,-203.848 -199.199,-203.848c-120.878,0 -199.199,76.532 -199.199,203.848c0,129.819 76.532,204.205 199.199,204.205Zm-0,-92.983c-43.631,0 -70.453,-39.697 -70.453,-110.864c0,-70.096 27.537,-111.223 70.453,-111.223c43.273,0 70.81,41.127 70.81,111.223c0,71.167 -27.537,110.864 -70.81,110.864Z" style="fill:none;fill-rule:nonzero;stroke:#440a29;stroke-width:130.21px;stroke-linecap:butt;stroke-miterlimit:2;"/><path d="M1052.37,3293.42c38.624,-0 63.3,-22.889 63.3,-65.804l0,-151.992c0,-44.346 12.517,-63.658 56.148,-64.73c23.603,-1.073 41.485,-6.438 53.287,-17.167c11.801,-10.371 17.881,-25.391 17.881,-45.418c-0,-22.889 -6.437,-38.982 -18.954,-48.28c-8.226,-6.795 -19.67,-10.014 -33.975,-10.014c-38.981,0 -67.592,27.895 -77.248,80.467l-2.503,-0l-0,-19.312c-0,-41.128 -24.319,-63.658 -59.724,-63.658c-36.836,-0 -61.869,22.53 -61.869,63.3l-0,276.804c-0,42.915 24.676,65.804 63.657,65.804Z" style="fill:none;fill-rule:nonzero;stroke:#440a29;stroke-width:130.21px;stroke-linecap:butt;stroke-miterlimit:2;"/><path d="M1449.34,3431.82c133.038,-0 208.14,-60.082 208.14,-165.582l-0,-315.07c-0,-43.631 -26.107,-63.658 -62.585,-63.658c-36.478,-0 -64.016,20.027 -64.016,63.658l0,13.232l-2.503,-0c-17.524,-43.631 -60.082,-74.387 -116.587,-74.387c-99.42,0 -156.641,69.38 -156.641,191.331c0,118.017 59.009,189.901 154.853,189.901c57.221,-0 102.282,-28.253 117.66,-69.38l2.503,-0l0,62.227c0,43.988 -30.398,71.883 -82.612,71.883c-33.259,-0.357 -60.439,-15.378 -87.261,-37.908c-12.517,-10.729 -26.107,-15.378 -41.485,-15.378c-30.756,-0 -50.068,19.312 -50.068,44.346c0,10.371 2.146,21.1 8.226,31.828c23.961,40.412 85.473,72.599 172.376,72.957Zm8.583,-250.34c-45.776,0 -72.956,-35.048 -72.956,-97.99c0,-62.585 27.538,-101.209 72.956,-101.209c45.061,0 73.314,38.982 73.314,101.209c-0,62.942 -27.895,97.99 -73.314,97.99Z" style="fill:none;fill-rule:nonzero;stroke:#440a29;stroke-width:130.21px;stroke-linecap:butt;stroke-miterlimit:2;"/><path d="M1906.03,3294.49c122.666,0 199.199,-74.029 199.199,-204.205c-0,-127.673 -77.606,-203.848 -199.199,-203.848c-120.878,0 -199.199,76.532 -199.199,203.848c0,129.819 76.533,204.205 199.199,204.205Zm0,-92.983c-43.631,0 -70.453,-39.697 -70.453,-110.864c0,-70.096 27.538,-111.223 70.453,-111.223c43.273,0 70.81,41.127 70.81,111.223c0,71.167 -27.537,110.864 -70.81,110.864Z" style="fill:none;fill-rule:nonzero;stroke:#440a29;stroke-width:130.21px;stroke-linecap:butt;stroke-miterlimit:2;"/><path d="M2186.05,3180.77c-0,72.241 38.266,109.434 113.368,109.434l3.218,-0c48.995,-0 89.05,-18.597 89.05,-55.432c-0,-29.326 -16.451,-41.843 -44.704,-45.062l-7.868,-1.072c-17.881,-1.789 -26.106,-11.445 -26.106,-35.763l-0,-163.436l30.756,-0c28.252,-0 46.849,-18.597 46.849,-46.849c-0,-28.253 -18.597,-46.85 -46.849,-46.85l-30.756,0l-0,-31.113c-0,-41.127 -23.246,-65.804 -63.301,-65.804c-40.412,0 -63.657,24.677 -63.657,65.804l-0,31.113l-13.948,0c-28.252,0 -46.849,18.239 -46.849,46.85c-0,28.252 18.597,46.849 46.849,46.849l13.948,-0l-0,191.331Z" style="fill:none;fill-rule:nonzero;stroke:#440a29;stroke-width:130.21px;stroke-linecap:butt;stroke-miterlimit:2;"/><path d="M2591.24,3132.49c27.537,-0 44.346,-13.232 52.571,-38.266c7.153,-25.749 16.451,-38.624 65.446,-66.877c52.571,-30.398 77.248,-66.876 77.248,-119.447c-0,-86.904 -71.168,-143.409 -179.529,-143.409c-81.182,-0 -140.906,30.756 -164.867,75.817c-7.51,13.59 -11.086,27.537 -11.086,42.915c-0.358,32.187 21.1,52.929 54.717,52.929c25.034,0 45.419,-11.801 55.79,-35.047c11.086,-26.107 30.398,-39.339 59.008,-39.339c32.187,-0 55.433,20.384 55.433,49.352c-0,30.756 -12.517,46.134 -61.155,74.745c-38.981,22.172 -60.081,48.279 -60.081,87.261l-0,2.146c-0,33.974 22.173,57.22 56.505,57.22Zm1.788,164.509c37.193,-0 67.592,-28.253 67.592,-64.373c-0,-35.763 -30.399,-64.016 -67.592,-64.016c-37.551,0 -67.592,28.253 -67.592,64.016c0,36.12 30.041,64.373 67.592,64.373Z" style="fill:none;fill-rule:nonzero;stroke:#440a29;stroke-width:130.21px;stroke-linecap:butt;stroke-miterlimit:2;"/><g transform="matrix(732.422,0,0,732.422,248.78,3285.2)"><path d="M0.172,0.011c0.051,0 0.086,-0.029 0.086,-0.089l0,-0.326l0.047,-0c0.034,-0 0.061,-0.022 0.061,-0.062c0,-0.04 -0.027,-0.062 -0.061,-0.062l-0.052,0l0,-0.022c0,-0.032 0.017,-0.047 0.06,-0.049c0.011,-0.001 0.02,-0.002 0.028,-0.005c0.021,-0.005 0.032,-0.019 0.032,-0.041c0,-0.039 -0.036,-0.067 -0.127,-0.067c-0.108,0.001 -0.161,0.047 -0.161,0.153l-0,0.031l-0.019,0c-0.034,0 -0.061,0.022 -0.061,0.062c-0,0.04 0.027,0.062 0.061,0.062l0.019,-0l-0,0.326c-0,0.06 0.036,0.089 0.087,0.089Z" style="fill:#8bb6ef;fill-rule:nonzero;"/></g><g transform="matrix(732.422,0,0,732.422,522.723,3285.2)"><path d="M0.297,0.013c0.168,-0 0.272,-0.101 0.272,-0.279c0,-0.174 -0.106,-0.278 -0.272,-0.278c-0.165,-0 -0.272,0.104 -0.272,0.278c0,0.177 0.105,0.279 0.272,0.279Zm0,-0.127c-0.059,-0 -0.096,-0.054 -0.096,-0.152c0,-0.095 0.038,-0.151 0.096,-0.151c0.059,-0 0.097,0.056 0.097,0.151c0,0.098 -0.038,0.152 -0.097,0.152Z" style="fill:#8bb6ef;fill-rule:nonzero;"/></g><g transform="matrix(732.422,0,0,732.422,958.314,3285.2)"><path d="M0.128,0.011c0.053,0 0.087,-0.031 0.087,-0.09l-0,-0.207c-0,-0.061 0.017,-0.087 0.077,-0.089c0.032,-0.001 0.056,-0.008 0.072,-0.023c0.016,-0.014 0.025,-0.035 0.025,-0.062c-0,-0.031 -0.009,-0.053 -0.026,-0.066c-0.011,-0.009 -0.027,-0.014 -0.047,-0.014c-0.053,0 -0.092,0.039 -0.105,0.11l-0.003,0l-0,-0.026c-0,-0.056 -0.034,-0.087 -0.082,-0.087c-0.05,0 -0.084,0.031 -0.084,0.086l-0,0.378c-0,0.059 0.033,0.09 0.086,0.09Z" style="fill:#8bb6ef;fill-rule:nonzero;"/></g><g transform="matrix(732.422,0,0,732.422,1236.55,3285.2)"><path d="M0.291,0.2c0.181,0 0.284,-0.082 0.284,-0.226l-0,-0.43c-0,-0.06 -0.036,-0.087 -0.086,-0.087c-0.05,0 -0.087,0.027 -0.087,0.087l-0,0.018l-0.004,0c-0.023,-0.06 -0.082,-0.102 -0.159,-0.102c-0.135,0 -0.214,0.095 -0.214,0.262c0,0.161 0.081,0.259 0.212,0.259c0.078,-0 0.139,-0.039 0.16,-0.095l0.004,0l-0,0.085c-0,0.06 -0.042,0.098 -0.113,0.098c-0.045,-0 -0.082,-0.021 -0.119,-0.051c-0.017,-0.015 -0.036,-0.021 -0.057,-0.021c-0.042,-0 -0.068,0.026 -0.068,0.06c-0,0.014 0.003,0.029 0.011,0.044c0.033,0.055 0.117,0.099 0.236,0.099Zm0.011,-0.342c-0.062,0 -0.099,-0.047 -0.099,-0.133c-0,-0.086 0.037,-0.139 0.099,-0.139c0.062,0 0.1,0.054 0.1,0.139c0,0.086 -0.038,0.133 -0.1,0.133Z" style="fill:#8bb6ef;fill-rule:nonzero;"/></g><g transform="matrix(732.422,0,0,732.422,1688.23,3285.2)"><path d="M0.297,0.013c0.168,-0 0.272,-0.101 0.272,-0.279c0,-0.174 -0.106,-0.278 -0.272,-0.278c-0.165,-0 -0.272,0.104 -0.272,0.278c0,0.177 0.105,0.279 0.272,0.279Zm0,-0.127c-0.059,-0 -0.096,-0.054 -0.096,-0.152c0,-0.095 0.038,-0.151 0.096,-0.151c0.059,-0 0.097,0.056 0.097,0.151c0,0.098 -0.038,0.152 -0.097,0.152Z" style="fill:#8bb6ef;fill-rule:nonzero;"/></g><g transform="matrix(732.422,0,0,732.422,2123.82,3285.2)"><path d="M0.085,-0.143c-0,0.099 0.052,0.15 0.155,0.15l0.004,-0c0.067,-0 0.122,-0.026 0.122,-0.076c-0,-0.04 -0.023,-0.057 -0.061,-0.061l-0.011,-0.002c-0.024,-0.002 -0.036,-0.015 -0.036,-0.049l0,-0.223l0.042,0c0.039,0 0.064,-0.025 0.064,-0.064c0,-0.038 -0.025,-0.064 -0.064,-0.064l-0.042,0l0,-0.042c0,-0.056 -0.031,-0.09 -0.086,-0.09c-0.055,-0 -0.087,0.034 -0.087,0.09l-0,0.042l-0.019,0c-0.039,0 -0.064,0.025 -0.064,0.064c-0,0.039 0.025,0.064 0.064,0.064l0.019,0l-0,0.261Z" style="fill:#8bb6ef;fill-rule:nonzero;"/></g><g transform="matrix(732.422,0,0,732.422,2404.92,3285.2)"><path d="M0.254,-0.208c0.038,-0 0.061,-0.019 0.072,-0.053c0.01,-0.035 0.023,-0.052 0.09,-0.091c0.071,-0.042 0.105,-0.091 0.105,-0.163c-0,-0.119 -0.097,-0.196 -0.245,-0.196c-0.111,0 -0.193,0.042 -0.225,0.104c-0.01,0.018 -0.015,0.037 -0.015,0.058c-0.001,0.044 0.028,0.072 0.074,0.072c0.035,0 0.062,-0.016 0.077,-0.047c0.015,-0.036 0.041,-0.054 0.08,-0.054c0.044,-0 0.076,0.028 0.076,0.067c-0,0.042 -0.017,0.063 -0.084,0.102c-0.053,0.031 -0.082,0.066 -0.082,0.119l0,0.003c0,0.047 0.031,0.079 0.077,0.079Zm0.003,0.224c0.051,0 0.092,-0.038 0.092,-0.088c0,-0.049 -0.041,-0.087 -0.092,-0.087c-0.051,-0 -0.092,0.038 -0.092,0.087c-0,0.05 0.041,0.088 0.092,0.088Z" style="fill:#8bb6ef;fill-rule:nonzero;"/></g></g><clipPath id="_clip1"><rect x="262.5" y="117.43" width="541.667" height="541.667"/></clipPath><g clip-path="url(#_clip1)"><g><g><g><path d="M381.519,300.084l-29.481,0c-14.02,0 -25.384,-11.365 -25.384,-25.384c-0,-14.02 11.365,-25.385 25.384,-25.385l29.481,0c14.019,0 25.384,11.366 25.384,25.385c0.001,14.019 -11.365,25.384 -25.384,25.384Z" style="fill:#ffe266;fill-rule:nonzero;"/><path d="M381.519,626.295l-29.481,0c-14.02,0 -25.384,-11.365 -25.384,-25.384c-0,-14.02 11.365,-25.384 25.384,-25.384l29.481,-0c14.019,-0 25.384,11.365 25.384,25.384c0.001,14.019 -11.365,25.384 -25.384,25.384Z" style="fill:#ffe266;fill-rule:nonzero;"/><path d="M381.519,410.399l-29.481,-0c-14.02,-0 -25.384,-11.366 -25.384,-25.384c-0,-14.02 11.365,-25.385 25.384,-25.385l29.481,0c14.019,0 25.384,11.366 25.384,25.385c0.001,14.018 -11.365,25.384 -25.384,25.384Z" style="fill:#ffe266;fill-rule:nonzero;"/><path d="M381.519,520.714l-29.481,-0c-14.02,-0 -25.384,-11.366 -25.384,-25.385c-0,-14.019 11.365,-25.384 25.384,-25.384l29.481,0c14.019,0 25.384,11.365 25.384,25.384c0.001,14.019 -11.365,25.385 -25.384,25.385Z" style="fill:#ffe266;fill-rule:nonzero;"/></g><path d="M695.804,648.322l-280.876,-0c-21.274,-0 -38.519,-17.247 -38.519,-38.52l-0,-347.966c-0,-21.274 17.246,-38.519 38.519,-38.519l280.876,-0c21.274,-0 38.519,17.246 38.519,38.519l0,347.965c0.001,21.274 -17.245,38.521 -38.519,38.521Z" style="fill:#8bb6ef;fill-rule:nonzero;"/><path d="M695.804,223.317l-10.55,-0l-0,425.004l10.551,-0c21.274,-0 38.519,-17.247 38.519,-38.521l0,-347.963c0,-21.274 -17.246,-38.52 -38.52,-38.52Z" style="fill:#8388ef;fill-rule:nonzero;"/><path d="M728.736,366.143l-42.544,0l0,-81.832l42.544,0c14.62,0 26.471,11.851 26.471,26.471l0,28.89c0.001,14.62 -11.851,26.471 -26.471,26.471Z" style="fill:#ef8bbd;fill-rule:nonzero;"/><path d="M728.736,449.158l-42.544,-0l0,-81.833l42.544,-0c14.62,-0 26.471,11.851 26.471,26.471l0,28.89c0.001,14.62 -11.851,26.472 -26.471,26.472Z" style="fill:#ffe266;fill-rule:nonzero;"/><path d="M728.736,534.043l-42.544,-0l0,-81.832l42.544,-0c14.62,-0 26.471,11.851 26.471,26.471l0,28.89c0.001,14.619 -11.851,26.471 -26.471,26.471Z" style="fill:#78eac4;fill-rule:nonzero;"/><path d="M657.284,648.322l-242.356,-0c-21.274,-0 -38.519,-17.247 -38.519,-38.52l-0,-347.966c-0,-21.274 17.246,-38.519 38.519,-38.519l242.356,-0c21.274,-0 38.52,17.246 38.52,38.519l-0,347.965c-0,21.274 -17.246,38.521 -38.52,38.521Z" style="fill:#fff;fill-rule:nonzero;"/><path d="M617.158,648.322l-202.23,-0c-21.274,-0 -38.519,-17.247 -38.519,-38.52l-0,-347.966c-0,-21.274 17.246,-38.519 38.519,-38.519l202.23,-0c21.275,-0 38.52,17.246 38.52,38.519l0,347.965c0.001,21.274 -17.245,38.521 -38.52,38.521Z" style="fill:#8bb6ef;fill-rule:nonzero;"/><path d="M575.098,393.475l-118.108,-0c-13.564,-0 -24.56,-10.996 -24.56,-24.56l-0,-53.572c-0,-13.564 10.996,-24.56 24.56,-24.56l118.107,-0c13.564,-0 24.56,10.996 24.56,24.56l-0,53.572c0.001,13.564 -10.995,24.56 -24.559,24.56Z" style="fill:#fff;fill-rule:nonzero;"/><path d="M696.393,256.827c-0,-18.508 -15.003,-33.51 -33.51,-33.51l-37.705,-0c16.845,-0 30.501,13.655 30.501,30.501l0,280.517c0,16.845 -13.656,30.501 -30.501,30.501l-218.268,0c-16.845,0 -30.501,-13.656 -30.501,-30.501l-0,75.466c-0,21.274 17.246,38.521 38.519,38.521l247.38,-0c18.747,-0 34.084,-15.338 34.084,-34.084l-0,-357.411l0.001,-0Z" style="fill:#8388ef;fill-rule:nonzero;"/></g><g><g><path d="M765.983,339.672l0,-28.889c0,-14.67 -8.528,-27.382 -20.883,-33.451l-0,-15.495c-0,-27.181 -22.116,-49.296 -49.297,-49.296l-280.875,0c-18.759,0 -35.101,10.535 -43.429,25.999l-19.461,0c-19.939,0 -36.161,16.222 -36.161,36.161c0,19.939 16.222,36.16 36.161,36.16l13.594,0l0,37.994l-13.594,0c-19.939,0 -36.161,16.222 -36.161,36.161c0,19.939 16.222,36.16 36.161,36.16l13.594,0l0,37.994l-13.594,0c-19.939,0 -36.161,16.222 -36.161,36.161c0,19.939 16.222,36.16 36.161,36.16l13.594,0l0,33.26l-13.594,-0c-19.939,-0 -36.161,16.221 -36.161,36.16c0,19.939 16.222,36.161 36.161,36.161l21.85,-0c8.843,13.265 23.936,22.026 41.04,22.026l280.876,-0c27.181,-0 49.297,-22.114 49.297,-49.296l-0,-68.779c12.355,-6.069 20.883,-18.781 20.883,-33.451l0,-28.89c0,-11.151 -4.932,-21.165 -12.721,-27.998c7.789,-6.832 12.721,-16.846 12.721,-27.997l0,-28.89c0,-10.653 -4.501,-20.267 -11.694,-27.063c7.192,-6.795 11.693,-16.409 11.693,-27.062Zm-413.945,-50.364c-8.055,-0 -14.608,-6.553 -14.608,-14.608c-0,-8.055 6.553,-14.608 14.608,-14.608l13.639,-0c-0.02,0.581 -0.045,1.16 -0.045,1.745l0,27.472l-13.594,-0l-0,-0.001Zm-0,110.315c-8.055,-0 -14.608,-6.553 -14.608,-14.608c-0,-8.057 6.553,-14.61 14.608,-14.61l13.594,0l0,29.218l-13.594,-0Zm-0,110.315c-8.055,-0 -14.608,-6.553 -14.608,-14.609c-0,-8.055 6.553,-14.609 14.608,-14.609l13.594,0l0,29.218l-13.594,-0Zm-0,105.581c-8.055,0 -14.608,-6.553 -14.608,-14.608c-0,-8.055 6.553,-14.609 14.608,-14.609l13.594,-0l0,23.5c0,1.935 0.125,3.84 0.343,5.717l-13.937,0Zm392.394,-107.948c0,8.654 -7.042,15.696 -15.696,15.696l-22.156,-0l-0,-60.281l22.156,0c8.654,0 15.696,7.041 15.696,15.695l0,28.89Zm-37.852,-129.47l22.156,-0c8.654,-0 15.696,7.042 15.696,15.696l0,28.89c0,8.654 -7.042,15.694 -15.696,15.694l-22.156,0l-0,-60.28Zm-0,-83.015l22.156,0c8.654,0 15.696,7.042 15.696,15.696l0,28.889c0,8.654 -7.042,15.696 -15.696,15.696l-22.156,-0l-0,-60.281Zm16.968,-33.25l0,11.699l-16.969,-0l-0,-11.699c-0,-10.237 -3.139,-19.754 -8.502,-27.643c14.239,1.162 25.471,13.111 25.471,27.643Zm-65.656,-27.728c15.018,0.325 27.137,12.634 27.137,27.728l-0,347.965c-0,15.094 -12.119,27.403 -27.136,27.729c5.399,-7.906 8.563,-17.453 8.563,-27.729l0,-347.965c-0.001,-10.274 -3.165,-19.822 -8.564,-27.728Zm-242.964,403.438c-15.297,-0 -27.744,-12.446 -27.744,-27.744l-0,-347.966c-0,-15.298 12.445,-27.744 27.744,-27.744l202.23,-0c15.299,-0 27.745,12.445 27.745,27.744l-0,347.965c-0,15.298 -12.446,27.743 -27.745,27.743l-202.23,0l0,0.002Zm283.15,-0.102c5.363,-7.889 8.502,-17.405 8.502,-27.643l-0,-64.983l16.969,-0l0,64.983c-0.001,14.532 -11.233,26.481 -25.471,27.643Z" style="fill:#440a29;fill-rule:nonzero;"/><path d="M606.123,315.343c-0,-17.107 -13.918,-31.025 -31.026,-31.025l-118.107,-0c-17.108,-0 -31.026,13.918 -31.026,31.025l-0,53.572c-0,17.107 13.918,31.025 31.026,31.025l118.107,0c17.108,0 31.026,-13.918 31.026,-31.025l-0,-53.572Zm-12.931,53.572c-0,9.977 -8.118,18.094 -18.095,18.094l-118.107,-0c-9.977,-0 -18.095,-8.118 -18.095,-18.094l0,-53.572c0,-9.978 8.118,-18.094 18.095,-18.094l118.107,-0c9.977,-0 18.095,8.117 18.095,18.094l-0,53.572Z" style="fill:#440a29;fill-rule:nonzero;"/><path d="M560.182,335.664l-88.276,-0c-3.571,-0 -6.465,2.894 -6.465,6.465c-0,3.57 2.894,6.465 6.465,6.465l88.276,-0c3.57,-0 6.465,-2.895 6.465,-6.465c-0,-3.571 -2.895,-6.465 -6.465,-6.465Z" style="fill:#440a29;fill-rule:nonzero;"/><path d="M559.976,482.887c-3.571,0 -6.466,2.895 -6.466,6.465l0,11.952c0,3.57 2.895,6.465 6.466,6.465c3.57,-0 6.466,-2.895 6.466,-6.465l-0,-11.952c-0.001,-3.569 -2.896,-6.465 -6.466,-6.465Z" style="fill:#440a29;fill-rule:nonzero;"/><path d="M607.19,521.6c-3.57,0 -6.465,2.895 -6.465,6.465l0,11.952c0,3.571 2.895,6.465 6.465,6.465c3.571,0 6.466,-2.894 6.466,-6.465l-0,-11.952c-0,-3.569 -2.895,-6.465 -6.466,-6.465Z" style="fill:#440a29;fill-rule:nonzero;"/><path d="M572.924,549.733c-3.571,0 -6.465,2.896 -6.465,6.466l-0,11.952c-0,3.57 2.894,6.465 6.465,6.465c3.57,-0 6.465,-2.895 6.465,-6.465l-0,-11.952c0.001,-3.57 -2.895,-6.466 -6.465,-6.466Z" style="fill:#440a29;fill-rule:nonzero;"/></g><path d="M402.018,490.512c-5.877,-0 -10.684,-4.721 -10.772,-10.617c-0.16,-10.871 -0.083,-21.95 0.228,-32.93c0.169,-5.95 5.135,-10.621 11.078,-10.467c5.949,0.17 10.634,5.129 10.466,11.078c-0.303,10.672 -0.378,21.437 -0.221,32c0.087,5.951 -4.666,10.846 -10.616,10.934c-0.054,0.001 -0.109,0.002 -0.163,0.002Z" style="fill:#fff;fill-rule:nonzero;"/><path d="M402.246,423.427c-5.951,0 -10.776,-4.824 -10.776,-10.776l-0,-9.193c-0,-5.952 4.824,-10.776 10.776,-10.776c5.952,-0 10.776,4.824 10.776,10.776l-0,9.193c-0,5.952 -4.824,10.776 -10.776,10.776Z" style="fill:#fff;fill-rule:nonzero;"/></g><g><path d="M426.889,137.417c0,11.037 -8.948,19.985 -19.985,19.985c-11.038,0 -19.986,-8.948 -19.986,-19.985c-0.001,-11.039 8.947,-19.987 19.986,-19.987c11.037,0 19.985,8.948 19.985,19.987Z" style="fill:#8bb6ef;fill-rule:nonzero;"/><path d="M624.398,173.539c-0,4.674 -3.79,8.464 -8.464,8.464c-4.675,-0 -8.463,-3.79 -8.463,-8.464c-0,-4.674 3.789,-8.463 8.463,-8.463c4.674,-0 8.464,3.789 8.464,8.463Z" style="fill:#8bb6ef;fill-rule:nonzero;"/><g><path d="M297.519,176.338l6.79,19.09c0.291,0.817 0.866,1.465 1.592,1.792l16.962,7.642c2.396,1.08 2.396,4.897 0,5.977l-16.962,7.642c-0.726,0.327 -1.301,0.974 -1.592,1.792l-6.79,19.09c-0.96,2.697 -4.351,2.697 -5.311,0l-6.79,-19.09c-0.291,-0.818 -0.866,-1.465 -1.592,-1.792l-16.961,-7.641c-2.396,-1.08 -2.396,-4.897 0,-5.977l16.962,-7.642c0.727,-0.327 1.301,-0.975 1.592,-1.792l6.79,-19.09c0.959,-2.698 4.351,-2.698 5.31,-0.001Z" style="fill:#b2e7f1;fill-rule:nonzero;"/><path d="M774.458,131.138l6.789,19.091c0.291,0.817 0.867,1.465 1.593,1.792l16.962,7.641c2.396,1.08 2.396,4.897 -0,5.978l-16.962,7.641c-0.726,0.327 -1.302,0.975 -1.593,1.792l-6.789,19.091c-0.96,2.697 -4.352,2.697 -5.311,-0l-6.79,-19.091c-0.291,-0.817 -0.867,-1.465 -1.592,-1.792l-16.962,-7.641c-2.397,-1.081 -2.397,-4.898 -0,-5.978l16.962,-7.641c0.725,-0.327 1.301,-0.976 1.592,-1.792l6.79,-19.091c0.959,-2.697 4.352,-2.697 5.311,0Z" style="fill:#b2e7f1;fill-rule:nonzero;"/></g></g></g></g></svg>