<?xml version="1.0" encoding="UTF-8" standalone="no"?><!DOCTYPE svg PUBLIC "-//W3C//DTD SVG 1.1//EN" "http://www.w3.org/Graphics/SVG/1.1/DTD/svg11.dtd"><svg width="100%" height="100%" viewBox="0 0 1067 1067" version="1.1" xmlns="http://www.w3.org/2000/svg" xmlns:xlink="http://www.w3.org/1999/xlink" xml:space="preserve" xmlns:serif="http://www.serif.com/" style="fill-rule:evenodd;clip-rule:evenodd;stroke-linecap:round;stroke-linejoin:round;stroke-miterlimit:1.5;"><circle cx="533.333" cy="533.333" r="490.88" style="fill:#dfb5a7;stroke:#3c122c;stroke-width:38.4px;"/><g><g><path d="M793.118,411.639l-28.86,-142.819c-2.745,-12.16 -13.56,-24.588 -33.283,-24.588l-44.891,0l0.9,-20.68c0.749,-17.219 -12.408,-31.877 -29.607,-32.987l-251.441,-16.222c-6.809,-0.438 -11.391,6.849 -8.044,12.794l42.121,74.813c-17.954,120.664 -42.123,236.038 -22.334,315.535c4.909,19.721 22.546,33.611 42.868,33.717c51.394,0.266 152.658,0.719 204.139,0.462c20.33,-0.1 37.939,-13.997 42.888,-33.716c18.438,-73.468 -0.807,-177.736 -18.03,-288.536l15.562,-0c10.645,-0 19.795,7.549 21.819,18.001l21.834,112.81c2.091,10.8 11.551,18.303 22.154,18.303c1.424,-0 2.868,-0.136 4.318,-0.416c12.249,-2.37 20.257,-14.222 17.887,-26.471Z" style="fill:#fff;fill-rule:nonzero;"/><path d="M440.318,259.903c-17.984,121.407 -42.54,237.637 -22.639,317.584c4.909,19.721 22.546,33.611 42.868,33.716c51.394,0.267 152.659,0.719 204.141,0.463c20.33,-0.1 37.938,-13.998 42.887,-33.716c20.069,-79.961 -4.504,-196.405 -22.523,-318.047l-244.734,-0Z" style="fill:#faf1a9;fill-rule:nonzero;"/><path d="M635.118,262.741c14.457,99.068 31.97,192.929 16.31,258.354c-4.055,16.942 -18.483,28.881 -35.14,28.967c-42.182,0.22 -125.153,-0.17 -167.262,-0.397c-16.651,-0.09 -31.102,-12.024 -35.124,-28.968c-1.489,-6.275 -2.67,-12.815 -3.583,-19.589c-0.363,27.919 1.696,53.621 7.36,76.377c4.909,19.721 22.546,33.611 42.868,33.717c51.394,0.266 152.659,0.718 204.141,0.462c20.329,-0.101 37.938,-13.997 42.887,-33.716c19.912,-79.339 -4.122,-194.595 -22.099,-315.208l-50.358,0.001Z" style="fill:#dfb5a7;fill-rule:nonzero;"/><path d="M634.556,216.618l-1.359,32.796c0.498,3.517 1.004,7.026 1.513,10.53l50.692,-0l1.583,-36.391c0.749,-17.22 -12.408,-31.877 -29.607,-32.987l-49.599,-3.2l-0,0.741l2.521,0.17c14.09,0.955 24.87,13.547 24.256,28.341Z" style="fill:#e1bdfc;fill-rule:nonzero;"/><path d="M463.138,515.023l-25.652,-33.687c-6.458,-8.479 -4.818,-20.588 3.662,-27.045l32.559,-24.792c8.479,-6.456 20.588,-4.818 27.045,3.663l25.652,33.687c6.456,8.479 4.818,20.588 -3.663,27.045l-32.558,24.792c-8.479,6.457 -20.589,4.818 -27.045,-3.663Z" style="fill:#fff;fill-rule:nonzero;"/><circle cx="622.316" cy="518.727" r="70.54" style="fill:#f6e06e;"/><path d="M657.554,457.637c0.15,23.159 -1.589,44.508 -6.126,63.459c-4.055,16.942 -18.483,28.881 -35.14,28.967c-15.077,0.079 -35.373,0.08 -57.143,0.037c11.545,23.221 35.497,39.187 63.189,39.187c38.958,-0 70.54,-31.582 70.54,-70.541c-0.001,-26.127 -14.214,-48.918 -35.32,-61.109Z" style="fill:#dda86a;fill-rule:nonzero;"/><circle cx="622.334" cy="518.746" r="50.782" style="fill:#faf1a9;"/><path d="M656.952,481.607c-0.843,14.053 -2.6,27.272 -5.524,39.489c-4.055,16.942 -18.483,28.881 -35.14,28.967c-9.521,0.05 -21.124,0.068 -33.864,0.065c9.298,11.809 23.713,19.401 39.91,19.401c28.046,-0 50.782,-22.737 50.782,-50.783c-0.001,-14.665 -6.224,-27.869 -16.164,-37.139Z" style="fill:#dfb5a7;fill-rule:nonzero;"/><circle cx="516.284" cy="378.261" r="69.34" style="fill:#f6e06e;"/><circle cx="516.284" cy="378.261" r="49.918" style="fill:#faf1a9;"/><path d="M615.552,418.955l-32.492,-27.151c-8.179,-6.835 -9.269,-19.005 -2.435,-27.184l26.241,-31.403c6.834,-8.179 19.005,-9.269 27.183,-2.434l32.492,27.151c8.179,6.834 9.269,19.005 2.434,27.184l-26.24,31.402c-6.834,8.179 -19.005,9.269 -27.183,2.435Z" style="fill:#fff;fill-rule:nonzero;"/><path d="M666.463,357.869l-19.678,-16.443c2.996,21.043 5.656,41.517 7.587,61.169l14.538,-17.399c6.871,-8.221 5.775,-20.457 -2.447,-27.327Z" style="fill:#e1bdfc;fill-rule:nonzero;"/><path d="M489.112,555.817l4.364,-42.118c1.099,-10.602 10.584,-18.305 21.186,-17.207l40.704,4.218c10.602,1.099 18.306,10.584 17.206,21.186l-4.364,42.116c-1.098,10.602 -10.583,18.306 -21.185,17.207l-40.704,-4.218c-10.602,-1.098 -18.305,-10.583 -17.207,-21.184Z" style="fill:#fff;fill-rule:nonzero;"/><path d="M506.42,577.012l40.503,4.197c10.657,1.105 20.193,-6.64 21.296,-17.298l1.429,-13.794c-25.792,-0.032 -54.657,-0.137 -79.92,-0.25l-0.606,5.848c-1.104,10.658 6.641,20.193 17.298,21.297Z" style="fill:#e1bdfc;fill-rule:nonzero;"/><path d="M298.398,582.571c27.262,28.81 68.574,36.238 102.732,21.595c1.196,-0.513 2.508,-0.257 3.327,0.621c0.036,0.038 0.072,0.076 0.108,0.115c10.084,10.657 27.74,10.323 39.436,-0.744c11.695,-11.067 13.003,-28.677 2.919,-39.334c-0.036,-0.038 -0.072,-0.076 -0.109,-0.114c-0.833,-0.866 -1.016,-2.19 -0.437,-3.356c16.506,-33.298 11.368,-74.956 -15.894,-103.766c-27.261,-28.81 -68.571,-36.238 -102.729,-21.596c-1.196,0.512 -2.503,0.253 -3.327,-0.62c-0.005,-0.005 -0.01,-0.01 -0.014,-0.015c-10.085,-10.657 -27.741,-10.323 -39.436,0.744c-11.696,11.067 -13.003,28.677 -2.919,39.334c0.005,0.005 0.01,0.01 0.014,0.015c0.826,0.871 1.012,2.19 0.435,3.356c-16.504,33.297 -11.367,74.955 15.894,103.765Z" style="fill:#f6e06e;fill-rule:nonzero;"/><path d="M446.811,564.711c-0.833,-0.866 -1.016,-2.19 -0.437,-3.356c16.506,-33.298 11.368,-74.956 -15.894,-103.767c-25.428,-26.872 -63.075,-35.134 -95.743,-24.243c20.657,1.406 48.358,-0.214 67.43,20.232c13.269,14.224 34.054,74.301 -2.97,107.641c-37.024,33.34 -82.035,13.553 -103.602,-9.24c-14.47,-15.29 -21.048,-35.156 -19.877,-54.53c-7.145,29.216 0.317,61.492 22.68,85.125c27.262,28.811 68.574,36.238 102.732,21.596c1.196,-0.513 2.508,-0.257 3.327,0.621c0.036,0.038 0.072,0.077 0.108,0.114c10.084,10.658 27.74,10.325 39.436,-0.743c11.695,-11.067 13.003,-28.678 2.919,-39.335c-0.038,-0.04 -0.073,-0.078 -0.109,-0.115Z" style="fill:#dda86a;fill-rule:nonzero;"/><path d="M320.531,214.818l8.737,24.566c0.374,1.051 1.115,1.885 2.049,2.306l21.825,9.833c3.084,1.389 3.084,6.302 0,7.691l-21.825,9.832c-0.934,0.421 -1.675,1.255 -2.049,2.307l-8.737,24.565c-1.234,3.47 -5.598,3.47 -6.833,0l-8.736,-24.565c-0.375,-1.052 -1.114,-1.886 -2.05,-2.307l-21.825,-9.832c-3.084,-1.389 -3.084,-6.302 -0,-7.691l21.825,-9.833c0.935,-0.421 1.675,-1.255 2.05,-2.306l8.736,-24.566c1.234,-3.47 5.599,-3.47 6.833,0Z" style="fill:#faf1a9;fill-rule:nonzero;"/><circle cx="643.863" cy="107.599" r="19.076" style="fill:#f6e06e;"/><circle cx="441.039" cy="120.25" r="8.229" style="fill:#f6e06e;"/><path d="M750.337,127.419l6.48,18.222c0.278,0.779 0.827,1.398 1.521,1.71l16.189,7.295c2.288,1.03 2.288,4.675 0,5.705l-16.189,7.295c-0.693,0.312 -1.242,0.931 -1.521,1.71l-6.48,18.222c-0.916,2.574 -4.153,2.574 -5.068,0l-6.481,-18.222c-0.277,-0.779 -0.826,-1.398 -1.52,-1.71l-16.19,-7.295c-2.287,-1.03 -2.287,-4.675 -0,-5.705l16.19,-7.295c0.693,-0.312 1.242,-0.931 1.52,-1.71l6.481,-18.222c0.915,-2.574 4.153,-2.574 5.068,-0Z" style="fill:#faf1a9;fill-rule:nonzero;"/></g><g><g><path d="M803.541,409.533l-28.859,-142.819l-0.051,-0.236c-3.694,-16.367 -18.626,-32.881 -43.657,-32.881l-33.782,-0l0.417,-9.583c0.992,-22.825 -16.749,-42.592 -39.548,-44.062l-251.442,-16.222c-7.048,-0.449 -13.759,2.978 -17.518,8.957c-3.758,5.978 -3.941,13.515 -0.476,19.669l40.331,71.632c-2.627,17.521 -5.399,35.073 -8.084,52.085c-6.017,38.108 -11.879,75.385 -15.917,110.793c-24.028,-10.583 -51.661,-11.835 -76.845,-2.469c-6.436,-4.994 -14.42,-7.594 -23.014,-7.448c-10.103,0.19 -19.846,4.249 -27.431,11.427c-7.587,7.178 -12.176,16.681 -12.924,26.759c-0.635,8.56 1.535,16.688 6.166,23.39c-16.242,37.234 -8.575,81.405 19.766,111.355c28.335,29.944 72.005,40.039 110.072,25.89c6.27,4.908 14.031,7.548 22.382,7.548c0.25,-0 0.501,-0.003 0.751,-0.007c6.351,-0.119 12.559,-1.77 18.179,-4.761c5.79,2.098 12,3.256 18.435,3.289c42.938,0.222 113.538,0.539 166.428,0.539c14.165,0 27.07,-0.023 37.82,-0.076c25.154,-0.126 47.01,-17.3 53.15,-41.763c17.397,-69.319 2.426,-164.196 -13.423,-264.646c-0.825,-5.232 -1.659,-10.525 -2.494,-15.844l3.133,0c5.54,0 10.325,3.948 11.377,9.386l21.834,112.811c3.018,15.596 16.727,26.916 32.596,26.916c2.114,0 4.246,-0.205 6.339,-0.609c8.713,-1.687 16.248,-6.665 21.217,-14.019c4.969,-7.354 6.776,-16.202 5.072,-25.001Zm-394.536,-224.334l247.687,15.98c11.338,0.731 20.159,10.561 19.666,21.91l-1.374,31.585l-226.863,0l-39.116,-69.475Zm14.473,416.844c-4.424,0.072 -8.393,-1.497 -11.239,-4.504c-2.586,-2.776 -6.194,-4.262 -9.882,-4.262c-1.824,0 -3.668,0.364 -5.418,1.113c-30.943,13.265 -67.437,5.577 -90.816,-19.13c-23.378,-24.706 -29.04,-61.57 -14.091,-91.731c2.528,-5.098 1.641,-11.258 -2.201,-15.35c-0.017,-0.018 -0.034,-0.036 -0.051,-0.054c-2.795,-2.954 -4.153,-7.008 -3.828,-11.417c0.356,-4.78 2.604,-9.355 6.331,-12.882c3.727,-3.527 8.42,-5.519 13.213,-5.61c4.401,-0.087 8.393,1.497 11.188,4.45c0.02,0.023 0.041,0.044 0.061,0.065c3.876,4.056 9.973,5.276 15.195,3.035c30.94,-13.261 67.437,-5.575 90.814,19.131c23.378,24.706 29.039,61.571 14.088,91.736c-2.553,5.154 -1.629,11.363 2.35,15.5c6.038,6.381 4.914,17.281 -2.503,24.3c-3.726,3.528 -8.419,5.52 -13.211,5.61Zm107.65,-217.388l28.219,0c-1.092,7.383 -4.042,14.165 -8.361,19.86l-19.858,-19.86Zm10.746,28.797c-5.704,4.16 -12.452,6.964 -19.772,7.947l0,-27.719l19.772,19.772Zm-19.772,-50.583l0,-27.744c7.326,0.984 14.079,3.791 19.787,7.957l-19.787,19.787Zm9.026,9.024l19.87,-19.87c4.317,5.697 7.265,12.484 8.352,19.87l-28.222,0Zm-14.844,-49.93c-31.044,-0 -56.3,25.255 -56.3,56.298c0,31.043 25.256,56.299 56.3,56.299c28.022,0 51.321,-20.581 55.592,-47.421c1.217,2.846 2.941,5.456 5.123,7.715c-7.298,26.688 -31.743,46.365 -60.715,46.365c-34.716,0 -62.96,-28.243 -62.96,-62.958c0,-34.715 28.244,-62.958 62.96,-62.958c28.252,-0 52.201,18.713 60.144,44.39l-0.633,0.758c-1.817,2.174 -3.233,4.588 -4.237,7.151c-4.998,-25.962 -27.876,-45.639 -55.274,-45.639Zm-15.968,62.692l-19.212,19.211c-4.057,-5.558 -6.833,-12.106 -7.884,-19.211l27.096,0Zm-27.099,-12.762c1.046,-7.109 3.82,-13.66 7.876,-19.223l19.223,19.223l-27.099,0Zm36.123,21.787l0,27.559c-7.163,-1.153 -13.746,-4.058 -19.295,-8.263l19.295,-19.296Zm-19.309,-50.122c5.552,-4.21 12.14,-7.119 19.309,-8.273l0,27.584l-19.309,-19.311Zm-18.58,95.678c10.53,7.763 23.13,12.869 36.808,14.318l13.005,17.079c4.35,5.712 3.241,13.897 -2.47,18.246l-1.88,1.432l-1.493,-0.155c-6.853,-0.708 -13.566,1.291 -18.911,5.633c-5.304,4.308 -8.625,10.409 -9.371,17.195l-0.74,0.564c-5.711,4.349 -13.896,3.24 -18.246,-2.471l-2.687,-3.529c-2.312,-17.379 -9.041,-34.194 -19.914,-48.589l25.899,-19.723Zm143.93,94.929l0,28.434c-7.398,-1.169 -14.192,-4.172 -19.906,-8.528l19.906,-19.906Zm-28.85,10.8c-7.182,-9.585 -7.879,-19.826 -7.879,-19.826l27.705,0l-19.826,19.826Zm8.929,-61.533c5.717,-4.361 12.515,-7.37 19.921,-8.54l0,28.461l-19.921,-19.921Zm10.896,28.945l-27.96,0c1.06,-7.343 3.922,-14.108 8.124,-19.835l19.836,19.835Zm15.978,63.532c31.52,0 57.164,-25.643 57.164,-57.164c-0,-31.52 -25.644,-57.164 -57.164,-57.164c-24.68,0 -45.753,15.722 -53.739,37.677c-1.899,-1.408 -3.98,-2.54 -6.192,-3.375c9.232,-24.119 32.605,-41.297 59.931,-41.297c35.377,0 64.159,28.782 64.159,64.159c-0,35.378 -28.782,64.159 -64.159,64.159c-18.811,0 -35.735,-8.158 -47.481,-21.098l1.018,-9.822c10.382,14.471 27.333,23.925 46.463,23.925Zm14.833,-63.532l20.49,-20.49c4.469,5.864 7.513,12.866 8.613,20.49l-29.103,0Zm29.101,12.763c-1.104,7.622 -4.15,14.62 -8.621,20.48l-20.48,-20.48l29.101,0Zm-38.125,-21.787l-0,-28.616c7.564,0.993 14.535,3.892 20.411,8.206l-20.411,20.41Zm20.395,51.207c-5.873,4.308 -12.837,7.202 -20.395,8.195l-0,-28.59l20.395,20.395Zm-85.166,-42.771c2.304,3.009 3.072,6.956 2.792,10.368l-4.292,41.097c-0.738,7.14 -7.151,12.355 -14.291,11.608l-40.502,-4.197c-7.141,-0.74 -12.348,-7.152 -11.607,-14.292l4.343,-41.914c0.358,-3.459 2.041,-6.571 4.741,-8.764c2.343,-1.903 5.206,-2.914 8.183,-2.914c0.454,-0 41.869,4.268 41.869,4.268c3.458,0.357 6.57,2.04 8.764,4.74Zm133.887,63.571c-3.774,15.038 -17.19,25.594 -32.625,25.67c-50.794,0.252 -204.54,-0.488 -204.795,-0.495c6.469,-12.607 5.976,-27.623 -1.862,-38.919c4.997,-11.459 7.72,-23.577 8.282,-35.735c2.699,1.456 6.938,2.595 10.067,3.019c3.755,0.174 6.986,-0.272 9.256,-0.921l-2.806,27.078c-0.71,6.85 1.291,13.566 5.632,18.912c4.342,5.346 10.505,8.68 17.355,9.39l40.503,4.197c0.899,0.093 1.791,0.138 2.675,0.138c9.013,0 17.154,-4.731 21.775,-12.025c13.659,12.403 31.757,19.998 51.618,19.998c42.415,0 76.922,-34.507 76.922,-76.922c-0,-42.415 -34.507,-76.921 -76.922,-76.921c-33.649,0 -62.315,21.72 -72.728,51.874l-16.709,-1.73c5.372,-8.805 5.137,-20.378 -1.477,-29.066l-7.124,-9.354c29.256,-3.094 53.578,-22.918 63.225,-49.701l23.862,19.94c4.68,3.912 12.538,6.399 18.831,5.895c6.859,-0.614 13.069,-3.862 17.484,-9.147l26.11,-31.246c4.416,-5.284 6.51,-11.972 5.895,-18.831c-0.615,-6.859 -3.863,-13.069 -9.147,-17.484l-32.336,-27.02c-5.285,-4.416 -11.972,-6.506 -18.831,-5.895c-6.859,0.614 -13.069,3.863 -17.484,9.147l-16.054,19.213c-11.605,-26.953 -38.408,-45.877 -69.566,-45.877c-41.753,-0 -75.722,33.968 -75.722,75.721c0,20.31 8.053,38.764 21.115,52.376l-24.315,18.515c-0.051,0.038 -0.095,0.081 -0.146,0.119c-3.807,-3.914 -7.879,-7.477 -12.169,-10.681c3.972,-37.675 10.322,-77.951 16.835,-119.2c2.676,-16.957 5.433,-34.452 8.058,-51.953l225.489,0c2.616,17.441 5.36,34.872 8.028,51.771c15.5,98.242 30.142,191.039 13.801,256.15Zm-111.672,-206.726l26.11,-31.247c2.23,-2.668 5.366,-4.309 8.83,-4.619c3.461,-0.316 6.841,0.747 9.51,2.977l32.336,27.02c2.669,2.23 4.309,5.366 4.619,8.83c0.31,3.464 -0.747,6.841 -2.977,9.51l-26.11,31.246c-2.231,2.669 -5.366,4.309 -8.83,4.619c-3.462,0.305 -6.841,-0.747 -9.51,-2.977l-32.336,-27.02c-2.668,-2.23 -4.309,-5.366 -4.619,-8.829c-0.31,-3.464 0.748,-6.841 2.977,-9.51Zm195.257,53.991c-1.788,2.646 -4.498,4.437 -7.633,5.044c-0.764,0.147 -1.536,0.222 -2.298,0.222c-5.7,0 -10.627,-4.074 -11.712,-9.688l-21.834,-112.81c-2.985,-15.422 -16.552,-26.615 -32.26,-26.615l-6.44,0c-0.902,-5.865 -1.798,-11.737 -2.673,-17.61l0.274,-6.3l34.708,-0c14.115,-0 21.068,8.342 22.884,16.188l28.817,142.604c0.606,3.135 -0.045,6.319 -1.833,8.965Z" style="fill:#3c122c;fill-rule:nonzero;"/><path d="M308.994,507.41c-0.936,0 -1.888,-0.124 -2.835,-0.386c-5.662,-1.562 -8.985,-7.419 -7.422,-13.081c0.933,-3.38 2.098,-6.785 3.461,-10.119c2.226,-5.436 8.437,-8.04 13.871,-5.816c5.436,2.225 8.04,8.435 5.815,13.871c-1.046,2.556 -1.935,5.153 -2.644,7.722c-1.3,4.716 -5.58,7.809 -10.246,7.809Z" style="fill:#fff;fill-rule:nonzero;"/><path d="M312.898,552.796c-3.865,0 -7.594,-2.115 -9.477,-5.793c-2.835,-5.542 -5.146,-11.349 -6.866,-17.262c-1.641,-5.639 1.601,-11.542 7.242,-13.183c5.638,-1.64 11.541,1.602 13.183,7.242c1.344,4.622 3.154,9.168 5.377,13.514c2.676,5.23 0.605,11.637 -4.623,14.313c-1.551,0.794 -3.206,1.169 -4.836,1.169Z" style="fill:#fff;fill-rule:nonzero;"/><g><path d="M390.025,541.292c-3.504,0 -6.358,-2.831 -6.38,-6.341l-0.038,-6.162c-0.022,-3.524 2.817,-6.398 6.341,-6.42l0.042,-0c3.504,-0 6.358,2.831 6.38,6.341l0.038,6.161c0.022,3.524 -2.817,6.399 -6.341,6.421l-0.042,0Z" style="fill:#3c122c;fill-rule:nonzero;"/><path d="M415.846,513.957c-3.505,-0 -6.359,-2.83 -6.381,-6.34l-0.039,-6.162c-0.022,-3.525 2.816,-6.399 6.34,-6.421l0.042,-0c3.505,-0 6.358,2.83 6.38,6.34l0.039,6.161c0.022,3.525 -2.816,6.4 -6.34,6.422l-0.041,-0Z" style="fill:#3c122c;fill-rule:nonzero;"/><path d="M410.57,561.121c-3.505,0 -6.359,-2.831 -6.381,-6.341l-0.038,-6.162c-0.022,-3.525 2.817,-6.398 6.341,-6.421l0.042,-0c3.505,-0 6.358,2.831 6.38,6.341l0.038,6.161c0.022,3.525 -2.817,6.399 -6.341,6.422l-0.041,0Z" style="fill:#3c122c;fill-rule:nonzero;"/></g></g></g></g><g transform="matrix(0.256,0,0,0.256,133.389,27.9107)"><path d="M511.935,3297.08c56.306,0 94.016,-36.676 94.016,-93.5l0,-569.78c0,-65.088 -39.776,-105.898 -107.964,-105.898c-37.193,0 -69.22,4.133 -108.997,30.995l-141.024,96.082c-26.862,18.597 -37.71,39.776 -37.71,67.155c-0,38.226 27.378,65.605 64.055,65.605c18.08,-0 29.445,-4.133 46.492,-16.014l92.983,-64.572l3.616,0l0,496.427c0,56.824 38.226,93.5 94.533,93.5Z" style="fill:none;fill-rule:nonzero;stroke:#3c122c;stroke-width:204.17px;stroke-linecap:butt;stroke-miterlimit:2;"/><path d="M1073.97,3303.79c197.331,-0 319.243,-149.807 319.243,-393.113c-0,-244.856 -122.945,-390.013 -319.243,-390.013c-195.781,0 -319.759,145.674 -319.759,390.53c-0,243.823 122.428,392.596 319.759,392.596Zm0,-147.74c-78.519,-0 -127.077,-82.136 -127.077,-245.373c-0,-162.204 48.558,-242.273 127.077,-242.273c78.519,0 126.561,79.553 126.561,242.79c-0,162.72 -47.525,244.856 -126.561,244.856Z" style="fill:none;fill-rule:nonzero;stroke:#3c122c;stroke-width:204.17px;stroke-linecap:butt;stroke-miterlimit:2;"/><path d="M1795.1,3303.79c197.331,-0 319.242,-149.807 319.242,-393.113c0,-244.856 -122.944,-390.013 -319.242,-390.013c-195.782,0 -319.759,145.674 -319.759,390.53c-0,243.823 122.428,392.596 319.759,392.596Zm-0,-147.74c-78.519,-0 -127.077,-82.136 -127.077,-245.373c-0,-162.204 48.558,-242.273 127.077,-242.273c78.519,0 126.56,79.553 126.56,242.79c0,162.72 -47.524,244.856 -126.56,244.856Z" style="fill:none;fill-rule:nonzero;stroke:#3c122c;stroke-width:204.17px;stroke-linecap:butt;stroke-miterlimit:2;"/><path d="M2516.24,3303.79c197.332,-0 319.243,-149.807 319.243,-393.113c-0,-244.856 -122.945,-390.013 -319.243,-390.013c-195.781,0 -319.759,145.674 -319.759,390.53c0,243.823 122.428,392.596 319.759,392.596Zm0,-147.74c-78.519,-0 -127.077,-82.136 -127.077,-245.373c0,-162.204 48.558,-242.273 127.077,-242.273c78.52,0 126.561,79.553 126.561,242.79c0,162.72 -47.525,244.856 -126.561,244.856Z" style="fill:none;fill-rule:nonzero;stroke:#3c122c;stroke-width:204.17px;stroke-linecap:butt;stroke-miterlimit:2;"/><g transform="matrix(1057.94,0,0,1057.94,184.944,3285.2)"><path d="M0.309,0.011c0.053,0 0.089,-0.034 0.089,-0.088l-0,-0.539c-0,-0.061 -0.038,-0.1 -0.102,-0.1c-0.035,0 -0.066,0.004 -0.103,0.029l-0.133,0.091c-0.026,0.018 -0.036,0.038 -0.036,0.064c-0,0.036 0.026,0.062 0.06,0.062c0.018,-0 0.028,-0.004 0.044,-0.015l0.088,-0.061l0.004,-0l-0,0.469c-0,0.054 0.036,0.088 0.089,0.088Z" style="fill:#faf1a9;fill-rule:nonzero;"/></g><g transform="matrix(1057.94,0,0,1057.94,713.399,3285.2)"><path d="M0.341,0.018c0.186,-0 0.302,-0.142 0.302,-0.372c-0,-0.231 -0.117,-0.369 -0.302,-0.369c-0.185,0 -0.302,0.138 -0.302,0.369c-0,0.231 0.115,0.372 0.302,0.372Zm-0,-0.14c-0.074,-0 -0.12,-0.078 -0.12,-0.232c-0,-0.153 0.046,-0.229 0.12,-0.229c0.074,-0 0.119,0.075 0.119,0.229c0,0.154 -0.044,0.232 -0.119,0.232Z" style="fill:#faf1a9;fill-rule:nonzero;"/></g><g transform="matrix(1057.94,0,0,1057.94,1434.54,3285.2)"><path d="M0.341,0.018c0.186,-0 0.302,-0.142 0.302,-0.372c-0,-0.231 -0.117,-0.369 -0.302,-0.369c-0.185,0 -0.302,0.138 -0.302,0.369c-0,0.231 0.115,0.372 0.302,0.372Zm-0,-0.14c-0.074,-0 -0.12,-0.078 -0.12,-0.232c-0,-0.153 0.046,-0.229 0.12,-0.229c0.074,-0 0.119,0.075 0.119,0.229c0,0.154 -0.044,0.232 -0.119,0.232Z" style="fill:#faf1a9;fill-rule:nonzero;"/></g><g transform="matrix(1057.94,0,0,1057.94,2155.67,3285.2)"><path d="M0.341,0.018c0.186,-0 0.302,-0.142 0.302,-0.372c-0,-0.231 -0.117,-0.369 -0.302,-0.369c-0.185,0 -0.302,0.138 -0.302,0.369c-0,0.231 0.115,0.372 0.302,0.372Zm-0,-0.14c-0.074,-0 -0.12,-0.078 -0.12,-0.232c-0,-0.153 0.046,-0.229 0.12,-0.229c0.074,-0 0.119,0.075 0.119,0.229c0,0.154 -0.044,0.232 -0.119,0.232Z" style="fill:#faf1a9;fill-rule:nonzero;"/></g></g></svg>