<?xml version="1.0" encoding="UTF-8" standalone="no"?><!DOCTYPE svg PUBLIC "-//W3C//DTD SVG 1.1//EN" "http://www.w3.org/Graphics/SVG/1.1/DTD/svg11.dtd"><svg width="100%" height="100%" viewBox="0 0 1067 1067" version="1.1" xmlns="http://www.w3.org/2000/svg" xmlns:xlink="http://www.w3.org/1999/xlink" xml:space="preserve" xmlns:serif="http://www.serif.com/" style="fill-rule:evenodd;clip-rule:evenodd;stroke-linecap:round;stroke-linejoin:round;stroke-miterlimit:1.5;"><circle cx="533.333" cy="533.333" r="490.88" style="fill:#c668b9;stroke:#3c122c;stroke-width:38.4px;"/><g transform="matrix(0.256,0,0,0.256,133.389,27.9107)"><path d="M1432.99,3297.08c40.292,0 63.022,-14.464 84.201,-55.273l256.221,-491.778c24.279,-45.975 34.61,-75.936 34.61,-109.514c0,-62.505 -48.041,-100.732 -111.063,-100.732l-377.616,0c-43.908,0 -75.419,28.412 -75.419,72.321c-0,43.908 31.511,73.353 75.419,73.353l299.097,0l-0,3.616l-256.221,471.632c-10.848,19.63 -16.014,37.193 -16.014,59.406c0,42.875 32.544,76.969 86.785,76.969Z" style="fill:none;fill-rule:nonzero;stroke:#3c122c;stroke-width:204.17px;stroke-linecap:butt;stroke-miterlimit:2;"/><g transform="matrix(1057.94,0,0,1057.94,1221.19,3285.2)"><path d="M0.2,0.011c0.038,0 0.06,-0.013 0.08,-0.052l0.242,-0.465c0.023,-0.043 0.033,-0.072 0.033,-0.103c-0,-0.059 -0.046,-0.096 -0.105,-0.096l-0.357,0c-0.042,0 -0.072,0.027 -0.072,0.069c0,0.041 0.03,0.069 0.072,0.069l0.282,0l0,0.004l-0.242,0.445c-0.01,0.019 -0.015,0.035 -0.015,0.056c0,0.041 0.031,0.073 0.082,0.073Z" style="fill:#d789b9;fill-rule:nonzero;"/></g></g><clipPath id="_clip1"><rect x="262.5" y="86.561" width="541.667" height="541.667"/></clipPath><g clip-path="url(#_clip1)"><g><path d="M646.707,153.371c-0.581,-10.081 -10.7,-17.947 -20.613,-16.021c-18.137,3.52 -45.548,12.12 -62.691,32.898c0.175,-2.086 0.276,-4.191 0.248,-6.321c-0.346,-25.867 -16.387,-48.431 -28.174,-61.562c-6.288,-7.003 -18.232,-6.843 -24.331,0.325c-11.433,13.439 -26.865,36.426 -26.519,62.293c0.548,40.989 40.504,73.688 40.504,73.688c0,-0 10.291,-8.906 20.235,-23.104c-3.097,24.19 1.383,45.134 1.383,45.134c0,0 55.356,-2.131 82.348,-36.856c17.032,-21.914 18.698,-51.573 17.61,-70.474Z" style="fill:#a1e8c3;fill-rule:nonzero;"/><path d="M511.258,99.449c-11.805,13.877 -16.953,33.904 -9.514,23.118c3.969,-5.753 15.877,-3.887 19.997,1.758c7.726,10.583 18.247,28.764 18.525,49.566c0.44,32.964 -17.196,61.909 -17.196,61.909c0,-0 -9.141,-7.35 -18.521,-18.721c10.535,14.084 21.148,22.775 21.148,22.775c0,-0 40.339,-34.854 39.773,-77.176c-0.356,-26.709 -16.919,-50.008 -29.091,-63.565c-6.491,-7.232 -18.824,-7.067 -25.121,0.336Z" style="fill:#85adc2;fill-rule:nonzero;"/><path d="M628.361,134.707c-19.19,3.726 -36.918,17.065 -23.458,13.007c7.179,-2.164 15.912,7.375 15.586,14.866c-0.612,14.045 -3.969,36.331 -17.668,53.955c-21.708,27.928 -55.875,40.38 -55.875,40.38c-0,0 -2.74,-12.284 -2.988,-28.097c-0.601,18.861 2.476,33.255 2.476,33.255c-0,-0 57.157,-2.201 85.027,-38.056c17.588,-22.627 19.308,-53.251 18.185,-72.766c-0.601,-10.411 -11.049,-18.532 -21.285,-16.544Z" style="fill:#85adc2;fill-rule:nonzero;"/><path d="M492.969,217.492c5.043,-21.333 26.457,-34.559 47.79,-29.516c21.334,5.042 34.559,26.456 29.517,47.79c-5.043,21.333 -26.457,34.559 -47.79,29.516c-21.334,-5.043 -34.559,-26.457 -29.517,-47.79Z" style="fill:#9781dd;"/><path d="M439.906,201.336c15.501,-15.501 40.671,-15.501 56.172,-0c15.501,15.501 15.501,40.671 -0,56.172c-15.501,15.501 -40.671,15.501 -56.172,-0c-15.501,-15.501 -15.501,-40.671 -0,-56.172Z" style="fill:#e8a284;"/><path d="M662.358,369.932c-0.853,-0 -1.702,0.004 -2.55,0.012c-2.222,-12.194 -9.205,-23.095 -19.334,-31.366c0.05,-0.623 0.085,-61.603 0.085,-61.603c0,-15.374 -15.055,-27.839 -33.625,-27.839l-182.206,-0c-18.57,-0 -33.624,12.465 -33.624,27.839c-0,-0 0.034,60.98 0.084,61.603c-12.402,10.126 -20.097,24.196 -20.097,39.757l0,183.393c0,30.843 30.199,55.846 67.452,55.846l154.576,0c37.252,0 67.451,-25.003 67.451,-55.846l-0,-10.654c0.595,0.014 1.189,0.027 1.787,0.027c50.689,0 91.78,-48.814 91.78,-109.029c-0,-60.215 -41.09,-72.14 -91.779,-72.14Zm-1.787,147.807l0,-114.47c31.518,0.179 56.888,7.977 56.888,45.59c-0,37.612 -25.37,68.166 -56.888,68.88Z" style="fill:#c1e5ef;fill-rule:nonzero;"/><path d="M640.474,338.578c0.05,-0.622 0.085,-1.25 0.085,-1.883l0,-59.72c0,-15.375 -15.053,-27.839 -33.625,-27.839l-42.719,-0c15.207,-0 27.534,10.667 27.534,23.826l-0,19.269l-152.15,0c-11.56,0 -20.931,9.372 -20.931,20.931c0,11.559 9.37,20.93 20.931,20.93l152.138,-0c-0.003,1.845 -0.006,3.795 -0.009,5.715c-0.014,7.305 2.283,14.485 6.811,20.217c6.054,7.667 9.597,16.937 9.597,26.924l0,129.722c0,26.396 -24.728,47.795 -55.233,47.795l-126.577,0c-30.505,0 -55.233,-21.399 -55.233,-47.795l-0,45.059c-0,30.844 30.199,55.846 67.451,55.846l154.576,0c37.252,0 67.451,-25.002 67.451,-55.846l0,-183.394c0,-15.561 -7.694,-29.631 -20.097,-39.757Z" style="fill:#a6aaed;fill-rule:nonzero;"/><path d="M611.522,353.619c0.027,-0.369 0.048,-50.322 0.059,-79.666l-191.498,0c0.01,29.344 0.031,79.297 0.059,79.666c-9.522,8.52 -15.428,20.357 -15.428,33.448l-0,154.287c-0,25.948 23.184,46.983 51.783,46.983l118.67,-0c28.599,-0 51.783,-21.035 51.783,-46.983l-0,-154.287c0.001,-13.091 -5.907,-24.928 -15.428,-33.448Z" style="fill:#d789b9;fill-rule:nonzero;"/><path d="M626.951,541.354l-0,-154.287c-0,-13.091 -5.908,-24.928 -15.429,-33.448c0.027,-0.37 0.048,-50.323 0.059,-79.666l-19.831,0l-0,18.277l-152.151,0c-8.894,0 -16.472,5.557 -19.504,13.378c0.002,5.147 0.006,10.259 0.009,15.126c3.037,7.811 10.61,13.357 19.495,13.357l152.138,-0c-0.003,1.844 -0.006,3.794 -0.009,5.715c-0.014,7.304 2.283,14.484 6.811,20.216c6.054,7.668 9.597,16.937 9.597,26.924l0,129.721c0,26.398 -24.728,47.796 -55.234,47.796l-126.576,0c-5.613,0 -11.027,-0.73 -16.131,-2.077c8.507,15.384 26.039,25.949 46.301,25.949l118.669,-0c28.601,0.002 51.786,-21.033 51.786,-46.981Z" style="fill:#c668b9;fill-rule:nonzero;"/><path d="M338.874,112.769l9.127,25.663c0.39,1.099 1.165,1.97 2.14,2.409l22.801,10.272c3.221,1.452 3.221,6.584 -0,8.035l-22.801,10.273c-0.976,0.44 -1.75,1.311 -2.14,2.409l-9.127,25.663c-1.29,3.625 -5.849,3.625 -7.139,-0l-9.126,-25.662c-0.39,-1.099 -1.165,-1.97 -2.14,-2.409l-22.801,-10.272c-3.221,-1.452 -3.221,-6.584 0,-8.036l22.801,-10.272c0.976,-0.44 1.75,-1.311 2.14,-2.409l9.127,-25.663c1.289,-3.626 5.849,-3.626 7.138,-0.001Z" style="fill:#e8c2d8;fill-rule:nonzero;"/><path d="M748.634,129.371c0,11.005 -8.922,19.928 -19.928,19.928c-11.007,-0 -19.929,-8.923 -19.929,-19.928c0,-11.007 8.923,-19.93 19.929,-19.93c11.007,0.001 19.928,8.924 19.928,19.93Z" style="fill:#d789b9;fill-rule:nonzero;"/><path d="M771.415,207.639c-0,4.662 -3.779,8.439 -8.439,8.439c-4.662,0 -8.44,-3.779 -8.44,-8.439c0,-4.661 3.779,-8.439 8.44,-8.439c4.661,0 8.439,3.778 8.439,8.439Z" style="fill:#d789b9;fill-rule:nonzero;"/><path d="M732.107,223.398l6.77,19.037c0.29,0.815 0.863,1.461 1.588,1.787l16.913,7.62c2.39,1.076 2.39,4.884 0,5.961l-16.913,7.62c-0.725,0.326 -1.298,0.972 -1.588,1.787l-6.77,19.037c-0.956,2.689 -4.339,2.689 -5.295,-0l-6.77,-19.037c-0.29,-0.816 -0.863,-1.461 -1.588,-1.787l-16.913,-7.62c-2.39,-1.076 -2.39,-4.884 -0,-5.961l16.913,-7.62c0.725,-0.327 1.298,-0.972 1.588,-1.787l6.77,-19.037c0.955,-2.689 4.339,-2.689 5.295,0Z" style="fill:#e8c2d8;fill-rule:nonzero;"/><path d="M732.952,374.419c-15.341,-9.706 -36.078,-14.538 -64.938,-15.086c-3.259,-9.404 -8.938,-18.084 -16.802,-25.498l0,-56.86c0,-15.246 -10.249,-28.45 -25.073,-34.68c4.084,-3.527 7.919,-7.477 11.366,-11.912c18.703,-24.063 21.11,-55.493 19.836,-77.625c-0.454,-7.874 -4.427,-15.277 -10.904,-20.311c-6.476,-5.034 -14.637,-7.059 -22.375,-5.554c-15.441,2.998 -34.961,8.955 -51.681,20.758c-4.812,-21.628 -17.785,-39.934 -28.979,-52.401c-4.969,-5.535 -12.214,-8.689 -19.927,-8.689c-0.125,-0 -0.251,0.001 -0.377,0.002c-7.854,0.105 -15.168,3.468 -20.066,9.226c-13.467,15.831 -29.441,40.711 -29.057,69.338c0.066,4.963 0.633,9.8 1.582,14.481c-2.458,-0.37 -4.969,-0.571 -7.528,-0.571c-27.78,-0 -50.38,22.601 -50.38,50.379c0,3.231 0.316,6.388 0.903,9.449c-21.5,2.622 -38.1,18.709 -38.1,38.116c0.02,34.786 0.04,50.021 0.064,56.794c-12.988,12.214 -20.076,27.861 -20.076,44.56l0,183.393c0,36.668 35.037,66.498 78.104,66.498l154.576,0c43.067,0 78.105,-29.831 78.105,-66.498l-0,-0.434c52.344,-5.269 93.565,-56.72 93.565,-119.223c0,-31.525 -10.712,-54.285 -31.838,-67.652Zm-104.828,-226.612c0.333,-0.064 0.673,-0.096 1.018,-0.096c1.423,0 2.915,0.544 4.221,1.558c1.622,1.261 2.609,2.98 2.709,4.716c0.872,15.135 0.032,43.486 -15.388,63.324c-7.441,9.574 -17.555,16.363 -27.924,21.174l-12.238,-0c0.937,-3.837 1.447,-7.837 1.447,-11.956c0,-5.593 -0.93,-10.969 -2.619,-16c6.06,-9.506 14.284,-19.12 25.473,-27.563c2.818,-2.127 3.378,-6.135 1.251,-8.953c-2.126,-2.817 -6.133,-3.379 -8.951,-1.251c-10.172,7.676 -18.149,16.146 -24.425,24.697c-2.412,-3.402 -5.233,-6.491 -8.394,-9.198c1.759,-3.459 3.823,-6.79 6.253,-9.916c15.417,-19.837 42.685,-27.646 57.567,-30.536Zm-116.046,57.2c5.163,-4.688 12.006,-7.555 19.512,-7.555c16.031,0 29.073,13.043 29.073,29.075c0,4.261 -0.928,8.308 -2.583,11.956l-40.509,-0c0.54,-2.944 0.836,-5.97 0.836,-9.068c-0,-8.851 -2.302,-17.172 -6.329,-24.408Zm7.182,-95.413c0.901,-1.059 2.441,-1.705 4.121,-1.727l0.091,-0c1.646,-0 3.165,0.601 4.079,1.617c9.371,10.439 25.14,31.409 25.449,54.588c0.01,0.745 -0.013,1.485 -0.033,2.226c-2.85,3.793 -5.306,7.76 -7.414,11.833c-4.437,-1.282 -9.118,-1.982 -13.962,-1.982c-4.105,-0 -8.093,0.5 -11.914,1.433c-0.451,-8.965 0.278,-18.783 2.937,-29.192c0.874,-3.419 -1.19,-6.9 -4.61,-7.775c-3.423,-0.873 -6.9,1.191 -7.775,4.611c-3.455,13.518 -4.088,26.086 -3.12,37.306c-2.495,1.399 -4.858,3.006 -7.07,4.792c-2.807,-7.048 -4.656,-14.625 -4.761,-22.481c-0.31,-23.178 14.892,-44.564 23.982,-55.249Zm-51.231,90.748c16.031,-0 29.073,13.042 29.073,29.074c-0,3.165 -0.51,6.213 -1.45,9.068l-55.245,-0c-0.941,-2.854 -1.452,-5.902 -1.452,-9.068c-0.001,-16.032 13.042,-29.074 29.074,-29.074Zm181.891,361.387c-0,24.92 -25.48,45.194 -56.8,45.194l-154.576,-0c-31.32,-0 -56.799,-20.274 -56.799,-45.194l-0,-183.394c-0,-11.798 5.747,-22.987 16.181,-31.506c2.577,-2.104 4.015,-5.283 3.91,-8.588c-0.034,-2.437 -0.065,-37.859 -0.079,-61.266c-0,-9.317 10.519,-17.187 22.972,-17.187l182.208,0c12.452,0 22.971,7.872 22.971,17.187l-0,59.72c-0,0.267 -0.017,0.594 -0.051,1.031c-0.279,3.487 1.171,6.889 3.881,9.103c10.436,8.519 16.182,19.709 16.182,31.506l-0,183.394Zm21.305,-151.625c28.448,2.285 39.842,13.75 39.842,38.755c-0,29.567 -17.036,54.392 -39.842,60.863l-0,-99.618Zm-0,129.749l-0,-16.992c29.902,-6.492 52.625,-37.186 52.625,-74.001c-0,-40.207 -27.36,-49.728 -52.625,-51.586l-0,-16.521c51.799,1.741 72.26,19.398 72.26,61.319c0,50.611 -31.683,92.407 -72.26,97.781Z" style="fill:#3c122c;fill-rule:nonzero;"/><path d="M585.916,311.146l-140.169,0c-3.529,0 -6.392,-2.861 -6.392,-6.392c0,-3.53 2.862,-6.392 6.392,-6.392l140.169,0c3.53,0 6.392,2.862 6.392,6.392c0,3.531 -2.862,6.392 -6.392,6.392Z" style="fill:#3c122c;fill-rule:nonzero;"/><path d="M585.916,338.469l-140.169,-0c-3.529,-0 -6.392,-2.862 -6.392,-6.391c0,-3.53 2.862,-6.392 6.392,-6.392l140.169,-0c3.53,-0 6.392,2.861 6.392,6.392c0,3.529 -2.862,6.391 -6.392,6.391Z" style="fill:#3c122c;fill-rule:nonzero;"/><path d="M434.354,474.373c-5.883,0 -10.652,-4.769 -10.652,-10.652l-0,-9.133c-0,-5.883 4.769,-10.652 10.652,-10.652c5.884,0 10.653,4.769 10.653,10.652l-0,9.133c-0,5.882 -4.769,10.652 -10.653,10.652Z" style="fill:#fff;fill-rule:nonzero;"/><path d="M433.698,424.69c-5.794,-0 -10.542,-4.643 -10.646,-10.461c-0.152,-8.429 0.236,-19.401 4.619,-29.519c12.562,-29.013 45.118,-26.958 66.66,-25.598l0.62,0.038c5.872,0.371 10.331,5.43 9.962,11.302c-0.371,5.873 -5.426,10.344 -11.302,9.962l-0.622,-0.039c-22.183,-1.403 -39.639,-1.346 -45.768,12.803c-2.741,6.327 -2.988,13.998 -2.868,20.668c0.106,5.882 -4.577,10.737 -10.459,10.842c-0.065,0.001 -0.131,0.002 -0.196,0.002Z" style="fill:#fff;fill-rule:nonzero;"/><g><path d="M530.759,525.929c-3.529,-0 -6.392,-2.862 -6.392,-6.392l0,-15.32c0,-3.53 2.862,-6.393 6.392,-6.393c3.53,0 6.392,2.862 6.392,6.393l0,15.32c-0.001,3.53 -2.862,6.392 -6.392,6.392Z" style="fill:#3c122c;fill-rule:nonzero;"/><path d="M565.145,475.402c-3.53,0 -6.392,-2.861 -6.392,-6.392l-0,-15.321c-0,-3.529 2.861,-6.392 6.392,-6.392c3.53,0 6.392,2.862 6.392,6.392l-0,15.321c-0,3.531 -2.862,6.392 -6.392,6.392Z" style="fill:#3c122c;fill-rule:nonzero;"/><path d="M590.874,517.005c-3.53,-0 -6.392,-2.862 -6.392,-6.391l-0,-15.321c-0,-3.529 2.861,-6.392 6.392,-6.392c3.529,-0 6.392,2.861 6.392,6.392l-0,15.321c-0.001,3.529 -2.863,6.391 -6.392,6.391Z" style="fill:#3c122c;fill-rule:nonzero;"/><path d="M633.627,422.615c-0.066,-13.342 -0.136,-27.142 -0.136,-40.793c-0,-11.885 -6.704,-20.055 -12.619,-27.264c-0.919,-1.119 -1.803,-2.199 -2.651,-3.272c-0,-23.923 -0.008,-50.731 -0.243,-74.258c-0.035,-3.501 -2.879,-6.322 -6.38,-6.327l-192.209,0c-3.501,0.006 -6.345,2.827 -6.381,6.327c-0.235,23.527 -0.242,50.335 -0.242,74.258c-0.849,1.073 -1.732,2.153 -2.651,3.272c-5.915,7.209 -12.619,15.379 -12.619,27.264c-0,13.65 -0.07,27.449 -0.137,40.793c-0.201,39.769 -0.407,80.885 1.227,121.863c-0.652,26.082 24.702,48.761 49.855,48.798l134.103,0c25.152,-0.037 50.508,-22.716 49.854,-48.798c1.637,-40.978 1.43,-82.095 1.229,-121.863Zm-51.568,157.887l-133.13,-0c-18.603,0.071 -38.296,-16.955 -37.564,-36.413c-1.629,-40.728 -1.422,-81.745 -1.223,-121.409c0.068,-13.361 0.138,-27.177 0.138,-40.858c-0,-7.311 4.503,-12.801 9.719,-19.156c1.416,-1.727 2.881,-3.511 4.272,-5.368c0.831,-1.106 1.279,-2.451 1.279,-3.834c0,-22.331 0.185,-69.991 0.185,-69.991l179.517,-0c0,-0 0.185,47.66 0.185,69.991c0,1.383 0.449,2.728 1.279,3.834c1.393,1.857 2.857,3.641 4.272,5.368c5.216,6.356 9.72,11.845 9.72,19.156c-0,13.682 0.07,27.497 0.137,40.858c0.199,39.664 0.407,80.681 -1.223,121.409c0.731,19.458 -18.96,36.484 -37.563,36.413Z" style="fill:#3c122c;fill-rule:nonzero;"/></g></g></g></svg>