<svg id="Capa_1" enable-background="new 0 0 512.003 512.003" height="512" viewBox="0 0 512.003 512.003" width="512" xmlns="http://www.w3.org/2000/svg"><g><path d="m306.001 64.908v-64.908h-100v64.908c-42.278 19.382-70 61.961-70 109.108v287.292c0 13.575 5.583 26.837 15.316 36.387 9.657 9.474 22.307 14.595 35.652 14.295 13.179-.252 25.158-5.708 33.978-14.368 9.03 8.887 21.413 14.378 35.054 14.378s26.023-5.491 35.054-14.378c8.819 8.66 20.799 14.116 33.977 14.368 13.316.233 25.996-4.821 35.653-14.295 9.733-9.55 15.316-22.812 15.316-36.387v-287.291c0-47.148-27.721-89.727-70-109.109zm-30-34.908v30h-40v-30zm-52.282 60h64.564c34.62 13.304 57.718 46.752 57.718 84.017v5.983h-180v-5.983c0-37.265 23.098-70.713 57.718-84.017zm-57.718 210v-30h180v30zm180 30v30h-180v-30zm-180-90v-30h180v30zm173.675 236.279c-3.77 3.697-8.622 5.72-13.704 5.72-.122 0-.244-.001-.367-.003-10.81-.207-19.604-9.177-19.604-19.996h-30c0 11.028-8.972 20-20 20s-20-8.972-20-20h-30c0 10.819-8.794 19.789-19.604 19.996-.123.002-.245.003-.367.003-5.08 0-9.935-2.022-13.703-5.72-4.02-3.943-6.325-9.4-6.325-14.971v-71.308h180v71.309c-.001 5.57-2.306 11.027-6.326 14.97z"/></g></svg>