<?xml version="1.0" encoding="UTF-8" standalone="no"?><!DOCTYPE svg PUBLIC "-//W3C//DTD SVG 1.1//EN" "http://www.w3.org/Graphics/SVG/1.1/DTD/svg11.dtd"><svg width="100%" height="100%" viewBox="0 0 1067 1067" version="1.1" xmlns="http://www.w3.org/2000/svg" xmlns:xlink="http://www.w3.org/1999/xlink" xml:space="preserve" xmlns:serif="http://www.serif.com/" style="fill-rule:evenodd;clip-rule:evenodd;stroke-linecap:round;stroke-linejoin:round;stroke-miterlimit:1.5;"><circle cx="533.333" cy="533.333" r="490.88" style="fill:#dfb5a7;stroke:#3c122c;stroke-width:38.4px;"/><g transform="matrix(0.256,0,0,0.256,133.389,27.9107)"><path d="M1539.92,3303.79c177.185,-0 300.13,-107.964 300.13,-271.718c-0,-141.541 -101.249,-240.723 -242.273,-240.723c-78.003,-0 -138.442,32.544 -167.37,81.618l-3.616,0l14.464,-187.516l285.148,0c45.459,0 74.387,-28.411 74.387,-72.837c0,-44.425 -29.445,-72.837 -74.387,-72.837l-335.256,0c-63.538,0 -100.732,28.412 -105.897,96.6l-19.63,261.902l-0,2.583c-3.1,50.108 25.312,93.5 87.817,93.5c41.326,0 60.439,-9.298 89.368,-34.61c23.762,-21.18 56.306,-39.776 97.115,-39.776c71.288,-0 121.395,48.041 121.395,116.229c0,69.737 -52.174,121.394 -122.944,121.394c-59.923,0 -96.083,-28.411 -125.011,-71.803c-22.729,-28.412 -45.459,-40.293 -81.102,-40.293c-48.042,-0 -76.453,27.895 -76.453,74.387c-0,18.08 4.649,35.643 12.914,52.173c38.227,75.937 147.74,131.727 271.201,131.727Z" style="fill:none;fill-rule:nonzero;stroke:#3c122c;stroke-width:204.17px;stroke-linecap:butt;stroke-miterlimit:2;"/><g transform="matrix(1057.94,0,0,1057.94,1189.16,3285.2)"><path d="M0.332,0.018c0.167,-0 0.283,-0.102 0.283,-0.257c0,-0.134 -0.095,-0.228 -0.229,-0.228c-0.074,0 -0.131,0.031 -0.158,0.077l-0.003,0l0.013,-0.177l0.27,0c0.043,0 0.07,-0.027 0.07,-0.069c0,-0.042 -0.028,-0.069 -0.07,-0.069l-0.317,0c-0.06,0 -0.095,0.027 -0.1,0.092l-0.019,0.247l0,0.003c-0.003,0.047 0.024,0.088 0.083,0.088c0.039,0 0.057,-0.009 0.085,-0.033c0.022,-0.02 0.053,-0.037 0.092,-0.037c0.067,-0 0.114,0.045 0.114,0.11c0,0.066 -0.049,0.114 -0.116,0.114c-0.057,0 -0.091,-0.026 -0.118,-0.067c-0.022,-0.027 -0.043,-0.039 -0.077,-0.039c-0.045,0 -0.072,0.027 -0.072,0.071c-0,0.017 0.004,0.033 0.012,0.049c0.036,0.072 0.14,0.125 0.257,0.125Z" style="fill:#faf1a9;fill-rule:nonzero;"/></g></g><clipPath id="_clip1"><rect x="262.5" y="87.935" width="541.667" height="541.667"/></clipPath><g clip-path="url(#_clip1)"><g><g><path d="M695.678,578.084l-294.728,0c-11.25,0 -20.371,9.12 -20.371,20.37l0,0.131c0,11.25 9.121,20.37 20.371,20.37l294.728,-0c11.25,-0 20.369,-9.12 20.369,-20.37l0,-0.131c0,-11.249 -9.119,-20.37 -20.369,-20.37Z" style="fill:#c1e5ef;fill-rule:nonzero;"/><path d="M410.127,510.146c0.443,0 0.879,-0.026 1.32,-0.033c16.522,38.15 54.501,64.842 98.72,64.842l76.293,-0c59.392,-0 107.538,-48.146 107.538,-107.537l-0,-157.929c-0,-14.305 -11.597,-25.903 -25.903,-25.903l-239.563,-0c-14.306,-0 -25.903,11.597 -25.903,25.903l-0,14.386l-10.117,0c-45.638,0 -82.766,37.129 -82.766,82.765l-0,20.74c-0,45.639 37.128,82.766 82.766,82.766l17.615,0Zm-61.847,-82.766l0,-20.74c0,-24.39 19.842,-44.232 44.233,-44.232l10.117,-0l-0,105.01c-0,1.406 0.036,2.802 0.089,4.196l-10.206,-0c-24.39,-0 -44.233,-19.843 -44.233,-44.234Z" style="fill:#c1e5ef;fill-rule:nonzero;"/><path d="M668.012,283.587l-65.875,-0c14.352,-0 25.987,11.635 25.987,25.987l-0,91.621c-0,59.583 -48.301,107.886 -107.885,107.886l-9.723,-0c-59.584,-0 -107.886,-48.303 -107.886,-107.886l-0,65.875c-0,59.583 48.301,107.886 107.886,107.886l75.598,-0c59.583,-0 107.885,-48.303 107.885,-107.886l-0,-157.496c-0,-14.353 -11.635,-25.987 -25.987,-25.987Z" style="fill:#a6aaed;fill-rule:nonzero;"/><path d="M566.318,541.677l-36.009,0c-51.749,0 -93.699,-41.95 -93.699,-93.699l-0,-108.933c-0,-6.945 5.63,-12.576 12.576,-12.576l198.255,0c6.945,0 12.576,5.631 12.576,12.576l-0,108.932c-0,51.75 -41.95,93.7 -93.699,93.7Z" style="fill:#faf1a9;fill-rule:nonzero;"/><path d="M647.362,326.469l-19.239,0l-0,74.725c-0,59.583 -48.302,107.886 -107.885,107.886l-9.723,-0c-24.449,-0 -46.995,-8.138 -65.087,-21.846c15.017,32.158 47.64,54.442 85.473,54.442l34.828,0c52.075,0 94.289,-42.214 94.289,-94.29l-0,-108.262c-0.001,-6.989 -5.667,-12.655 -12.656,-12.655Z" style="fill:#dfb5a7;fill-rule:nonzero;"/><path d="M666.1,506.751l-71.581,0c-11.546,0 -20.906,-9.951 -20.906,-22.226l0,-69.639c0,-5.671 2.039,-11.128 5.7,-15.253l35.378,-39.869c8.196,-9.236 21.991,-9.308 30.271,-0.159l36.202,39.998c3.748,4.141 5.842,9.664 5.842,15.411l-0,69.511c-0,12.275 -9.36,22.226 -20.906,22.226Z" style="fill:#fff;fill-rule:nonzero;"/><path d="M681.165,399.603l-36.202,-39.998c-6.696,-7.398 -16.995,-8.761 -25.025,-4.129c0.974,0.745 1.899,1.627 2.734,2.685l24.892,31.519c2.577,3.264 4.017,7.616 4.017,12.146l-0,54.776c-0,9.673 -6.436,17.515 -14.375,17.515l-49.216,-0c-7.939,-0 -14.374,-7.842 -14.374,-17.515l-0,27.923c-0,12.275 9.36,22.226 20.906,22.226l71.58,0c11.546,0 20.906,-9.951 20.906,-22.226l-0,-69.51c-0.002,-5.748 -2.096,-11.271 -5.843,-15.412Z" style="fill:#e1bdfc;fill-rule:nonzero;"/><path d="M663.919,488.421l-66.171,0c-3.127,0 -5.663,-2.536 -5.663,-5.663l0,-42.412c0,-3.127 2.536,-5.663 5.663,-5.663l66.171,0c3.128,0 5.664,2.535 5.664,5.663l-0,42.413c-0.001,3.127 -2.536,5.662 -5.664,5.662Z" style="fill:#a1e8c3;fill-rule:nonzero;"/><path d="M663.883,434.685l-12.303,0l-0,21.917c-0,9.673 -6.436,17.515 -14.376,17.515l-45.12,-0l0,8.606c0,3.149 2.552,5.699 5.699,5.699l66.1,0c3.148,0 5.699,-2.551 5.699,-5.699l-0,-42.339c-0,-3.148 -2.551,-5.699 -5.699,-5.699Z" style="fill:#85adc2;fill-rule:nonzero;"/><path d="M726.38,154.755l8.774,24.669c0.375,1.056 1.119,1.893 2.058,2.316l21.917,9.874c3.097,1.396 3.097,6.329 -0,7.724l-21.917,9.875c-0.939,0.423 -1.683,1.26 -2.058,2.316l-8.774,24.669c-1.24,3.485 -5.623,3.485 -6.863,0l-8.773,-24.669c-0.376,-1.056 -1.119,-1.894 -2.058,-2.316l-21.917,-9.875c-3.097,-1.395 -3.097,-6.328 -0,-7.724l21.917,-9.874c0.939,-0.424 1.682,-1.26 2.058,-2.316l8.773,-24.669c1.24,-3.485 5.625,-3.485 6.863,-0Z" style="fill:#faf1a9;fill-rule:nonzero;"/><path d="M390.808,194.563c0,4.564 -3.699,8.265 -8.263,8.265c-4.564,-0 -8.264,-3.7 -8.264,-8.265c0,-4.564 3.7,-8.264 8.264,-8.264c4.564,0 8.263,3.7 8.263,8.264Z" style="fill:#f6e06e;fill-rule:nonzero;"/><path d="M780.875,276.186c0,4.564 -3.7,8.264 -8.264,8.264c-4.564,-0 -8.263,-3.7 -8.263,-8.264c-0,-4.564 3.699,-8.263 8.263,-8.263c4.564,-0 8.264,3.699 8.264,8.263Z" style="fill:#f6e06e;fill-rule:nonzero;"/><path d="M316.897,217.035l6.509,18.299c0.279,0.783 0.83,1.404 1.526,1.718l16.259,7.325c2.297,1.035 2.297,4.694 -0,5.73l-16.259,7.325c-0.696,0.313 -1.247,0.934 -1.526,1.718l-6.509,18.3c-0.919,2.585 -4.17,2.585 -5.089,-0l-6.509,-18.3c-0.278,-0.784 -0.83,-1.404 -1.527,-1.718l-16.258,-7.325c-2.297,-1.035 -2.297,-4.694 -0,-5.73l16.258,-7.325c0.697,-0.313 1.248,-0.934 1.527,-1.718l6.509,-18.299c0.919,-2.586 4.17,-2.586 5.089,-0Z" style="fill:#faf1a9;fill-rule:nonzero;"/></g><g><path d="M467.327,454.892c-5.879,-0 -10.646,-4.767 -10.646,-10.646l0,-15.185c0,-5.879 4.767,-10.646 10.646,-10.646c5.879,0 10.646,4.767 10.646,10.646l0,15.185c0,5.879 -4.767,10.646 -10.646,10.646Z" style="fill:#fff;fill-rule:nonzero;"/><path d="M467.327,409.009c-5.879,-0 -10.646,-4.767 -10.646,-10.646l0,-6.43c0,-5.879 4.767,-10.646 10.646,-10.646c5.879,-0 10.646,4.767 10.646,10.646l0,6.43c0,5.879 -4.767,10.646 -10.646,10.646Z" style="fill:#fff;fill-rule:nonzero;"/><g><path d="M473.186,212.479c-1.916,0.001 -3.855,-0.516 -5.604,-1.6c-4.995,-3.101 -6.532,-9.664 -3.432,-14.66c0.08,-0.127 9.081,-14.944 9.081,-28.804c-0,-5.569 -1.409,-7.838 -3.74,-11.595c-2.929,-4.719 -6.941,-11.184 -6.941,-22.824c-0,-20.011 11.78,-39.219 12.281,-40.027c3.1,-4.996 9.665,-6.532 14.659,-3.431c4.989,3.096 6.527,9.646 3.444,14.64c-0.091,0.147 -9.092,14.96 -9.092,28.818c-0,5.569 1.408,7.838 3.74,11.595c2.928,4.721 6.941,11.184 6.941,22.824c-0,20.013 -11.779,39.224 -12.281,40.033c-2.015,3.246 -5.495,5.031 -9.056,5.031Z" style="fill:#3c122c;fill-rule:nonzero;"/><path d="M601.353,212.479c-1.916,0.001 -3.855,-0.516 -5.604,-1.6c-4.996,-3.101 -6.532,-9.664 -3.432,-14.66c0.079,-0.127 9.08,-14.944 9.08,-28.804c0,-5.569 -1.408,-7.838 -3.74,-11.595c-2.928,-4.719 -6.941,-11.184 -6.941,-22.824c0,-20.011 11.779,-39.219 12.282,-40.027c3.101,-4.996 9.664,-6.532 14.659,-3.431c4.99,3.097 6.529,9.648 3.442,14.642c-0.168,0.275 -9.091,15.018 -9.091,28.816c0,5.569 1.408,7.838 3.74,11.595c2.929,4.721 6.941,11.184 6.941,22.824c0,20.013 -11.779,39.224 -12.28,40.033c-2.016,3.246 -5.495,5.031 -9.056,5.031Z" style="fill:#3c122c;fill-rule:nonzero;"/><path d="M537.269,212.479c-1.916,0 -3.856,-0.516 -5.604,-1.602c-4.996,-3.099 -6.532,-9.663 -3.431,-14.658c0.078,-0.128 9.08,-14.944 9.08,-28.804c0,-5.569 -1.408,-7.838 -3.739,-11.595c-2.93,-4.719 -6.943,-11.184 -6.943,-22.824c0,-20.012 11.782,-39.22 12.283,-40.028c3.101,-4.993 9.662,-6.531 14.66,-3.43c4.99,3.097 6.529,9.652 3.439,14.646c-0.226,0.371 -9.09,15.062 -9.09,28.812c0,5.569 1.409,7.838 3.74,11.595c2.93,4.721 6.943,11.184 6.943,22.824c-0,20.013 -11.781,39.224 -12.283,40.033c-2.015,3.246 -5.494,5.031 -9.055,5.031Z" style="fill:#3c122c;fill-rule:nonzero;"/><path d="M695.678,567.438l-46.335,0c33.198,-20.947 55.301,-57.949 55.301,-100.021l-0,-157.928c-0,-20.153 -16.395,-36.549 -36.549,-36.549l-34.03,-0c-5.359,-17.151 -21.391,-29.633 -40.285,-29.633c-18.893,-0 -34.926,12.482 -40.285,29.633l-124.963,-0c-20.153,-0 -36.549,16.394 -36.549,36.549l-0,3.747c-51.264,0.286 -92.882,42.075 -92.882,93.405l-0,20.74c-0,51.508 41.904,93.412 93.411,93.412l12.228,0c9.72,19.121 24.491,35.255 42.543,46.646l-46.334,0c-17.103,0 -31.016,13.914 -31.016,31.016l0,0.131c0,17.103 13.914,31.017 31.016,31.017l294.728,-0c17.102,-0 31.017,-13.914 31.017,-31.017l-0,-0.131c0.001,-17.103 -13.913,-31.017 -31.016,-31.017Zm-303.166,-67.937c-39.767,0 -72.119,-32.353 -72.119,-72.12l-0,-20.741c-0,-39.589 32.067,-71.818 71.59,-72.106l-0,17.24c-30.016,0.286 -54.349,24.783 -54.349,54.865l0,20.74c0,30.26 24.618,54.88 54.878,54.88l0.4,-0c0.741,5.891 1.919,11.649 3.497,17.24l-3.897,0l-0,0.002Zm-0.529,-126.434l-0,87.887c-18.274,-0.285 -33.057,-15.231 -33.057,-33.574l0,-20.74c0.001,-18.341 14.783,-33.288 33.057,-33.573Zm243.992,-78.835l32.12,-0c8.413,-0 15.257,6.844 15.257,15.256l-0,83.012l-16.947,-18.726l-0,-34.651c-0,-10.499 -8.543,-19.042 -19.043,-19.042l-11.387,0l-0,-25.849Zm0.001,38.625l11.387,0c3.456,0 6.267,2.811 6.267,6.267l-0,20.536l-3.93,-4.342c-3.717,-4.107 -8.524,-6.931 -13.724,-8.183l-0,-14.278Zm4.252,31.034l36.201,39.998c2.702,2.984 4.189,6.935 4.189,11.124l0,70.291c0,8.734 -6.513,15.839 -14.518,15.839l-71.581,0c-8.005,0 -14.518,-7.105 -14.518,-15.839l0,-70.418c0,-4.129 1.453,-8.042 4.089,-11.013l35.378,-39.87c1.104,-1.245 2.366,-2.256 3.731,-3.032l0,26.392c-5.216,2.458 -8.837,7.749 -8.837,13.899c0,8.489 6.882,15.372 15.372,15.372c8.489,-0 15.371,-6.883 15.371,-15.372c-0,-6.265 -3.754,-11.645 -9.13,-14.04l-0,-26.58c1.561,0.789 3.004,1.87 4.253,3.249Zm-17.028,-16.601c-5.048,1.347 -9.694,4.185 -13.286,8.234l-35.379,39.87c-4.713,5.312 -7.308,12.234 -7.308,19.492l-0,70.418c-0,15.778 12.244,28.614 27.292,28.614l32.502,-0c-14.506,13.261 -33.792,21.37 -54.948,21.37l-47.52,0c-44.971,0 -81.555,-36.586 -81.555,-81.554l-0,-114.61c-0,-3.456 2.812,-6.267 6.268,-6.267l173.934,0l0,14.433Zm-29.42,-91.208c11.73,0 21.875,6.902 26.597,16.858l-53.194,-0c4.721,-9.955 14.866,-16.858 26.597,-16.858Zm-180.505,211.336l-0,-157.929c-0,-8.412 6.844,-15.256 15.256,-15.256l128.703,-0c0.243,0.028 0.487,0.045 0.737,0.045c0.249,0 0.494,-0.018 0.736,-0.045l64.491,-0l0,25.85l-173.932,-0c-10.501,-0 -19.044,8.542 -19.044,19.041l0,114.61c0,52.013 42.318,94.33 94.331,94.33l47.52,-0c29.154,-0 55.254,-13.301 72.571,-34.145l21.456,-0c1.949,-0 3.85,-0.219 5.684,-0.63c-16.382,30.351 -48.483,51.02 -85.324,51.02l-76.293,-0c-53.426,-0 -96.892,-43.465 -96.892,-96.891Zm292.127,131.167c0,5.362 -4.363,9.723 -9.723,9.723l-294.729,0c-5.362,0 -9.724,-4.363 -9.724,-9.723l0,-0.131c0,-5.362 4.362,-9.724 9.724,-9.724l294.728,0c5.361,0 9.723,4.362 9.723,9.724l0,0.131l0.001,-0Z" style="fill:#3c122c;fill-rule:nonzero;"/><path d="M663.883,494.809l-66.098,0c-6.665,0 -12.087,-5.422 -12.087,-12.086l0,-42.34c0,-6.664 5.422,-12.086 12.087,-12.086l66.098,0c6.664,0 12.086,5.422 12.086,12.086l0,42.34c0,6.665 -5.422,12.086 -12.086,12.086Zm-65.41,-12.774l64.721,-0l-0,-40.962l-64.721,0l-0,40.962Z" style="fill:#3c122c;fill-rule:nonzero;"/></g></g></g></g></svg>