<?xml version="1.0" encoding="UTF-8" standalone="no"?><!DOCTYPE svg PUBLIC "-//W3C//DTD SVG 1.1//EN" "http://www.w3.org/Graphics/SVG/1.1/DTD/svg11.dtd"><svg width="100%" height="100%" viewBox="0 0 1067 1067" version="1.1" xmlns="http://www.w3.org/2000/svg" xmlns:xlink="http://www.w3.org/1999/xlink" xml:space="preserve" xmlns:serif="http://www.serif.com/" style="fill-rule:evenodd;clip-rule:evenodd;stroke-linecap:round;stroke-linejoin:round;stroke-miterlimit:1.5;"><circle cx="533.333" cy="533.333" r="490.88" style="fill:#b2748a;stroke:#3c122c;stroke-width:38.4px;"/><g><g><path d="M627.919,610.311l-196.249,0c-8.739,0 -15.882,-6.975 -16.089,-15.712l-8.565,-361.462c-0.214,-9.035 7.051,-16.474 16.089,-16.474l215.093,-0c9.067,-0 16.345,7.487 16.087,16.55l-10.279,361.462c-0.248,8.707 -7.377,15.636 -16.087,15.636Z" style="fill:#fff;fill-rule:nonzero;"/><path d="M598.842,258.127l-7.314,287.556c-0.193,7.578 -5.744,13.609 -12.525,13.609l-152.793,0c-5.318,0 -9.863,-3.715 -11.677,-8.966l1.049,44.272c0.208,8.737 7.35,15.712 16.089,15.712l196.249,0c8.71,0 15.839,-6.929 16.087,-15.635l9.57,-336.548l-54.735,-0Z" style="fill:#e1bdfc;fill-rule:nonzero;"/><path d="M642.901,470.821l-224.499,-0c-11.315,-0 -20.486,-9.172 -20.486,-20.486l-0,-100.817c-0,-11.314 9.171,-20.486 20.486,-20.486l224.499,-0c11.314,-0 20.486,9.171 20.486,20.486l0,100.817c0,11.314 -9.171,20.486 -20.486,20.486Z" style="fill:#c49a8b;fill-rule:nonzero;"/><path d="M646.887,149.462l-121.98,0l-0,-4.479c-0,-11.971 -9.704,-21.674 -21.675,-21.674l-61.554,-0c-11.97,-0 -21.675,9.703 -21.675,21.674l0,4.479l-5.762,0c-22.55,0 -37.986,112.432 -15.436,112.432l263.74,-0c24.998,-0 9.339,-112.432 -15.658,-112.432Z" style="fill:#ccf3e2;fill-rule:nonzero;"/><path d="M641.265,329.033l-54.311,0c12.218,0 22.123,10.023 22.123,22.387l-0,68.006c-0,12.364 -9.905,22.388 -22.123,22.388l-166.916,-0c-12.218,-0 -22.122,-10.024 -22.122,-22.388l-0,29.008c-0,12.364 9.904,22.387 22.122,22.387l221.227,-0c12.218,-0 22.122,-10.023 22.122,-22.387l0,-97.014c0,-12.364 -9.904,-22.387 -22.122,-22.387Z" style="fill:#b2748a;fill-rule:nonzero;"/><path d="M646.887,149.462l-47.797,0c20.385,-0.001 33.157,82.959 12.77,82.959l-215.091,-0c-4.8,-0 -7.486,-5.657 -8.513,-14.009c-1.741,23.278 0.991,43.482 10.549,43.482l263.74,-0c24.998,-0 9.339,-112.432 -15.658,-112.432Z" style="fill:#b1b6e1;fill-rule:nonzero;"/><path d="M348.965,115.368l8.798,24.736c0.376,1.059 1.122,1.899 2.063,2.323l21.977,9.901c3.105,1.398 3.105,6.345 0,7.745l-21.977,9.902c-0.941,0.425 -1.687,1.264 -2.063,2.323l-8.798,24.736c-1.243,3.495 -5.639,3.495 -6.881,0l-8.797,-24.735c-0.376,-1.059 -1.122,-1.898 -2.063,-2.323l-21.978,-9.902c-3.105,-1.399 -3.105,-6.347 0,-7.745l21.978,-9.901c0.941,-0.425 1.687,-1.264 2.063,-2.323l8.798,-24.736c1.242,-3.496 5.638,-3.496 6.88,-0.001Z" style="fill:#cdf4e3;fill-rule:nonzero;"/><path d="M728.345,164.388c4.103,-9.775 15.37,-14.381 25.146,-10.277c9.775,4.103 14.38,15.37 10.277,25.146c-4.103,9.775 -15.371,14.38 -25.146,10.277c-9.775,-4.103 -14.38,-15.371 -10.277,-25.146Z" style="fill:#a2e9c4;"/><circle cx="307.287" cy="257.458" r="8.287" style="fill:#a2e9c4;"/><path d="M774.069,254.618l6.526,18.349c0.279,0.785 0.832,1.408 1.53,1.723l16.303,7.345c2.304,1.038 2.304,4.707 0,5.745l-16.303,7.345c-0.698,0.314 -1.251,0.937 -1.53,1.722l-6.526,18.349c-0.922,2.592 -4.182,2.592 -5.104,0l-6.526,-18.349c-0.279,-0.786 -0.832,-1.408 -1.531,-1.722l-16.302,-7.345c-2.304,-1.038 -2.304,-4.708 -0,-5.745l16.302,-7.345c0.699,-0.315 1.252,-0.938 1.531,-1.723l6.526,-18.349c0.922,-2.593 4.183,-2.593 5.104,0Z" style="fill:#cdf4e3;fill-rule:nonzero;"/></g><g><g><path d="M685.86,229.236c-0.001,-17.962 -3.228,-38.744 -8.633,-55.591c-7.416,-23.122 -17.625,-34.844 -30.34,-34.844l-111.918,0c-2.894,-14.882 -16.021,-26.153 -31.736,-26.153l-61.553,-0c-15.9,-0 -29.147,11.538 -31.831,26.679c-10.278,2.517 -18.358,14.157 -24.61,35.383c-5.019,17.041 -8.136,38.587 -8.136,56.232c-0,10.393 1.048,18.916 3.116,25.33c4.218,13.084 12.475,15.776 17.067,16.211l1.259,53.147c-6.893,5.747 -11.289,14.393 -11.289,24.049l-0,100.497c-0,11.238 5.955,21.108 14.871,26.632l2.797,118.043c0.345,14.648 12.094,26.122 26.746,26.122l196.249,0c14.582,0 26.33,-11.418 26.744,-25.995l3.341,-117.482c9.564,-5.364 16.045,-15.597 16.045,-27.321l0,-100.497c0,-9.853 -4.58,-18.652 -11.716,-24.394l1.501,-52.774c8.783,-0.568 22.027,-7.379 22.026,-43.274Zm-33.135,220.939c0,5.504 -4.478,9.984 -9.983,9.984l-224.181,-0c-5.504,-0 -9.983,-4.48 -9.983,-9.984l-0,-100.497c-0,-5.505 4.478,-9.983 9.983,-9.983l224.181,-0c5.505,-0 9.983,4.478 9.983,9.983l0,100.497Zm-233.024,-131.804l-1.086,-45.814l223.884,-0l-1.302,45.814l-221.496,0Zm10.965,-173.387c0,-6.073 4.941,-11.013 11.014,-11.013l61.553,-0c6.072,-0 11.013,4.94 11.013,11.013l-0,7.106c-0,6.073 -4.941,11.013 -11.013,11.013l-61.553,0c-6.073,0 -11.014,-4.94 -11.014,-11.013l0,-7.106Zm-29.522,55.806c3.095,-18.283 7.483,-29.924 10.803,-35.993c4.947,11.532 16.41,19.63 29.731,19.63l61.554,0c15.057,0 27.743,-10.346 31.325,-24.302l111.877,0c2.917,1.68 10.341,13.186 15.092,38.575c5.203,27.797 2.722,47.731 -0.325,52.533l-260.178,-0c-2.38,-5.252 -4.458,-23.389 0.121,-50.443Zm226.775,398.859l-196.249,0c-2.974,0 -5.359,-2.329 -5.429,-5.303l-2.675,-112.862l212.993,-0l-3.21,112.888c-0.085,2.96 -2.469,5.277 -5.43,5.277Z" style="fill:#3c122c;fill-rule:nonzero;"/><path d="M553.492,435.302c-3.532,0 -6.397,-2.865 -6.397,-6.397l0,-15.043c0,-3.532 2.864,-6.397 6.397,-6.397c3.533,-0 6.398,2.865 6.398,6.397l-0,15.043c-0,3.532 -2.865,6.397 -6.398,6.397Z" style="fill:#3c122c;fill-rule:nonzero;"/><path d="M596.612,435.302c-3.532,0 -6.397,-2.865 -6.397,-6.397l-0,-15.043c-0,-3.532 2.864,-6.397 6.397,-6.397c3.533,-0 6.397,2.865 6.397,6.397l0,15.043c0,3.532 -2.863,6.397 -6.397,6.397Z" style="fill:#3c122c;fill-rule:nonzero;"/></g><path d="M433.581,427.361c-5.889,0 -10.662,-4.774 -10.662,-10.662l0,-17.677c0,-5.887 4.773,-10.662 10.662,-10.662c5.888,0 10.662,4.774 10.662,10.662l-0,17.677c-0,5.889 -4.774,10.662 -10.662,10.662Z" style="fill:#fff;fill-rule:nonzero;"/><path d="M433.581,377.271c-5.889,-0 -10.662,-4.773 -10.662,-10.662l0,-5.635c0,-5.887 4.773,-10.661 10.662,-10.661c5.888,-0 10.662,4.773 10.662,10.661l-0,5.635c-0,5.888 -4.774,10.662 -10.662,10.662Z" style="fill:#fff;fill-rule:nonzero;"/></g></g><g transform="matrix(0.256,0,0,0.256,138.189,27.9107)"><path d="M1179.35,3303.79c177.185,-0 300.129,-107.964 300.129,-271.718c0,-141.541 -101.248,-240.723 -242.273,-240.723c-78.002,-0 -138.441,32.544 -167.37,81.618l-3.616,0l14.464,-187.516l285.149,0c45.459,0 74.387,-28.411 74.387,-72.837c-0,-44.425 -29.445,-72.837 -74.387,-72.837l-335.256,0c-63.539,0 -100.732,28.412 -105.898,96.6l-19.63,261.902l0,2.583c-3.099,50.108 25.313,93.5 87.818,93.5c41.326,0 60.439,-9.298 89.367,-34.61c23.763,-21.18 56.307,-39.776 97.116,-39.776c71.287,-0 121.395,48.041 121.395,116.229c-0,69.737 -52.174,121.394 -122.945,121.394c-59.922,0 -96.082,-28.411 -125.01,-71.803c-22.73,-28.412 -45.459,-40.293 -81.103,-40.293c-48.041,-0 -76.452,27.895 -76.452,74.387c-0,18.08 4.649,35.643 12.914,52.173c38.226,75.937 147.74,131.727 271.201,131.727Z" style="fill:none;fill-rule:nonzero;stroke:#3c122c;stroke-width:204.17px;stroke-linecap:butt;stroke-miterlimit:2;"/><path d="M1872.59,3303.79c197.331,-0 319.242,-149.807 319.242,-393.113c0,-244.856 -122.944,-390.013 -319.242,-390.013c-195.782,0 -319.759,145.674 -319.759,390.53c-0,243.823 122.428,392.596 319.759,392.596Zm-0,-147.74c-78.519,-0 -127.077,-82.136 -127.077,-245.373c-0,-162.204 48.558,-242.273 127.077,-242.273c78.519,0 126.56,79.553 126.56,242.79c0,162.72 -47.524,244.856 -126.56,244.856Z" style="fill:none;fill-rule:nonzero;stroke:#3c122c;stroke-width:204.17px;stroke-linecap:butt;stroke-miterlimit:2;"/><g transform="matrix(1057.94,0,0,1057.94,828.595,3285.2)"><path d="M0.332,0.018c0.167,-0 0.283,-0.102 0.283,-0.257c0,-0.134 -0.095,-0.228 -0.229,-0.228c-0.074,0 -0.131,0.031 -0.158,0.077l-0.003,0l0.013,-0.177l0.27,0c0.043,0 0.07,-0.027 0.07,-0.069c0,-0.042 -0.028,-0.069 -0.07,-0.069l-0.317,0c-0.06,0 -0.095,0.027 -0.1,0.092l-0.019,0.247l0,0.003c-0.003,0.047 0.024,0.088 0.083,0.088c0.039,0 0.057,-0.009 0.085,-0.033c0.022,-0.02 0.053,-0.037 0.092,-0.037c0.067,-0 0.114,0.045 0.114,0.11c0,0.066 -0.049,0.114 -0.116,0.114c-0.057,0 -0.091,-0.026 -0.118,-0.067c-0.022,-0.027 -0.043,-0.039 -0.077,-0.039c-0.045,0 -0.072,0.027 -0.072,0.071c-0,0.017 0.004,0.033 0.012,0.049c0.036,0.072 0.14,0.125 0.257,0.125Z" style="fill:#c49a8b;fill-rule:nonzero;"/></g><g transform="matrix(1057.94,0,0,1057.94,1512.02,3285.2)"><path d="M0.341,0.018c0.186,-0 0.302,-0.142 0.302,-0.372c-0,-0.231 -0.117,-0.369 -0.302,-0.369c-0.185,0 -0.302,0.138 -0.302,0.369c-0,0.231 0.115,0.372 0.302,0.372Zm-0,-0.14c-0.074,-0 -0.12,-0.078 -0.12,-0.232c-0,-0.153 0.046,-0.229 0.12,-0.229c0.074,-0 0.119,0.075 0.119,0.229c0,0.154 -0.044,0.232 -0.119,0.232Z" style="fill:#c49a8b;fill-rule:nonzero;"/></g></g></svg>